<svg xmlns="http://www.w3.org/2000/svg" viewBox="0 0 2294.96 301"><defs><style>.cls-1{fill:#a67c52;}.cls-1,.cls-2{stroke:#000;stroke-miterlimit:10;}.cls-2{fill:#8cc63f;}.cls-3{fill:#00a99d;}</style></defs><g id="Layer_2" data-name="Layer 2"><g id="Layer_1-2" data-name="Layer 1"><path class="cls-1" d="M98.74,161.83c11.74-5-26.28,5.11,8.52,29.21S80.15,185.29,74,179.54l-2.1-2.87s-.7,22.67,23.2,30,31.59,68.79,12.44,75.34-16.07,10.85-16.07,17.39,8.94-18.67,32.43-18,0-91.08,0-91.08S87,166.78,98.74,161.83Z"/><path class="cls-1" d="M174,206.68c23.9-7.34,23.2-30,23.2-30l-2.1,2.87c-6.15,5.75-68.07,35.6-33.26,11.5s-3.22-34.16,8.52-29.21-25.16,28.47-25.16,28.47-23.48,91.72,0,91.08,32.43,24.58,32.43,18,3.07-10.85-16.07-17.39S150.12,214,174,206.68Z"/><path class="cls-2" d="M133.8,117.52a27.07,27.07,0,0,0-1.4,42.17,28.81,28.81,0,0,1-1.8-10.39c0-5.3,1.23-10,3.14-13.12,1.92,3.1,3.14,7.82,3.14,13.12A28.84,28.84,0,0,1,135,159.85a27.08,27.08,0,0,0-1.23-42.33Z"/><path class="cls-2" d="M133.94,162.63a24.15,24.15,0,0,0-1.28,38,25.66,25.66,0,0,1-1.64-9.35,23,23,0,0,1,2.86-11.81c1.75,2.78,2.87,7,2.87,11.81a25.37,25.37,0,0,1-1.7,9.49,24.16,24.16,0,0,0-1.11-38.1Z"/><path class="cls-2" d="M134.21,22.5a24.15,24.15,0,0,0-1.28,38,25.66,25.66,0,0,1-1.64-9.35,22.93,22.93,0,0,1,2.87-11.81A23,23,0,0,1,137,51.11a25.58,25.58,0,0,1-1.69,9.49,24.17,24.17,0,0,0-1.12-38.1Z"/><path class="cls-2" d="M118.2,27.15A22.51,22.51,0,0,0,97,27.74,24,24,0,0,0,85.76,44.57a24.06,24.06,0,0,1,7-6.07c4-2.33,8.1-3.4,11.3-3.17a21.88,21.88,0,0,1-8.5,8.38,23.22,23.22,0,0,1-8.79,3.1,22.3,22.3,0,0,0,19.88-1.15C113.28,41.81,117.29,34.87,118.2,27.15Z"/><path class="cls-2" d="M134.29,66.77a33.42,33.42,0,0,0-1.39,47.79,36.89,36.89,0,0,1-1.79-11.78c0-6,1.22-11.36,3.12-14.87,1.91,3.51,3.13,8.87,3.13,14.87a36.6,36.6,0,0,1-1.85,12,33.43,33.43,0,0,0-1.22-48Z"/><path class="cls-2" d="M114.24,41.67a33.43,33.43,0,0,0-1.4,47.79,36.8,36.8,0,0,1-1.78-11.77c0-6,1.21-11.36,3.12-14.87,1.91,3.51,3.13,8.87,3.13,14.87a36.64,36.64,0,0,1-1.85,12,33.44,33.44,0,0,0-1.22-48Z"/><path class="cls-2" d="M114.24,90.73a33.43,33.43,0,0,0-1.4,47.79,36.84,36.84,0,0,1-1.78-11.77c0-6,1.21-11.36,3.12-14.87,1.91,3.51,3.13,8.87,3.13,14.87a36.54,36.54,0,0,1-1.85,11.95,33.43,33.43,0,0,0-1.22-48Z"/><path class="cls-2" d="M101.85,53A30.26,30.26,0,0,0,78,63.61a33,33,0,0,0-8.11,23.74,36,36,0,0,1,6.3-9.95c3.88-4.44,8.25-7.55,11.93-8.81-.86,3.94-3.42,8.75-7.31,13.19a34.39,34.39,0,0,1-9.1,7.54A30.42,30.42,0,0,0,93.93,78.7,33,33,0,0,0,101.85,53Z"/><path class="cls-2" d="M38.83,70.71A31.5,31.5,0,0,0,20.73,90,33.33,33.33,0,0,0,22,115.21a36.82,36.82,0,0,1,2.13-11.71c2-5.65,4.83-10.27,7.76-12.9.66,4,.07,9.44-1.87,15.09a35.94,35.94,0,0,1-5.62,10.61A31.73,31.73,0,0,0,41,97.6,33.28,33.28,0,0,0,38.83,70.71Z"/><path class="cls-2" d="M64,76a31.21,31.21,0,0,0-19.67,17.6,33.3,33.3,0,0,0-.85,25.18,36.57,36.57,0,0,1,3.12-11.46c2.41-5.45,5.68-9.79,8.82-12.14.32,4-.73,9.41-3.15,14.86a35.39,35.39,0,0,1-6.49,10A31.38,31.38,0,0,0,63.91,103,33.29,33.29,0,0,0,64,76Z"/><path class="cls-2" d="M10.25,106a33.43,33.43,0,0,0,.63,47.81A37,37,0,0,1,8.6,142.11c-.26-6,.73-11.4,2.49-15,2.05,3.42,3.5,8.72,3.75,14.71a36.43,36.43,0,0,1-1.34,12A32.88,32.88,0,0,0,22.05,130,32.52,32.52,0,0,0,10.25,106Z"/><path class="cls-2" d="M21.75,147.51a28.23,28.23,0,0,0-1.94,24.23,26.47,26.47,0,0,0,15.94,15.41,28.94,28.94,0,0,1-5.38-9c-1.92-4.91-2.53-9.76-1.92-13.37,2.86,2.14,5.68,6.06,7.6,11a29.42,29.42,0,0,1,2.14,10.49,28.17,28.17,0,0,0,1.2-22.83A26.55,26.55,0,0,0,21.75,147.51Z"/><path class="cls-2" d="M102.52,78.09A26.58,26.58,0,0,0,85,94.18a28.1,28.1,0,0,0,1.26,22.6,29.59,29.59,0,0,1,2.06-10.33c1.89-4.93,4.68-8.87,7.52-11,.64,3.6.07,8.46-1.82,13.39a28.48,28.48,0,0,1-5.44,9.11,26.49,26.49,0,0,0,16.06-15.61A28.25,28.25,0,0,0,102.52,78.09Z"/><path class="cls-2" d="M44.53,168.79A26,26,0,0,0,51.29,189,24,24,0,0,0,69,196.91a26.85,26.85,0,0,1-7.24-5.7,24.92,24.92,0,0,1-6.05-10.3c3,.91,6.48,3.27,9.64,6.7a27.87,27.87,0,0,1,5.25,7.9,26,26,0,0,0-6.86-18.88A23.86,23.86,0,0,0,44.53,168.79Z"/><path class="cls-2" d="M35.36,114.19a26.38,26.38,0,0,0,1.34,37.87,28.93,28.93,0,0,1-2-9.21,25.59,25.59,0,0,1,1.72-11.93,25.51,25.51,0,0,1,3.26,11.58,29.09,29.09,0,0,1-.86,9.56A26,26,0,0,0,45.2,133,25.63,25.63,0,0,0,35.36,114.19Z"/><path class="cls-2" d="M78.11,91.53A24.93,24.93,0,0,0,63.84,107a26.31,26.31,0,0,0,1.23,20,29,29,0,0,1,1.6-9.3c1.51-4.49,3.77-8.17,6.09-10.27a25.71,25.71,0,0,1-1.37,12,28.31,28.31,0,0,1-4.4,8.44,25.11,25.11,0,0,0,13.08-14.91A26.28,26.28,0,0,0,78.11,91.53Z"/><path class="cls-2" d="M99.2,114.11a18.15,18.15,0,0,0-9.93,11.15A19.18,19.18,0,0,0,90,139.45a21.52,21.52,0,0,1,1.15-6.64,18.3,18.3,0,0,1,4.25-7.38,18.94,18.94,0,0,1-1,8.54A20.93,20.93,0,0,1,91.36,140a18.26,18.26,0,0,0,9.09-10.77A19.08,19.08,0,0,0,99.2,114.11Z"/><path class="cls-2" d="M56.59,117.46a27,27,0,0,0-6.42,19.31,27.3,27.3,0,0,0,7.15,17.64,32.4,32.4,0,0,1-1.62-9,28.27,28.27,0,0,1,1.59-11.58,28.1,28.1,0,0,1,2.63,11.38,31.94,31.94,0,0,1-.83,9.29,27.39,27.39,0,0,0,5.64-18.4C64.38,128.41,61.23,121.71,56.59,117.46Z"/><path class="cls-2" d="M82.1,121.21a17.32,17.32,0,0,0-8.35,12.51,17.74,17.74,0,0,0,3.75,13.63,19.1,19.1,0,0,1-.13-6.63,16.67,16.67,0,0,1,3-7.89,17,17,0,0,1,.69,8.46,19,19,0,0,1-2,6.4,17.27,17.27,0,0,0,7.53-12A17.79,17.79,0,0,0,82.1,121.21Z"/><path class="cls-2" d="M104.39,130.14a11.88,11.88,0,0,0-5.83,9.61,11.75,11.75,0,0,0,4.6,9.39,11.86,11.86,0,0,1-.8-4.72,10.56,10.56,0,0,1,1.77-5.87,10.49,10.49,0,0,1,1.46,6,11.49,11.49,0,0,1-1.08,4.73,11.74,11.74,0,0,0,5.19-9.18A12,12,0,0,0,104.39,130.14Z"/><path class="cls-2" d="M82.41,147.4a12.19,12.19,0,0,0-2.82,11,11.42,11.42,0,0,0,7.07,7.55,11.48,11.48,0,0,1-2.1-4.26,10.57,10.57,0,0,1,0-6.15,10.21,10.21,0,0,1,3.1,5.24,11.57,11.57,0,0,1,.31,4.86,12,12,0,0,0,2.34-10.37A11.61,11.61,0,0,0,82.41,147.4Z"/><path class="cls-2" d="M92.17,140.92a12.16,12.16,0,0,0-2.82,11,11.38,11.38,0,0,0,7.07,7.54,11.44,11.44,0,0,1-2.11-4.25,10.6,10.6,0,0,1,0-6.16,10.31,10.31,0,0,1,3.09,5.25,11.54,11.54,0,0,1,.32,4.85,12,12,0,0,0,2.33-10.37A11.59,11.59,0,0,0,92.17,140.92Z"/><path class="cls-2" d="M75.16,165.07c-1,4.09-.31,8.22,2.26,11.12a10.85,10.85,0,0,0,9.58,3.4,10.85,10.85,0,0,1-3.73-2.8,10.35,10.35,0,0,1-2.65-5.49,9.75,9.75,0,0,1,5,3.22,11.23,11.23,0,0,1,2.39,4.18,12,12,0,0,0-2.43-10.35A11.1,11.1,0,0,0,75.16,165.07Z"/><path class="cls-2" d="M58.63,161.41c-1,4.09-.31,8.21,2.26,11.12a10.91,10.91,0,0,0,9.58,3.4,11,11,0,0,1-3.73-2.8,10.38,10.38,0,0,1-2.65-5.5,9.75,9.75,0,0,1,5,3.22A11.39,11.39,0,0,1,71.52,175a12,12,0,0,0-2.43-10.34A11.07,11.07,0,0,0,58.63,161.41Z"/><path class="cls-2" d="M42.1,151.26c-1,4.09-.31,8.21,2.26,11.12a10.91,10.91,0,0,0,9.58,3.4,11,11,0,0,1-3.73-2.8,10.38,10.38,0,0,1-2.65-5.5,9.75,9.75,0,0,1,5,3.22A11.39,11.39,0,0,1,55,164.88a12,12,0,0,0-2.43-10.34A11.07,11.07,0,0,0,42.1,151.26Z"/><path class="cls-2" d="M70.75,142.54a11.31,11.31,0,0,0-1.15,19,11.66,11.66,0,0,1-.82-4.71A10.43,10.43,0,0,1,70.53,151a10.51,10.51,0,0,1,1.48,6A11.49,11.49,0,0,1,71,161.65a11.76,11.76,0,0,0,5.15-9.2A12,12,0,0,0,70.75,142.54Z"/><path class="cls-2" d="M111.12,142.08A26.15,26.15,0,0,0,106,162.82a25.5,25.5,0,0,0,10.51,16.74,28.65,28.65,0,0,1-3-8.92,25.66,25.66,0,0,1,.45-12.06,25.34,25.34,0,0,1,4.46,11.14,29.19,29.19,0,0,1,.17,9.6,26.21,26.21,0,0,0,4.33-19.67A25.34,25.34,0,0,0,111.12,142.08Z"/><path class="cls-2" d="M81.52,46.17a29.91,29.91,0,0,0-25.25,6.19A32.49,32.49,0,0,0,44.36,74.3a34.87,34.87,0,0,1,7.85-8.68c4.56-3.68,9.37-6,13.21-6.54-1.5,3.72-4.82,8-9.38,11.68a33.53,33.53,0,0,1-10.22,5.8,30,30,0,0,0,23.64-6.49A32.52,32.52,0,0,0,81.52,46.17Z"/><path class="cls-2" d="M150.8,26.59a22.49,22.49,0,0,1,21.17.58A24,24,0,0,1,183.24,44a24.19,24.19,0,0,0-7-6.06c-4-2.33-8.11-3.4-11.3-3.18a21.75,21.75,0,0,0,8.5,8.38,23.08,23.08,0,0,0,8.79,3.11,22.33,22.33,0,0,1-19.88-1.16C155.71,41.24,151.71,34.31,150.8,26.59Z"/><path class="cls-2" d="M154.76,41.11a33.42,33.42,0,0,1,1.39,47.79,36.83,36.83,0,0,0,1.79-11.77c0-6-1.22-11.36-3.12-14.87-1.91,3.51-3.13,8.86-3.13,14.87a36.58,36.58,0,0,0,1.85,12,33.43,33.43,0,0,1,1.22-48Z"/><path class="cls-2" d="M154.76,90.17A33.42,33.42,0,0,1,156.15,138a36.89,36.89,0,0,0,1.79-11.78c0-6-1.22-11.35-3.12-14.86-1.91,3.51-3.13,8.86-3.13,14.86a36.6,36.6,0,0,0,1.85,12,33.43,33.43,0,0,1,1.22-48Z"/><path class="cls-2" d="M167.15,52.44A30.28,30.28,0,0,1,191,63a33,33,0,0,1,8.11,23.75,36,36,0,0,0-6.3-10c-3.89-4.43-8.25-7.54-11.94-8.8.87,3.93,3.43,8.75,7.32,13.18a34.09,34.09,0,0,0,9.1,7.55,30.45,30.45,0,0,1-22.22-10.62A33,33,0,0,1,167.15,52.44Z"/><path class="cls-2" d="M230.17,70.15a31.5,31.5,0,0,1,18.1,19.33A33.36,33.36,0,0,1,247,114.64a36.82,36.82,0,0,0-2.13-11.71C242.9,97.28,240,92.67,237.08,90c-.65,4-.07,9.45,1.88,15.1a35.75,35.75,0,0,0,5.62,10.6A31.68,31.68,0,0,1,228,97,33.24,33.24,0,0,1,230.17,70.15Z"/><path class="cls-2" d="M205,75.46a31.23,31.23,0,0,1,19.67,17.6,33.34,33.34,0,0,1,.85,25.18,36.55,36.55,0,0,0-3.12-11.47c-2.42-5.45-5.68-9.78-8.83-12.14-.31,4,.74,9.42,3.15,14.87a35.76,35.76,0,0,0,6.5,10,31.41,31.41,0,0,1-18.11-17.1A33.29,33.29,0,0,1,205,75.46Z"/><path class="cls-2" d="M258.75,105.42a33.42,33.42,0,0,1-.63,47.8,37,37,0,0,0,2.28-11.68c.26-6-.73-11.4-2.49-15-2.06,3.42-3.5,8.71-3.76,14.71a36.68,36.68,0,0,0,1.35,12,32.93,32.93,0,0,1-8.56-23.84A32.56,32.56,0,0,1,258.75,105.42Z"/><path class="cls-2" d="M247.25,146.94a28.25,28.25,0,0,1,1.94,24.24,26.47,26.47,0,0,1-15.95,15.4,28.59,28.59,0,0,0,5.39-8.94c1.92-4.91,2.53-9.76,1.91-13.37-2.85,2.14-5.67,6-7.59,11a29.21,29.21,0,0,0-2.14,10.5,28.11,28.11,0,0,1-1.2-22.84A26.58,26.58,0,0,1,247.25,146.94Z"/><path class="cls-2" d="M166.48,77.53A26.55,26.55,0,0,1,184,93.61a28.09,28.09,0,0,1-1.25,22.61,29.69,29.69,0,0,0-2.06-10.34c-1.89-4.92-4.68-8.86-7.52-11-.64,3.6-.07,8.46,1.82,13.38a28.64,28.64,0,0,0,5.43,9.12,26.59,26.59,0,0,1-16.06-15.62A28.23,28.23,0,0,1,166.48,77.53Z"/><path class="cls-2" d="M224.47,168.22a26,26,0,0,1-6.76,20.24,24,24,0,0,1-17.66,7.89,27.1,27.1,0,0,0,7.24-5.71,25,25,0,0,0,6.05-10.29c-3,.91-6.48,3.27-9.65,6.7a27.89,27.89,0,0,0-5.24,7.9,26,26,0,0,1,6.86-18.89A23.92,23.92,0,0,1,224.47,168.22Z"/><path class="cls-2" d="M233.63,113.63a26.35,26.35,0,0,1-1.34,37.87,29,29,0,0,0,2-9.21,25.65,25.65,0,0,0-1.73-11.94,25.65,25.65,0,0,0-3.25,11.59,29,29,0,0,0,.86,9.55,26,26,0,0,1-6.4-19.05A25.62,25.62,0,0,1,233.63,113.63Z"/><path class="cls-2" d="M190.88,91a24.91,24.91,0,0,1,14.28,15.43,26.34,26.34,0,0,1-1.23,20,28.89,28.89,0,0,0-1.61-9.3,25,25,0,0,0-6.08-10.27,25.7,25.7,0,0,0,1.37,12,28.06,28.06,0,0,0,4.4,8.44,25,25,0,0,1-13.08-14.91A26.29,26.29,0,0,1,190.88,91Z"/><text/><path class="cls-2" d="M212.41,116.89a28.48,28.48,0,0,1-.73,37,32.33,32.33,0,0,0,1.62-9,28.35,28.35,0,0,0-1.59-11.59,28.13,28.13,0,0,0-2.64,11.38,32.33,32.33,0,0,0,.83,9.3,27.48,27.48,0,0,1-5.63-18.41C204.62,127.84,207.77,121.15,212.41,116.89Z"/><path class="cls-2" d="M186.9,120.65a17.3,17.3,0,0,1,8.35,12.5,17.78,17.78,0,0,1-3.75,13.64,19.15,19.15,0,0,0,.13-6.64,16.68,16.68,0,0,0-3-7.88,17,17,0,0,0-.69,8.46,19,19,0,0,0,2,6.4,17.31,17.31,0,0,1-7.53-12A17.77,17.77,0,0,1,186.9,120.65Z"/><path class="cls-2" d="M164.61,129.57a11.31,11.31,0,0,1,1.23,19,11.81,11.81,0,0,0,.8-4.71,10.48,10.48,0,0,0-1.78-5.87,10.51,10.51,0,0,0-1.46,6,11.45,11.45,0,0,0,1.09,4.73,11.71,11.71,0,0,1-5.19-9.18A12,12,0,0,1,164.61,129.57Z"/><path class="cls-2" d="M186.59,146.84a12.18,12.18,0,0,1,2.82,11,11.42,11.42,0,0,1-7.08,7.54,11.29,11.29,0,0,0,2.11-4.25,10.65,10.65,0,0,0,0-6.15,10.17,10.17,0,0,0-3.1,5.24,11.71,11.71,0,0,0-.32,4.85,12,12,0,0,1-2.33-10.37A11.6,11.6,0,0,1,186.59,146.84Z"/><path class="cls-2" d="M176.83,140.36a12.15,12.15,0,0,1,2.82,11,11.4,11.4,0,0,1-7.07,7.54,11.44,11.44,0,0,0,2.11-4.25,10.59,10.59,0,0,0,0-6.16,10.34,10.34,0,0,0-3.1,5.25,11.68,11.68,0,0,0-.31,4.85,12,12,0,0,1-2.33-10.37A11.55,11.55,0,0,1,176.83,140.36Z"/><path class="cls-2" d="M193.83,164.51c1,4.09.32,8.21-2.25,11.12A10.91,10.91,0,0,1,182,179a10.82,10.82,0,0,0,3.72-2.8,10.33,10.33,0,0,0,2.66-5.5,9.82,9.82,0,0,0-5,3.22,11.39,11.39,0,0,0-2.39,4.18,11.94,11.94,0,0,1,2.43-10.34A11.06,11.06,0,0,1,193.83,164.51Z"/><path class="cls-2" d="M210.36,160.84c1,4.1.32,8.22-2.25,11.12a10.89,10.89,0,0,1-9.58,3.41,10.86,10.86,0,0,0,3.72-2.81,10.3,10.3,0,0,0,2.66-5.49,9.75,9.75,0,0,0-5,3.22,11.23,11.23,0,0,0-2.39,4.18,12,12,0,0,1,2.43-10.35A11.09,11.09,0,0,1,210.36,160.84Z"/><path class="cls-2" d="M226.89,150.69c1,4.1.32,8.22-2.25,11.12a10.89,10.89,0,0,1-9.58,3.41,10.86,10.86,0,0,0,3.72-2.81,10.3,10.3,0,0,0,2.66-5.49,9.75,9.75,0,0,0-5,3.22,11.23,11.23,0,0,0-2.39,4.18A12,12,0,0,1,216.44,154,11.09,11.09,0,0,1,226.89,150.69Z"/><path class="cls-2" d="M198.25,142a11.88,11.88,0,0,1,5.79,9.63A11.76,11.76,0,0,1,199.4,161a11.63,11.63,0,0,0,.82-4.71,10.54,10.54,0,0,0-1.75-5.88,10.43,10.43,0,0,0-1.48,6,11.54,11.54,0,0,0,1.06,4.74,11.72,11.72,0,0,1-5.15-9.2A11.92,11.92,0,0,1,198.25,142Z"/><path class="cls-2" d="M157.87,141.52A26.11,26.11,0,0,1,163,162.26,25.5,25.5,0,0,1,152.51,179a28.74,28.74,0,0,0,3-8.92,25.79,25.79,0,0,0-.45-12.06,25.34,25.34,0,0,0-4.46,11.14,28.92,28.92,0,0,0-.17,9.6,26.24,26.24,0,0,1-4.33-19.68A25.33,25.33,0,0,1,157.87,141.52Z"/><path class="cls-2" d="M187.48,45.61a29.92,29.92,0,0,1,25.25,6.18,32.53,32.53,0,0,1,11.91,21.95,35.09,35.09,0,0,0-7.85-8.69c-4.56-3.67-9.37-5.95-13.21-6.53,1.5,3.71,4.82,8,9.38,11.68A33.74,33.74,0,0,0,223.18,76a30.06,30.06,0,0,1-23.65-6.49A32.56,32.56,0,0,1,187.48,45.61Z"/><path d="M1695.36,3a1.5,1.5,0,0,0,0-3,1.5,1.5,0,0,0,0,3Z"/><path d="M269.38,76.24h23.3l27.9,105.51c6.07,23,10.23,41.58,16.64,64.47h1c6.41-22.89,10.66-41.5,16.64-64.47l27.7-105.51H405L350.1,271.43H324.61Z"/><path d="M427.57,76.24H527.2v21H449.56v61.16h65.49v21H449.56v71h80.27v21H427.57Z"/><path d="M566.36,76.24H620.5c35.21,0,60.49,14.27,60.49,54.94,0,39-25.28,57.75-60.49,57.75H588.36v82.5h-22Zm51,92.54c26.9,0,41.71-12.3,41.71-37.6,0-25.68-14.81-34.79-41.71-34.79h-29v72.39Zm-1.17,13.35,17.23-12.86,52.75,102.16H661.21Z"/><path d="M748.52,97.26H696.23v-21H822.81v21H770.52V271.43h-22Z"/><path d="M853.71,76.24h22V271.43h-22Z"/><path d="M912.93,174c0-63,32.85-101.34,76.71-101.34,21,0,37.43,11.52,47.54,24.07l-12,16.18c-9.09-11-20.52-18.41-35.1-18.41-32.67,0-54.38,30.21-54.38,78.84,0,49.07,20.74,79.82,53.52,79.82,16.5,0,29-8.11,40.07-21.92l12,15.58c-13.66,17.9-30.58,28.17-53,28.17C945.2,275,912.93,237.4,912.93,174Z"/><path d="M1108.9,76.24h24.82l58.48,195.19h-23.3l-30.14-109c-6.22-21.83-11.76-43.25-17.31-65.78h-1c-5.35,22.64-10.9,44-17.11,65.78l-30.48,109h-22.38Zm-27.73,115.91h79.59V212h-79.59Z"/><path d="M1215.58,76.24h22V250.41H1313v21h-97.44Z"/><path class="cls-3" d="M1326.7,174c0-63,33.51-101.34,79.34-101.34,24,0,39.73,12.27,49.84,24.07l-12.05,16.18c-8.76-10.21-19.85-18.41-37.21-18.41-34.83,0-57.2,30.21-57.2,78.84,0,49.07,20.54,79.82,57.42,79.82,12.4,0,24.32-4.2,31.15-11.47V190.88h-36.61V170.29h56.67v82.05c-11.12,13.08-30,22.66-53.29,22.66C1359.16,275,1326.7,237.4,1326.7,174Z"/><path class="cls-3" d="M1499.24,76.24h54.13c35.21,0,60.49,14.27,60.49,54.94,0,39-25.28,57.75-60.49,57.75h-32.14v82.5h-22Zm51,92.54c26.9,0,41.71-12.3,41.71-37.6,0-25.68-14.81-34.79-41.71-34.79h-29v72.39ZM1549,182.13l17.23-12.86L1619,271.43h-24.94Z"/><path class="cls-3" d="M1639.06,173.13c0-62.51,30.46-100.46,73.88-100.46s73.88,38.05,73.88,100.46S1756.35,275,1712.94,275,1639.06,235.65,1639.06,173.13Zm125,0c0-48.63-20.3-78.62-51.16-78.62s-51.17,30-51.17,78.62,20.3,80,51.17,80S1764.1,221.76,1764.1,173.13Z"/><path class="cls-3" d="M1804.73,76.24h22.72l18.14,106.27c3.34,21,6.78,42,10.12,62.92h1c3.83-21,8-42.06,12.15-62.92l24-106.27h19.95l24,106.27c4.16,20.64,8.32,41.84,12.48,62.92h1c3.35-21.08,6.45-42.17,9.79-62.92l18.14-106.27h21.22l-35.77,195.19h-26.45L1911.13,154.1c-3-15.24-5.74-29.42-8.31-44.45h-1.06c-2.67,15-5.68,29.21-8.65,44.45l-25.63,117.33h-26.06Z"/><path class="cls-3" d="M2065.4,97.26h-52.3v-21h126.59v21h-52.3V271.43h-22Z"/><path class="cls-3" d="M2170.58,76.24h22V158H2273V76.24h22V271.43h-22V179.67h-80.4v91.76h-22Z"/></g></g></svg>