<svg xmlns="http://www.w3.org/2000/svg" version="1.1" xmlns:xlink="http://www.w3.org/1999/xlink" xmlns:svgjs="http://svgjs.com/svgjs" width="1440" height="250" preserveAspectRatio="none" viewBox="0 0 1440 250"><g mask="url(&quot;#SvgjsMask1291&quot;)" fill="none"><rect width="1440" height="250" x="0" y="0" fill="rgba(255, 255, 255, 1)"></rect><path d="M46 250L296 0L557 0L307 250z" fill="url(#SvgjsLinearGradient1292)"></path><path d="M253.60000000000002 250L503.6 0L847.1 0L597.1 250z" fill="url(#SvgjsLinearGradient1292)"></path><path d="M500.20000000000005 250L750.2 0L1017.2 0L767.2 250z" fill="url(#SvgjsLinearGradient1292)"></path><path d="M751.8000000000001 250L1001.8000000000001 0L1226.8000000000002 0L976.8000000000001 250z" fill="url(#SvgjsLinearGradient1292)"></path><path d="M1422 250L1172 0L1046 0L1296 250z" fill="url(#SvgjsLinearGradient1293)"></path><path d="M1198.4 250L948.4000000000001 0L673.9000000000001 0L923.9000000000001 250z" fill="url(#SvgjsLinearGradient1293)"></path><path d="M941.8 250L691.8 0L649.8 0L899.8 250z" fill="url(#SvgjsLinearGradient1293)"></path><path d="M699.1999999999999 250L449.19999999999993 0L321.69999999999993 0L571.6999999999999 250z" fill="url(#SvgjsLinearGradient1293)"></path><path d="M1287.2339511161172 250L1440 97.23395111611705L1440 250z" fill="url(#SvgjsLinearGradient1292)"></path><path d="M0 250L152.76604888388295 250L 0 97.23395111611705z" fill="url(#SvgjsLinearGradient1293)"></path></g><defs><mask id="SvgjsMask1291"><rect width="1440" height="250" fill="#ffffff"></rect></mask><linearGradient x1="0%" y1="100%" x2="100%" y2="0%" id="SvgjsLinearGradient1292"><stop stop-color="rgba(49, 211, 92, 0.63)" offset="0"></stop><stop stop-opacity="0" stop-color="rgba(49, 211, 92, 0.63)" offset="0.66"></stop></linearGradient><linearGradient x1="100%" y1="100%" x2="0%" y2="0%" id="SvgjsLinearGradient1293"><stop stop-color="rgba(49, 211, 92, 0.63)" offset="0"></stop><stop stop-opacity="0" stop-color="rgba(49, 211, 92, 0.63)" offset="0.66"></stop></linearGradient></defs></svg>