<svg xmlns="http://www.w3.org/2000/svg" version="1.1" xmlns:xlink="http://www.w3.org/1999/xlink" xmlns:svgjs="http://svgjs.com/svgjs" width="1440" height="560" preserveAspectRatio="none" viewBox="0 0 1440 560"><g mask="url(&quot;#SvgjsMask1206&quot;)" fill="none"><rect width="1440" height="560" x="0" y="0" fill="url(#SvgjsLinearGradient1207)"></rect><path d="M1440 0L827.62 0L1440 116.16z" fill="rgba(255, 255, 255, .1)"></path><path d="M827.62 0L1440 116.16L1440 344.48L702.58 0z" fill="rgba(255, 255, 255, .075)"></path><path d="M702.58 0L1440 344.48L1440 443.58000000000004L612.48 0z" fill="rgba(255, 255, 255, .05)"></path><path d="M612.48 0L1440 443.58000000000004L1440 482.03000000000003L301.63 0z" fill="rgba(255, 255, 255, .025)"></path><path d="M0 560L271.78 560L0 460.99z" fill="rgba(0, 0, 0, .1)"></path><path d="M0 460.99L271.78 560L770.93 560L0 330.03z" fill="rgba(0, 0, 0, .075)"></path><path d="M0 330.03L770.93 560L1138.98 560L0 125.66999999999996z" fill="rgba(0, 0, 0, .05)"></path><path d="M0 125.66999999999996L1138.98 560L1209.28 560L0 86.32999999999996z" fill="rgba(0, 0, 0, .025)"></path></g><defs><mask id="SvgjsMask1206"><rect width="1440" height="560" fill="#ffffff"></rect></mask><linearGradient x1="15.28%" y1="-39.29%" x2="84.72%" y2="139.29%" gradientUnits="userSpaceOnUse" id="SvgjsLinearGradient1207"><stop stop-color="rgba(255, 255, 255, 1)" offset="0"></stop><stop stop-color="rgba(49, 211, 92, 1)" offset="1"></stop></linearGradient></defs></svg>