<svg id="Layer_1" data-name="Layer 1" xmlns="http://www.w3.org/2000/svg" viewBox="0 0 767 740.61"><defs><style>.cls-1{fill:#a67c52;}.cls-1,.cls-2{stroke:#000;stroke-miterlimit:10;}.cls-2{fill:#8cc63f;}</style></defs><path class="cls-1" d="M289.78,701.62c33.56-13.16-75.1,13.58,24.37,77.7s-77.5-15.29-95.08-30.57l-6-7.65s-2,60.29,66.32,79.82,90.28,183,35.55,200.41S269,1050.2,269,1067.61s25.57-49.68,92.68-48,0-242.29,0-242.29S256.23,714.78,289.78,701.62Z" transform="translate(-8.5 -330.39)"/><path class="cls-1" d="M505,820.92c68.31-19.53,66.31-79.82,66.31-79.82l-6,7.65c-17.58,15.28-194.56,94.68-95.08,30.57s-9.19-90.86,24.37-77.7-71.91,75.72-71.91,75.72-67.12,244,0,242.29,92.68,65.38,92.68,48,8.79-28.87-45.94-46.28S436.66,840.46,505,820.92Z" transform="translate(-8.5 -330.39)"/><path class="cls-2" d="M390,583.75c-18.87,13.61-30.93,34.37-30.93,57.64,0,21.56,10.37,41,26.92,54.54a72.06,72.06,0,0,1-5.14-27.64c0-14.08,3.5-26.66,9-34.9,5.48,8.24,9,20.82,9,34.9a71.93,71.93,0,0,1-5.31,28.07c16.85-13.58,27.43-33.18,27.43-55C420.94,618.12,408.88,597.36,390,583.75Z" transform="translate(-8.5 -330.39)"/><path class="cls-2" d="M390.4,703.75c-17.22,12.25-28.23,30.94-28.23,51.88,0,19.41,9.47,36.89,24.56,49.09a64.23,64.23,0,0,1-4.68-24.87c0-12.68,3.2-24,8.19-31.42,5,7.42,8.19,18.74,8.19,31.42a64,64,0,0,1-4.84,25.26c15.37-12.23,25-29.87,25-49.48C418.62,734.69,407.62,716,390.4,703.75Z" transform="translate(-8.5 -330.39)"/><path class="cls-2" d="M391.17,331C374,343.25,363,361.94,363,382.88c0,19.41,9.46,36.89,24.56,49.1a64.32,64.32,0,0,1-4.68-24.88c0-12.68,3.19-24,8.19-31.42,5,7.42,8.19,18.74,8.19,31.42a63.93,63.93,0,0,1-4.85,25.26c15.38-12.22,25-29.86,25-49.48C419.39,361.94,408.39,343.25,391.17,331Z" transform="translate(-8.5 -330.39)"/><path class="cls-2" d="M345.42,343.38c-19.46-8.55-41.67-8.69-60.53,1.55-17.49,9.5-28.6,26.05-32.2,44.77a67.57,67.57,0,0,1,20.11-16.13c11.42-6.2,23.18-9,32.3-8.45-4.23,7.85-12.86,16.08-24.28,22.29a69.44,69.44,0,0,1-25.12,8.26c18.53,7,39.14,6.53,56.81-3.07C331.37,382.35,342.82,363.92,345.42,343.38Z" transform="translate(-8.5 -330.39)"/><path class="cls-2" d="M391.41,448.75a84.69,84.69,0,0,0-4,127.12,91.74,91.74,0,0,1-5.11-31.31c0-16,3.48-30.22,8.94-39.55,5.45,9.33,8.93,23.58,8.93,39.55,0,12-2,23.08-5.29,31.8a84.69,84.69,0,0,0-3.48-127.61Z" transform="translate(-8.5 -330.39)"/><path class="cls-2" d="M334.1,382a84.69,84.69,0,0,0-4,127.13c-3.2-8.64-5.1-19.51-5.1-31.32,0-16,3.48-30.22,8.93-39.55,5.45,9.33,8.94,23.58,8.94,39.55,0,12-2,23.08-5.29,31.8A84.69,84.69,0,0,0,334.1,382Z" transform="translate(-8.5 -330.39)"/><path class="cls-2" d="M334.1,512.5a84.68,84.68,0,0,0-4,127.12c-3.2-8.64-5.1-19.5-5.1-31.31,0-16,3.48-30.22,8.93-39.56,5.45,9.34,8.94,23.59,8.94,39.56,0,12-2,23.08-5.29,31.8A84.69,84.69,0,0,0,334.1,512.5Z" transform="translate(-8.5 -330.39)"/><path class="cls-2" d="M298.69,412.13a89.61,89.61,0,0,0-68.18,28.22c-17,18.07-24.66,41.06-23.17,63.16,3.64-8.47,9.79-17.75,18-26.48,11.1-11.8,23.58-20.07,34.11-23.42-2.46,10.46-9.8,23.27-20.9,35.07-8.37,8.9-17.52,15.78-26,20.07A89.65,89.65,0,0,0,276,480.5C294.37,461,301.86,435.78,298.69,412.13Z" transform="translate(-8.5 -330.39)"/><path class="cls-2" d="M118.55,459.24a86.72,86.72,0,0,0-51.74,51.43,83.15,83.15,0,0,0,3.69,66.94c0-9.18,2-20,6.1-31.15,5.56-15,13.81-27.31,22.19-34.32,1.88,10.57.2,25.13-5.36,40.15-4.19,11.33-9.91,21.09-16.06,28.22a86.77,86.77,0,0,0,47.41-49.73A83,83,0,0,0,118.55,459.24Z" transform="translate(-8.5 -330.39)"/><path class="cls-2" d="M190.54,473.37a87.46,87.46,0,0,0-56.22,46.81,83.07,83.07,0,0,0-2.42,67c.83-9.14,3.8-19.78,8.91-30.5,6.91-14.5,16.24-26,25.23-32.29.91,10.69-2.09,25-9,39.54-5.21,10.92-11.79,20.16-18.56,26.73a87.48,87.48,0,0,0,51.75-45.48A82.94,82.94,0,0,0,190.54,473.37Z" transform="translate(-8.5 -330.39)"/><path class="cls-2" d="M36.87,553.06a84.68,84.68,0,0,0,1.81,127.17,91.76,91.76,0,0,1-6.53-31.07c-.73-15.95,2.1-30.33,7.12-39.89,5.87,9.09,10,23.18,10.73,39.13.55,12-.93,23.15-3.83,32A84.1,84.1,0,0,0,70.61,617,84.58,84.58,0,0,0,36.87,553.06Z" transform="translate(-8.5 -330.39)"/><path class="cls-2" d="M69.73,663.53C58,682.86,55.12,706.41,64.18,728c8.4,20,25.34,34.31,45.59,41a75.39,75.39,0,0,1-15.4-23.8c-5.49-13.06-7.22-26-5.47-35.55,8.16,5.68,16.23,16.1,21.71,29.16,4.13,9.84,6.13,19.6,6.12,27.91,10-18.59,11.9-40.53,3.42-60.74C111.09,684.38,92.1,669.42,69.73,663.53Z" transform="translate(-8.5 -330.39)"/><path class="cls-2" d="M300.6,478.87c-22.33,6.06-41.21,21.15-50.1,42.79-8.24,20.06-6.25,41.74,3.58,60.14A74,74,0,0,1,260,554.3c5.38-13.1,13.36-23.57,21.48-29.32,1.82,9.58.2,22.5-5.19,35.6a75.43,75.43,0,0,1-15.54,24.24c20.48-6.74,37.57-21.26,45.9-41.53C315.53,521.65,312.52,498.12,300.6,478.87Z" transform="translate(-8.5 -330.39)"/><path class="cls-2" d="M134.86,720.13c-2.07,18.87,4.36,38.75,19.31,53.82a71,71,0,0,0,50.47,21,77,77,0,0,1-20.7-15.17c-9.05-9.12-15.13-19.13-17.28-27.39,8.43,2.42,18.51,8.7,27.57,17.83a73.79,73.79,0,0,1,15,21A66.4,66.4,0,0,0,189.61,741,70.93,70.93,0,0,0,134.86,720.13Z" transform="translate(-8.5 -330.39)"/><path class="cls-2" d="M108.65,574.9a66.83,66.83,0,0,0,3.83,100.74,72.62,72.62,0,0,1-5.79-24.5c-.88-12.63,1.11-24.08,4.93-31.74,4.86,7.1,8.42,18.18,9.3,30.81a72,72,0,0,1-2.46,25.42A66.31,66.31,0,0,0,136.77,625,67,67,0,0,0,108.65,574.9Z" transform="translate(-8.5 -330.39)"/><path class="cls-2" d="M230.84,514.61a68.53,68.53,0,0,0-40.81,41,65.65,65.65,0,0,0,3.52,53.07A72.27,72.27,0,0,1,198.14,584c4.31-12,10.78-21.72,17.4-27.32,1.59,8.37.37,19.92-3.93,31.87A73.61,73.61,0,0,1,199.05,611a68.44,68.44,0,0,0,37.37-39.66A65.63,65.63,0,0,0,230.84,514.61Z" transform="translate(-8.5 -330.39)"/><path class="cls-2" d="M291.1,574.69a49.64,49.64,0,0,0-28.38,29.66,47.78,47.78,0,0,0,2.18,37.73,53.54,53.54,0,0,1,3.29-17.65c3-8.55,7.54-15.58,12.15-19.64,1.06,5.94.16,14.17-2.87,22.72a54.27,54.27,0,0,1-8.78,16.12,49.75,49.75,0,0,0,26-28.65A47.57,47.57,0,0,0,291.1,574.69Z" transform="translate(-8.5 -330.39)"/><path class="cls-2" d="M169.31,583.59C157.21,596.08,150,614.62,151,635c.92,18.87,8.72,35.54,20.43,46.9a80.13,80.13,0,0,1-4.63-24c-.6-12.33,1.21-23.44,4.54-30.82,4,7.05,6.93,17.94,7.53,30.27A80,80,0,0,1,176.48,682c10.75-12.4,17-29.88,16.1-48.95C191.58,612.71,182.59,594.91,169.31,583.59Z" transform="translate(-8.5 -330.39)"/><path class="cls-2" d="M242.22,593.58c-12.49,6.87-21.62,18.77-23.85,33.26a44.86,44.86,0,0,0,10.72,36.27,47.43,47.43,0,0,1-.39-17.65c1.35-8.77,4.63-16.31,8.66-21,2.46,5.6,3.33,13.73,2,22.5a47.58,47.58,0,0,1-5.84,17A45.83,45.83,0,0,0,255,632.13C257.26,617.64,252.1,603.67,242.22,593.58Z" transform="translate(-8.5 -330.39)"/><path class="cls-2" d="M305.94,617.32c-9.89,5.87-16.36,15.07-16.66,25.57-.27,9.72,4.81,18.62,13.15,25a29.09,29.09,0,0,1-2.28-12.54c.18-6.35,2.14-12,5.06-15.62,2.72,3.79,4.36,9.51,4.17,15.87a28.85,28.85,0,0,1-3.09,12.58c8.84-5.89,14.54-14.58,14.82-24.41C321.41,633.24,315.47,623.71,305.94,617.32Z" transform="translate(-8.5 -330.39)"/><path class="cls-2" d="M243.13,663.25c-7.64,8.46-11,19.1-8.07,29.21,2.72,9.37,10.31,16.4,20.22,20.06a29.55,29.55,0,0,1-6-11.31c-1.77-6.12-1.62-12.05.05-16.37,3.75,2.84,7.07,7.83,8.85,13.95a28.76,28.76,0,0,1,.9,12.9c6.64-8.17,9.42-18.11,6.67-27.57C262.79,674,254.19,666.62,243.13,663.25Z" transform="translate(-8.5 -330.39)"/><path class="cls-2" d="M271,646c-7.64,8.46-11,19.1-8.06,29.21,2.72,9.37,10.3,16.4,20.21,20.06a29.69,29.69,0,0,1-6-11.31c-1.77-6.12-1.62-12.05.05-16.37,3.76,2.84,7.08,7.83,8.85,13.95a28.91,28.91,0,0,1,.91,12.9c6.63-8.17,9.41-18.11,6.66-27.57C290.67,656.76,282.08,649.37,271,646Z" transform="translate(-8.5 -330.39)"/><path class="cls-2" d="M222.41,710.25c-2.87,10.88-.89,21.85,6.44,29.58,6.8,7.17,16.85,10.12,27.4,9a30.78,30.78,0,0,1-10.66-7.45c-4.44-4.68-7.08-10-7.6-14.63,4.67.89,10,3.89,14.41,8.57a29.72,29.72,0,0,1,6.83,11.12c2.11-10.19-.06-20.28-6.93-27.52C245,711.24,233.85,708.41,222.41,710.25Z" transform="translate(-8.5 -330.39)"/><path class="cls-2" d="M175.16,700.5c-2.86,10.88-.89,21.85,6.44,29.58,6.8,7.17,16.85,10.12,27.4,9a31,31,0,0,1-10.66-7.45c-4.44-4.68-7.07-10-7.59-14.63,4.67.89,10,3.89,14.4,8.57A29.46,29.46,0,0,1,212,736.74c2.11-10.19-.06-20.28-6.93-27.52C197.72,701.49,186.6,698.66,175.16,700.5Z" transform="translate(-8.5 -330.39)"/><path class="cls-2" d="M127.92,673.5c-2.87,10.88-.89,21.85,6.44,29.58,6.8,7.17,16.85,10.12,27.39,9a30.84,30.84,0,0,1-10.65-7.45c-4.44-4.68-7.08-10-7.6-14.63,4.67.89,10,3.89,14.4,8.57a29.62,29.62,0,0,1,6.84,11.12c2.1-10.19-.06-20.27-6.93-27.52C150.48,674.49,139.36,671.66,127.92,673.5Z" transform="translate(-8.5 -330.39)"/><path class="cls-2" d="M209.79,650.31c-9.86,5.92-16.29,15.15-16.55,25.64-.23,9.73,4.89,18.61,13.26,24.92a29.15,29.15,0,0,1-2.34-12.53c.15-6.35,2.09-12,5-15.64,2.73,3.78,4.39,9.5,4.24,15.85a29.11,29.11,0,0,1-3,12.6c8.82-5.93,14.48-14.65,14.72-24.48C225.33,666.18,219.35,656.67,209.79,650.31Z" transform="translate(-8.5 -330.39)"/><path class="cls-2" d="M325.19,649.09a65.93,65.93,0,0,0-14.69,55.17,67.48,67.48,0,0,0,30,44.53A72.74,72.74,0,0,1,332,725.07c-2.32-12.45-1.66-24.05,1.27-32.08,5.64,6.54,10.44,17.17,12.76,29.63a71.76,71.76,0,0,1,.47,25.53,66,66,0,0,0,12.4-52.34A67.58,67.58,0,0,0,325.19,649.09Z" transform="translate(-8.5 -330.39)"/><path class="cls-2" d="M240.57,394a90.4,90.4,0,0,0-72.18,16.45c-19.95,15-31.58,36.35-34,58.37,5.09-7.74,12.79-15.86,22.43-23.1,13-9.78,26.8-15.84,37.76-17.39-4.28,9.9-13.78,21.29-26.81,31.07-9.82,7.37-20.06,12.63-29.2,15.44a90.52,90.52,0,0,0,67.58-17.27C227.63,441.39,239.49,417.79,240.57,394Z" transform="translate(-8.5 -330.39)"/><path class="cls-2" d="M438.58,341.88c19.46-8.55,41.68-8.69,60.54,1.55,17.48,9.5,28.59,26.05,32.19,44.77a67.57,67.57,0,0,0-20.11-16.13c-11.42-6.2-23.18-9-32.3-8.45,4.23,7.85,12.86,16.08,24.28,22.29a69.42,69.42,0,0,0,25.13,8.26c-18.54,7-39.15,6.53-56.82-3.07C452.64,380.85,441.19,362.42,438.58,341.88Z" transform="translate(-8.5 -330.39)"/><path class="cls-2" d="M449.9,380.5a84.69,84.69,0,0,1,4,127.13A91.84,91.84,0,0,0,459,476.31c0-16-3.49-30.22-8.94-39.55-5.45,9.33-8.93,23.58-8.93,39.55,0,12,2,23.08,5.28,31.8A84.71,84.71,0,0,1,449.9,380.5Z" transform="translate(-8.5 -330.39)"/><path class="cls-2" d="M449.9,511a84.68,84.68,0,0,1,4,127.12A91.78,91.78,0,0,0,459,606.81c0-16-3.49-30.22-8.94-39.56-5.45,9.34-8.93,23.59-8.93,39.56,0,12,2,23.08,5.28,31.8A84.71,84.71,0,0,1,449.9,511Z" transform="translate(-8.5 -330.39)"/><path class="cls-2" d="M485.31,410.63a89.61,89.61,0,0,1,68.18,28.22c17,18.07,24.67,41.06,23.18,63.16-3.65-8.47-9.79-17.75-18-26.48-11.1-11.8-23.58-20.07-34.11-23.42,2.47,10.46,9.8,23.27,20.9,35.07,8.37,8.9,17.52,15.78,26,20.07A89.66,89.66,0,0,1,508,479C489.64,459.51,482.15,434.28,485.31,410.63Z" transform="translate(-8.5 -330.39)"/><path class="cls-2" d="M665.46,457.74a86.73,86.73,0,0,1,51.73,51.43,83.15,83.15,0,0,1-3.69,66.94c0-9.18-2-20-6.1-31.15-5.56-15-13.81-27.31-22.19-34.32-1.88,10.57-.2,25.13,5.36,40.15,4.2,11.33,9.91,21.09,16.06,28.22a86.72,86.72,0,0,1-47.4-49.73A82.93,82.93,0,0,1,665.46,457.74Z" transform="translate(-8.5 -330.39)"/><path class="cls-2" d="M593.46,471.87a87.46,87.46,0,0,1,56.22,46.81,83.07,83.07,0,0,1,2.42,67c-.83-9.14-3.8-19.78-8.91-30.5-6.91-14.5-16.24-26-25.23-32.29-.91,10.69,2.09,25,9,39.54,5.21,10.92,11.79,20.16,18.57,26.73a87.47,87.47,0,0,1-51.76-45.48A82.94,82.94,0,0,1,593.46,471.87Z" transform="translate(-8.5 -330.39)"/><path class="cls-2" d="M747.13,551.56a84.69,84.69,0,0,1-1.8,127.17,92,92,0,0,0,6.53-31.07c.72-15.95-2.11-30.33-7.13-39.89-5.87,9.09-10,23.18-10.73,39.13-.55,12,.93,23.15,3.84,32a84.72,84.72,0,0,1,9.29-127.34Z" transform="translate(-8.5 -330.39)"/><path class="cls-2" d="M714.27,662c11.78,19.33,14.61,42.88,5.55,64.45-8.4,20-25.33,34.31-45.59,41a75.58,75.58,0,0,0,15.41-23.8c5.48-13.06,7.21-26,5.46-35.55-8.16,5.68-16.22,16.1-21.71,29.16-4.13,9.84-6.13,19.6-6.12,27.91-10-18.59-11.9-40.53-3.42-60.74C672.91,682.88,691.9,667.92,714.27,662Z" transform="translate(-8.5 -330.39)"/><path class="cls-2" d="M483.41,477.37c22.32,6.06,41.2,21.15,50.09,42.79,8.24,20.06,6.25,41.74-3.58,60.14A73.83,73.83,0,0,0,524,552.8c-5.38-13.1-13.36-23.57-21.48-29.32-1.82,9.58-.19,22.5,5.19,35.6a75.28,75.28,0,0,0,15.55,24.24c-20.48-6.74-37.58-21.26-45.91-41.53C468.47,520.15,471.48,496.62,483.41,477.37Z" transform="translate(-8.5 -330.39)"/><path class="cls-2" d="M649.14,718.63c2.07,18.87-4.36,38.75-19.31,53.82a71,71,0,0,1-50.46,21,76.92,76.92,0,0,0,20.69-15.17c9.05-9.12,15.13-19.13,17.28-27.39-8.43,2.42-18.51,8.7-27.56,17.83a73.84,73.84,0,0,0-15,21,66.4,66.4,0,0,1,19.6-50.22A70.93,70.93,0,0,1,649.14,718.63Z" transform="translate(-8.5 -330.39)"/><path class="cls-2" d="M675.35,573.4a66.83,66.83,0,0,1-3.83,100.74,72.61,72.61,0,0,0,5.8-24.5c.88-12.63-1.11-24.08-4.94-31.74-4.86,7.1-8.41,18.18-9.29,30.81a71.75,71.75,0,0,0,2.45,25.42,66.85,66.85,0,0,1,9.81-100.73Z" transform="translate(-8.5 -330.39)"/><path class="cls-2" d="M553.16,513.11a68.53,68.53,0,0,1,40.81,41,65.65,65.65,0,0,1-3.51,53.07,72.54,72.54,0,0,0-4.6-24.73c-4.31-12-10.77-21.72-17.4-27.32-1.59,8.37-.37,19.92,3.93,31.87A73.61,73.61,0,0,0,585,609.49a68.47,68.47,0,0,1-37.37-39.66A65.63,65.63,0,0,1,553.16,513.11Z" transform="translate(-8.5 -330.39)"/><text x="-8.5" y="-330.39"/><path class="cls-2" d="M614.69,582.09c12.11,12.49,19.33,31,18.33,51.39-.92,18.87-8.72,35.54-20.43,46.9a80.13,80.13,0,0,0,4.63-24c.61-12.33-1.21-23.44-4.54-30.82-4,7.05-6.93,17.94-7.53,30.27a80,80,0,0,0,2.37,24.72c-10.75-12.4-17-29.88-16.1-48.95C592.42,611.21,601.42,593.41,614.69,582.09Z" transform="translate(-8.5 -330.39)"/><path class="cls-2" d="M541.78,592.08c12.49,6.87,21.63,18.77,23.86,33.26a44.86,44.86,0,0,1-10.73,36.27A47.43,47.43,0,0,0,555.3,644c-1.35-8.77-4.63-16.31-8.66-21-2.46,5.6-3.33,13.73-2,22.5a47.58,47.58,0,0,0,5.84,17A45.83,45.83,0,0,1,529,630.63C526.74,616.14,531.9,602.17,541.78,592.08Z" transform="translate(-8.5 -330.39)"/><path class="cls-2" d="M478.06,615.82c9.89,5.87,16.36,15.07,16.66,25.57.28,9.72-4.81,18.62-13.15,25a29.09,29.09,0,0,0,2.29-12.54c-.19-6.35-2.15-12-5.07-15.62-2.71,3.79-4.35,9.51-4.17,15.87a28.85,28.85,0,0,0,3.09,12.58c-8.84-5.89-14.54-14.58-14.82-24.41C462.59,631.74,468.53,622.21,478.06,615.82Z" transform="translate(-8.5 -330.39)"/><path class="cls-2" d="M540.88,661.75c7.63,8.46,11,19.1,8.06,29.21-2.72,9.37-10.31,16.4-20.22,20.06a29.42,29.42,0,0,0,6-11.31c1.78-6.12,1.63-12.05,0-16.37-3.75,2.84-7.07,7.83-8.85,13.95a28.9,28.9,0,0,0-.9,12.9c-6.64-8.17-9.41-18.11-6.67-27.57C521.22,672.51,529.81,665.12,540.88,661.75Z" transform="translate(-8.5 -330.39)"/><path class="cls-2" d="M513,644.5c7.64,8.46,11,19.1,8.06,29.21-2.71,9.37-10.3,16.4-20.21,20.06a29.69,29.69,0,0,0,6-11.31c1.77-6.12,1.62-12.05-.05-16.37-3.75,2.84-7.07,7.83-8.85,13.95a28.76,28.76,0,0,0-.9,12.9c-6.64-8.17-9.42-18.11-6.67-27.57C493.33,655.26,501.93,647.87,513,644.5Z" transform="translate(-8.5 -330.39)"/><path class="cls-2" d="M561.59,708.75c2.87,10.88.89,21.85-6.44,29.58-6.8,7.17-16.85,10.12-27.39,9a30.84,30.84,0,0,0,10.65-7.45c4.44-4.68,7.08-10,7.6-14.63-4.67.89-10,3.89-14.4,8.57A29.62,29.62,0,0,0,524.77,745c-2.1-10.19.06-20.28,6.93-27.52C539,709.74,550.15,706.91,561.59,708.75Z" transform="translate(-8.5 -330.39)"/><path class="cls-2" d="M608.84,699c2.86,10.88.89,21.85-6.44,29.58-6.8,7.17-16.85,10.12-27.4,9a31,31,0,0,0,10.66-7.45c4.44-4.68,7.08-10,7.6-14.63-4.68.89-10,3.89-14.41,8.57A29.59,29.59,0,0,0,572,735.24c-2.11-10.19.06-20.27,6.93-27.52C586.28,700,597.4,697.16,608.84,699Z" transform="translate(-8.5 -330.39)"/><path class="cls-2" d="M656.09,672c2.86,10.88.89,21.85-6.45,29.58-6.79,7.17-16.84,10.12-27.39,9a30.84,30.84,0,0,0,10.65-7.45c4.44-4.68,7.08-10,7.6-14.63-4.67.89-10,3.89-14.4,8.57a29.46,29.46,0,0,0-6.83,11.12c-2.11-10.19.05-20.27,6.92-27.52C633.53,673,644.64,670.16,656.09,672Z" transform="translate(-8.5 -330.39)"/><path class="cls-2" d="M574.21,648.81c9.86,5.92,16.29,15.15,16.55,25.64.23,9.73-4.89,18.61-13.26,24.92a29,29,0,0,0,2.34-12.53c-.15-6.35-2.09-12-5-15.64-2.73,3.78-4.39,9.5-4.24,15.85a29.11,29.11,0,0,0,3,12.6c-8.82-5.93-14.48-14.65-14.71-24.48C558.67,664.68,564.65,655.17,574.21,648.81Z" transform="translate(-8.5 -330.39)"/><path class="cls-2" d="M458.81,647.59a65.93,65.93,0,0,1,14.69,55.17,67.48,67.48,0,0,1-30,44.53A72.74,72.74,0,0,0,452,723.57c2.32-12.45,1.66-24.05-1.27-32.08-5.64,6.54-10.44,17.17-12.76,29.63a71.76,71.76,0,0,0-.47,25.53,66,66,0,0,1-12.4-52.34A67.58,67.58,0,0,1,458.81,647.59Z" transform="translate(-8.5 -330.39)"/><path class="cls-2" d="M543.44,392.47a90.38,90.38,0,0,1,72.17,16.45c19.95,15,31.58,36.35,34,58.37-5.09-7.74-12.79-15.86-22.43-23.1-13-9.78-26.79-15.84-37.76-17.39,4.29,9.9,13.78,21.29,26.81,31.07,9.82,7.37,20.06,12.63,29.2,15.44A90.49,90.49,0,0,1,577.89,456C556.37,439.89,544.51,416.29,543.44,392.47Z" transform="translate(-8.5 -330.39)"/></svg>