<svg id="Layer_1" data-name="Layer 1" xmlns="http://www.w3.org/2000/svg" viewBox="0 0 1911.5 345.79"><defs><style>.cls-1{fill:#a67c52;}.cls-1,.cls-2{stroke:#000;stroke-miterlimit:10;}.cls-2{fill:#8cc63f;}.cls-3{font-size:297.41px;font-family:MyriadPro-Regular, Myriad Pro;}.cls-4{letter-spacing:-0.03em;}.cls-5{letter-spacing:0em;}.cls-6{letter-spacing:0.02em;}.cls-10,.cls-7,.cls-8,.cls-9{fill:#00a99d;}.cls-7{letter-spacing:0em;}.cls-8{letter-spacing:-0.01em;}.cls-9{letter-spacing:-0.01em;}</style></defs><path class="cls-1" d="M107.24,909.33c11.74-5-26.28,5.11,8.52,29.21S88.65,932.79,82.5,927l-2.1-2.87s-.7,22.67,23.2,30S135.19,1023,116,1029.52,100,1040.37,100,1046.91s9-18.67,32.43-18,0-91.08,0-91.08S95.5,914.28,107.24,909.33Z" transform="translate(-8.5 -747.5)"/><path class="cls-1" d="M182.53,954.18c23.9-7.34,23.2-30,23.2-30l-2.1,2.87c-6.15,5.75-68.07,35.6-33.26,11.5s-3.22-34.16,8.52-29.21-25.16,28.47-25.16,28.47-23.48,91.72,0,91.08,32.43,24.58,32.43,18,3.08-10.85-16.07-17.39S158.63,961.52,182.53,954.18Z" transform="translate(-8.5 -747.5)"/><path class="cls-2" d="M142.3,865a27.07,27.07,0,0,0-1.4,42.17,29,29,0,0,1-1.8-10.39c0-5.3,1.23-10,3.15-13.12,1.91,3.1,3.14,7.82,3.14,13.12a28.83,28.83,0,0,1-1.86,10.55A27.06,27.06,0,0,0,142.3,865Z" transform="translate(-8.5 -747.5)"/><path class="cls-2" d="M142.44,910.13a24.17,24.17,0,0,0-1.28,38,25.66,25.66,0,0,1-1.64-9.35c0-4.77,1.12-9,2.87-11.81a23,23,0,0,1,2.86,11.81,25.58,25.58,0,0,1-1.69,9.49,24.17,24.17,0,0,0-1.12-38.1Z" transform="translate(-8.5 -747.5)"/><path class="cls-2" d="M142.71,770a24.17,24.17,0,0,0-1.28,38,25.66,25.66,0,0,1-1.64-9.35,22.93,22.93,0,0,1,2.87-11.81c1.75,2.79,2.86,7,2.86,11.81a25.58,25.58,0,0,1-1.69,9.49,24.17,24.17,0,0,0-1.12-38.1Z" transform="translate(-8.5 -747.5)"/><path class="cls-2" d="M126.7,774.65a22.49,22.49,0,0,0-21.17.59,24,24,0,0,0-11.27,16.83,24.06,24.06,0,0,1,7-6.07c4-2.33,8.11-3.4,11.3-3.17a21.81,21.81,0,0,1-8.5,8.38,23.22,23.22,0,0,1-8.79,3.1,22.3,22.3,0,0,0,19.88-1.15C121.79,789.31,125.79,782.37,126.7,774.65Z" transform="translate(-8.5 -747.5)"/><path class="cls-2" d="M142.8,814.27a33.41,33.41,0,0,0-1.4,47.79,36.89,36.89,0,0,1-1.79-11.78c0-6,1.22-11.36,3.13-14.87,1.9,3.51,3.12,8.87,3.12,14.87a36.6,36.6,0,0,1-1.85,12,33.41,33.41,0,0,0-1.21-48Z" transform="translate(-8.5 -747.5)"/><path class="cls-2" d="M122.74,789.17A33.42,33.42,0,0,0,121.35,837a36.78,36.78,0,0,1-1.79-11.77c0-6,1.22-11.36,3.12-14.87,1.91,3.51,3.13,8.87,3.13,14.87a36.64,36.64,0,0,1-1.85,12,33.44,33.44,0,0,0-1.22-48Z" transform="translate(-8.5 -747.5)"/><path class="cls-2" d="M122.74,838.23A33.42,33.42,0,0,0,121.35,886a36.83,36.83,0,0,1-1.79-11.77c0-6,1.22-11.36,3.12-14.87,1.91,3.51,3.13,8.87,3.13,14.87a36.54,36.54,0,0,1-1.85,12,33.43,33.43,0,0,0-1.22-48Z" transform="translate(-8.5 -747.5)"/><path class="cls-2" d="M110.35,800.5A30.26,30.26,0,0,0,86.5,811.11a33,33,0,0,0-8.11,23.74,36,36,0,0,1,6.3-10c3.89-4.44,8.25-7.55,11.94-8.81-.87,3.94-3.43,8.75-7.32,13.19a34.23,34.23,0,0,1-9.1,7.54,30.42,30.42,0,0,0,22.22-10.62A33,33,0,0,0,110.35,800.5Z" transform="translate(-8.5 -747.5)"/><path class="cls-2" d="M47.33,818.21a31.5,31.5,0,0,0-18.1,19.33,33.38,33.38,0,0,0,1.29,25.17A36.82,36.82,0,0,1,32.65,851c2-5.65,4.83-10.27,7.77-12.9.65,4,.07,9.44-1.88,15.09a35.94,35.94,0,0,1-5.62,10.61,31.73,31.73,0,0,0,16.59-18.7A33.24,33.24,0,0,0,47.33,818.21Z" transform="translate(-8.5 -747.5)"/><path class="cls-2" d="M72.52,823.52a31.23,31.23,0,0,0-19.67,17.6A33.34,33.34,0,0,0,52,866.3a36.57,36.57,0,0,1,3.12-11.46c2.42-5.45,5.68-9.79,8.83-12.14.31,4-.74,9.41-3.15,14.86a35.62,35.62,0,0,1-6.5,10.05,31.38,31.38,0,0,0,18.11-17.1A33.29,33.29,0,0,0,72.52,823.52Z" transform="translate(-8.5 -747.5)"/><path class="cls-2" d="M18.75,853.48a33.43,33.43,0,0,0,.63,47.81,37,37,0,0,1-2.28-11.68c-.26-6,.73-11.4,2.49-15,2.06,3.42,3.5,8.72,3.76,14.71a36.68,36.68,0,0,1-1.35,12,32.93,32.93,0,0,0,8.56-23.83A32.57,32.57,0,0,0,18.75,853.48Z" transform="translate(-8.5 -747.5)"/><path class="cls-2" d="M30.25,895a28.23,28.23,0,0,0-1.94,24.23,26.46,26.46,0,0,0,16,15.41,28.77,28.77,0,0,1-5.39-8.95c-1.92-4.91-2.53-9.76-1.91-13.37,2.85,2.14,5.67,6.06,7.59,11a29.21,29.21,0,0,1,2.14,10.49A28.09,28.09,0,0,0,47.89,911,26.55,26.55,0,0,0,30.25,895Z" transform="translate(-8.5 -747.5)"/><path class="cls-2" d="M111,825.59A26.56,26.56,0,0,0,93.5,841.68a28.06,28.06,0,0,0,1.25,22.6A29.59,29.59,0,0,1,96.81,854c1.89-4.93,4.68-8.87,7.52-11,.64,3.6.07,8.46-1.82,13.39a28.47,28.47,0,0,1-5.43,9.11,26.55,26.55,0,0,0,16.06-15.61A28.25,28.25,0,0,0,111,825.59Z" transform="translate(-8.5 -747.5)"/><path class="cls-2" d="M53,916.29a26,26,0,0,0,6.76,20.23,24,24,0,0,0,17.66,7.89,26.85,26.85,0,0,1-7.24-5.7,25,25,0,0,1-6-10.3c3,.91,6.48,3.27,9.65,6.7a28,28,0,0,1,5.24,7.9,26,26,0,0,0-6.86-18.88A23.85,23.85,0,0,0,53,916.29Z" transform="translate(-8.5 -747.5)"/><path class="cls-2" d="M43.87,861.69a26.35,26.35,0,0,0,1.34,37.87,28.92,28.92,0,0,1-2-9.21,25.58,25.58,0,0,1,1.73-11.93A25.64,25.64,0,0,1,48.16,890a29.09,29.09,0,0,1-.86,9.56,26,26,0,0,0,6.4-19A25.66,25.66,0,0,0,43.87,861.69Z" transform="translate(-8.5 -747.5)"/><path class="cls-2" d="M86.62,839a24.91,24.91,0,0,0-14.28,15.42,26.36,26.36,0,0,0,1.23,20,28.8,28.8,0,0,1,1.61-9.3,24.9,24.9,0,0,1,6.08-10.27,25.71,25.71,0,0,1-1.37,12,28.31,28.31,0,0,1-4.4,8.44,25.08,25.08,0,0,0,13.08-14.91A26.28,26.28,0,0,0,86.62,839Z" transform="translate(-8.5 -747.5)"/><path class="cls-2" d="M107.7,861.61a18.15,18.15,0,0,0-9.93,11.15A19.23,19.23,0,0,0,98.53,887a21.52,21.52,0,0,1,1.15-6.64,18.3,18.3,0,0,1,4.25-7.38,18.94,18.94,0,0,1-1,8.54,20.93,20.93,0,0,1-3.07,6.06,18.28,18.28,0,0,0,9.1-10.77A19.08,19.08,0,0,0,107.7,861.61Z" transform="translate(-8.5 -747.5)"/><path class="cls-2" d="M65.09,865c-4.24,4.69-6.76,11.66-6.42,19.31a27.35,27.35,0,0,0,7.15,17.64,32.4,32.4,0,0,1-1.62-9,28.27,28.27,0,0,1,1.59-11.58,28.09,28.09,0,0,1,2.64,11.38A32.29,32.29,0,0,1,67.6,902a27.44,27.44,0,0,0,5.63-18.4C72.88,875.91,69.73,869.21,65.09,865Z" transform="translate(-8.5 -747.5)"/><path class="cls-2" d="M90.6,868.71a17.32,17.32,0,0,0-8.35,12.51A17.74,17.74,0,0,0,86,894.85a19.1,19.1,0,0,1-.13-6.63,16.77,16.77,0,0,1,3-7.89,17,17,0,0,1,.69,8.46,19,19,0,0,1-2,6.4,17.27,17.27,0,0,0,7.53-12A17.79,17.79,0,0,0,90.6,868.71Z" transform="translate(-8.5 -747.5)"/><path class="cls-2" d="M112.89,877.64a11.31,11.31,0,0,0-1.23,19,11.86,11.86,0,0,1-.8-4.72,10.48,10.48,0,0,1,1.78-5.87,10.57,10.57,0,0,1,1.46,6,11.49,11.49,0,0,1-1.09,4.73,11.74,11.74,0,0,0,5.19-9.18A11.93,11.93,0,0,0,112.89,877.64Z" transform="translate(-8.5 -747.5)"/><path class="cls-2" d="M90.91,894.9a12.19,12.19,0,0,0-2.82,11,11.43,11.43,0,0,0,7.08,7.55,11.34,11.34,0,0,1-2.11-4.26,10.65,10.65,0,0,1,0-6.15,10.21,10.21,0,0,1,3.1,5.24,11.75,11.75,0,0,1,.32,4.86,12,12,0,0,0,2.33-10.37A11.59,11.59,0,0,0,90.91,894.9Z" transform="translate(-8.5 -747.5)"/><path class="cls-2" d="M100.67,888.42a12.16,12.16,0,0,0-2.82,11,11.38,11.38,0,0,0,7.07,7.54,11.44,11.44,0,0,1-2.11-4.25,10.6,10.6,0,0,1,0-6.16,10.38,10.38,0,0,1,3.1,5.25,11.69,11.69,0,0,1,.31,4.85,12,12,0,0,0,2.33-10.37A11.59,11.59,0,0,0,100.67,888.42Z" transform="translate(-8.5 -747.5)"/><path class="cls-2" d="M83.67,912.57c-1,4.09-.32,8.22,2.25,11.12a10.85,10.85,0,0,0,9.58,3.4,10.82,10.82,0,0,1-3.72-2.8,10.3,10.3,0,0,1-2.66-5.49,9.75,9.75,0,0,1,5,3.22,11.23,11.23,0,0,1,2.39,4.18,12,12,0,0,0-2.43-10.35A11.09,11.09,0,0,0,83.67,912.57Z" transform="translate(-8.5 -747.5)"/><path class="cls-2" d="M67.14,908.91c-1,4.09-.32,8.21,2.25,11.12a10.91,10.91,0,0,0,9.58,3.4,11,11,0,0,1-3.72-2.8,10.33,10.33,0,0,1-2.66-5.5,9.75,9.75,0,0,1,5,3.22A11.39,11.39,0,0,1,80,922.53a11.94,11.94,0,0,0-2.43-10.34A11.06,11.06,0,0,0,67.14,908.91Z" transform="translate(-8.5 -747.5)"/><path class="cls-2" d="M50.61,898.76c-1,4.09-.32,8.21,2.25,11.12a10.91,10.91,0,0,0,9.58,3.4,11,11,0,0,1-3.72-2.8,10.33,10.33,0,0,1-2.66-5.5,9.75,9.75,0,0,1,5,3.22,11.39,11.39,0,0,1,2.39,4.18A11.94,11.94,0,0,0,61.06,902,11.06,11.06,0,0,0,50.61,898.76Z" transform="translate(-8.5 -747.5)"/><path class="cls-2" d="M79.25,890a11.31,11.31,0,0,0-1.15,19,11.66,11.66,0,0,1-.82-4.71A10.51,10.51,0,0,1,79,898.46a10.43,10.43,0,0,1,1.48,6,11.49,11.49,0,0,1-1.06,4.73A11.7,11.7,0,0,0,84.6,900,11.92,11.92,0,0,0,79.25,890Z" transform="translate(-8.5 -747.5)"/><path class="cls-2" d="M119.63,889.58a26.11,26.11,0,0,0-5.14,20.74A25.45,25.45,0,0,0,125,927.06a28.65,28.65,0,0,1-3-8.92,25.79,25.79,0,0,1,.45-12.06,25.34,25.34,0,0,1,4.46,11.14,28.92,28.92,0,0,1,.17,9.6,26.21,26.21,0,0,0,4.33-19.67A25.33,25.33,0,0,0,119.63,889.58Z" transform="translate(-8.5 -747.5)"/><path class="cls-2" d="M90,793.67a29.92,29.92,0,0,0-25.25,6.19A32.49,32.49,0,0,0,52.86,821.8a35.06,35.06,0,0,1,7.85-8.68c4.56-3.68,9.37-6,13.21-6.54-1.5,3.72-4.82,8-9.38,11.68a33.53,33.53,0,0,1-10.22,5.8A30.06,30.06,0,0,0,78,817.57,32.54,32.54,0,0,0,90,793.67Z" transform="translate(-8.5 -747.5)"/><path class="cls-2" d="M159.3,774.09a22.51,22.51,0,0,1,21.18.58,24.07,24.07,0,0,1,11.26,16.83,24.19,24.19,0,0,0-7-6.06c-4-2.33-8.1-3.4-11.3-3.18a21.81,21.81,0,0,0,8.5,8.38,23.08,23.08,0,0,0,8.79,3.11,22.33,22.33,0,0,1-19.88-1.16C164.22,788.74,160.21,781.81,159.3,774.09Z" transform="translate(-8.5 -747.5)"/><path class="cls-2" d="M163.26,788.61a33.43,33.43,0,0,1,1.4,47.79,36.84,36.84,0,0,0,1.78-11.77c0-6-1.21-11.36-3.12-14.87-1.91,3.51-3.13,8.86-3.13,14.87a36.58,36.58,0,0,0,1.85,12,33.43,33.43,0,0,1,1.22-48Z" transform="translate(-8.5 -747.5)"/><path class="cls-2" d="M163.26,837.67a33.43,33.43,0,0,1,1.4,47.79,36.91,36.91,0,0,0,1.78-11.78c0-6-1.21-11.35-3.12-14.86-1.91,3.51-3.13,8.86-3.13,14.86a36.6,36.6,0,0,0,1.85,12,33.43,33.43,0,0,1,1.22-48Z" transform="translate(-8.5 -747.5)"/><path class="cls-2" d="M175.65,799.94a30.28,30.28,0,0,1,23.85,10.6,33,33,0,0,1,8.11,23.75,36,36,0,0,0-6.3-10c-3.88-4.43-8.25-7.54-11.93-8.8.86,3.93,3.42,8.75,7.31,13.18a34.25,34.25,0,0,0,9.1,7.55,30.45,30.45,0,0,1-22.22-10.62A33,33,0,0,1,175.65,799.94Z" transform="translate(-8.5 -747.5)"/><path class="cls-2" d="M238.67,817.65A31.5,31.5,0,0,1,256.77,837a33.31,33.31,0,0,1-1.29,25.16,36.82,36.82,0,0,0-2.13-11.71c-1.95-5.65-4.83-10.26-7.76-12.9-.66,4-.07,9.45,1.87,15.1a35.75,35.75,0,0,0,5.62,10.6,31.68,31.68,0,0,1-16.59-18.69A33.28,33.28,0,0,1,238.67,817.65Z" transform="translate(-8.5 -747.5)"/><path class="cls-2" d="M213.48,823a31.21,31.21,0,0,1,19.67,17.6,33.29,33.29,0,0,1,.85,25.18,36.55,36.55,0,0,0-3.12-11.47c-2.41-5.45-5.68-9.78-8.82-12.14-.32,4,.73,9.42,3.15,14.87a35.53,35.53,0,0,0,6.49,10A31.41,31.41,0,0,1,213.59,850,33.29,33.29,0,0,1,213.48,823Z" transform="translate(-8.5 -747.5)"/><path class="cls-2" d="M267.25,852.92a33.42,33.42,0,0,1-.63,47.8A37,37,0,0,0,268.9,889c.26-6-.73-11.4-2.49-15-2.05,3.42-3.5,8.71-3.75,14.71a36.43,36.43,0,0,0,1.34,12A32.88,32.88,0,0,1,255.45,877,32.52,32.52,0,0,1,267.25,852.92Z" transform="translate(-8.5 -747.5)"/><path class="cls-2" d="M255.75,894.44a28.25,28.25,0,0,1,1.94,24.24,26.48,26.48,0,0,1-15.94,15.4,28.77,28.77,0,0,0,5.38-8.94c1.92-4.91,2.53-9.76,1.92-13.37-2.86,2.14-5.68,6.05-7.6,11a29.43,29.43,0,0,0-2.14,10.5,28.19,28.19,0,0,1-1.2-22.84A26.58,26.58,0,0,1,255.75,894.44Z" transform="translate(-8.5 -747.5)"/><path class="cls-2" d="M175,825a26.56,26.56,0,0,1,17.53,16.08,28.13,28.13,0,0,1-1.26,22.61,29.69,29.69,0,0,0-2.06-10.34c-1.89-4.92-4.68-8.86-7.52-11-.64,3.6-.07,8.46,1.82,13.38a28.65,28.65,0,0,0,5.44,9.12,26.54,26.54,0,0,1-16.06-15.62A28.23,28.23,0,0,1,175,825Z" transform="translate(-8.5 -747.5)"/><path class="cls-2" d="M233,915.72A26,26,0,0,1,226.21,936a24,24,0,0,1-17.66,7.89,27.1,27.1,0,0,0,7.24-5.71,24.89,24.89,0,0,0,6.05-10.29c-3,.91-6.48,3.27-9.64,6.7a27.73,27.73,0,0,0-5.25,7.9,26,26,0,0,1,6.86-18.89A23.93,23.93,0,0,1,233,915.72Z" transform="translate(-8.5 -747.5)"/><path class="cls-2" d="M242.14,861.13A26.38,26.38,0,0,1,240.8,899a29,29,0,0,0,2-9.21,25.66,25.66,0,0,0-1.72-11.94,25.52,25.52,0,0,0-3.26,11.59,29,29,0,0,0,.86,9.55,26,26,0,0,1-6.4-19A25.6,25.6,0,0,1,242.14,861.13Z" transform="translate(-8.5 -747.5)"/><path class="cls-2" d="M199.39,838.46a24.92,24.92,0,0,1,14.27,15.43,26.29,26.29,0,0,1-1.23,20,29.13,29.13,0,0,0-1.6-9.3,25,25,0,0,0-6.09-10.27,25.7,25.7,0,0,0,1.37,12,28.06,28.06,0,0,0,4.4,8.44,25.06,25.06,0,0,1-13.08-14.91A26.29,26.29,0,0,1,199.39,838.46Z" transform="translate(-8.5 -747.5)"/><text x="-8.5" y="-747.5"/><path class="cls-2" d="M220.91,864.39a28.48,28.48,0,0,1-.73,37,32.33,32.33,0,0,0,1.62-9,28.35,28.35,0,0,0-1.59-11.59,28.15,28.15,0,0,0-2.63,11.38,32,32,0,0,0,.83,9.3A27.43,27.43,0,0,1,212.77,883C213.12,875.34,216.27,868.65,220.91,864.39Z" transform="translate(-8.5 -747.5)"/><path class="cls-2" d="M195.4,868.15a17.3,17.3,0,0,1,8.35,12.5A17.78,17.78,0,0,1,200,894.29a19.15,19.15,0,0,0,.13-6.64,16.58,16.58,0,0,0-3-7.88,17,17,0,0,0-.69,8.46,19,19,0,0,0,2,6.4,17.31,17.31,0,0,1-7.53-12A17.77,17.77,0,0,1,195.4,868.15Z" transform="translate(-8.5 -747.5)"/><path class="cls-2" d="M173.11,877.07a11.9,11.9,0,0,1,5.83,9.61,11.74,11.74,0,0,1-4.6,9.39,11.81,11.81,0,0,0,.8-4.71,10.56,10.56,0,0,0-1.77-5.87,10.43,10.43,0,0,0-1.46,6,11.45,11.45,0,0,0,1.08,4.73A11.71,11.71,0,0,1,167.8,887,12,12,0,0,1,173.11,877.07Z" transform="translate(-8.5 -747.5)"/><path class="cls-2" d="M195.09,894.34a12.18,12.18,0,0,1,2.82,11,11.4,11.4,0,0,1-7.07,7.54,11.43,11.43,0,0,0,2.1-4.25,10.57,10.57,0,0,0,0-6.15,10.17,10.17,0,0,0-3.1,5.24,11.53,11.53,0,0,0-.31,4.85,12,12,0,0,1-2.34-10.37A11.62,11.62,0,0,1,195.09,894.34Z" transform="translate(-8.5 -747.5)"/><path class="cls-2" d="M185.33,887.86a12.15,12.15,0,0,1,2.82,11,11.4,11.4,0,0,1-7.07,7.54,11.44,11.44,0,0,0,2.11-4.25,10.59,10.59,0,0,0,0-6.16,10.26,10.26,0,0,0-3.09,5.25,11.53,11.53,0,0,0-.32,4.85,12,12,0,0,1-2.33-10.37A11.55,11.55,0,0,1,185.33,887.86Z" transform="translate(-8.5 -747.5)"/><path class="cls-2" d="M202.34,912c1,4.09.31,8.21-2.26,11.12a10.91,10.91,0,0,1-9.58,3.4,10.85,10.85,0,0,0,3.73-2.8,10.38,10.38,0,0,0,2.65-5.5,9.82,9.82,0,0,0-5,3.22,11.39,11.39,0,0,0-2.39,4.18,12,12,0,0,1,2.43-10.34A11.07,11.07,0,0,1,202.34,912Z" transform="translate(-8.5 -747.5)"/><path class="cls-2" d="M218.87,908.34c1,4.1.31,8.22-2.26,11.12a10.89,10.89,0,0,1-9.58,3.41,10.89,10.89,0,0,0,3.73-2.81,10.35,10.35,0,0,0,2.65-5.49,9.75,9.75,0,0,0-5,3.22A11.23,11.23,0,0,0,206,922a12,12,0,0,1,2.43-10.35A11.1,11.1,0,0,1,218.87,908.34Z" transform="translate(-8.5 -747.5)"/><path class="cls-2" d="M235.4,898.19c1,4.1.31,8.22-2.26,11.12a10.89,10.89,0,0,1-9.58,3.41,10.89,10.89,0,0,0,3.73-2.81,10.35,10.35,0,0,0,2.65-5.49,9.75,9.75,0,0,0-5,3.22,11.23,11.23,0,0,0-2.39,4.18,12,12,0,0,1,2.43-10.35A11.1,11.1,0,0,1,235.4,898.19Z" transform="translate(-8.5 -747.5)"/><path class="cls-2" d="M206.75,889.48a11.88,11.88,0,0,1,5.79,9.63,11.76,11.76,0,0,1-4.64,9.37,11.63,11.63,0,0,0,.82-4.71,10.46,10.46,0,0,0-1.75-5.88,10.51,10.51,0,0,0-1.48,6,11.54,11.54,0,0,0,1.06,4.74,11.77,11.77,0,0,1-5.15-9.2A12,12,0,0,1,206.75,889.48Z" transform="translate(-8.5 -747.5)"/><path class="cls-2" d="M166.38,889a26.15,26.15,0,0,1,5.14,20.74A25.55,25.55,0,0,1,161,926.5a28.74,28.74,0,0,0,3-8.92,25.66,25.66,0,0,0-.45-12.06,25.34,25.34,0,0,0-4.46,11.14,29.19,29.19,0,0,0-.17,9.6,26.24,26.24,0,0,1-4.33-19.68A25.34,25.34,0,0,1,166.38,889Z" transform="translate(-8.5 -747.5)"/><path class="cls-2" d="M196,793.11a29.91,29.91,0,0,1,25.25,6.18,32.53,32.53,0,0,1,11.91,22,34.9,34.9,0,0,0-7.85-8.69c-4.56-3.67-9.37-5.95-13.21-6.53,1.5,3.71,4.82,8,9.38,11.68a33.74,33.74,0,0,0,10.22,5.8A30,30,0,0,1,208,817,32.53,32.53,0,0,1,196,793.11Z" transform="translate(-8.5 -747.5)"/><path d="M1703.86,750.5a1.5,1.5,0,0,0,0-3,1.5,1.5,0,0,0,0,3Z" transform="translate(-8.5 -747.5)"/><text class="cls-3" transform="translate(269.35 271.43) scale(0.89 1)"><tspan class="cls-4">V</tspan><tspan class="cls-5" x="156.14" y="0">e</tspan><tspan class="cls-6" x="305.14" y="0">r</tspan><tspan x="409.53" y="0">tical</tspan><tspan class="cls-7" x="924.34" y="0">G</tspan><tspan class="cls-8" x="1116.46" y="0">r</tspan><tspan class="cls-9" x="1210.74" y="0">o</tspan><tspan class="cls-10" x="1371.94" y="0">wth</tspan></text></svg>