<svg xmlns="http://www.w3.org/2000/svg" version="1.1" xmlns:xlink="http://www.w3.org/1999/xlink" xmlns:svgjs="http://svgjs.com/svgjs" width="1440" height="560" preserveAspectRatio="none" viewBox="0 0 1440 560"><g mask="url(&quot;#SvgjsMask1012&quot;)" fill="none"><rect width="1440" height="560" x="0" y="0" fill="rgba(255, 255, 255, 1)"></rect><path d="M696.14 598.5C815.89 580.07 881.36 293.44 1072.32 292.94 1263.28 292.44 1345.01 462.42 1448.5 466.54" stroke="rgba(181, 181, 181, 0.58)" stroke-width="2"></path><path d="M474.83 567.84C560.12 566.34 540.22 463.07 797.77 457.72 1055.32 452.37 1271.37 220.79 1443.65 216.92" stroke="rgba(181, 181, 181, 0.58)" stroke-width="2"></path><path d="M414 588.23C563.23 527.41 499.73 69.54 793.56 67.24 1087.39 64.94 1354.43 294.35 1552.68 296.84" stroke="rgba(181, 181, 181, 0.58)" stroke-width="2"></path><path d="M583.1 583.93C731.15 519.59 666.07 57.28 953.2 54.81 1240.32 52.34 1499.24 287.2 1693.39 290.01" stroke="rgba(181, 181, 181, 0.58)" stroke-width="2"></path><path d="M264.29 606.98C454.41 584.34 571.64 158.86 885.07 158.44 1198.51 158.02 1336.29 426.81 1505.86 432.84" stroke="rgba(181, 181, 181, 0.58)" stroke-width="2"></path></g><defs><mask id="SvgjsMask1012"><rect width="1440" height="560" fill="#ffffff"></rect></mask></defs></svg>