<svg xmlns="http://www.w3.org/2000/svg" version="1.1" xmlns:xlink="http://www.w3.org/1999/xlink" xmlns:svgjs="http://svgjs.com/svgjs" width="1440" height="560" preserveAspectRatio="none" viewBox="0 0 1440 560"><g mask="url(&quot;#SvgjsMask1168&quot;)" fill="none"><rect width="1440" height="560" x="0" y="0" fill="rgba(255, 255, 255, 1)"></rect><path d="M48.21 371.17L105.37 404.17L105.37 470.17L48.21 503.17L-8.95 470.17L-8.95 404.17zM162.53 173.17L219.69 206.17L219.69 272.17L162.53 305.17L105.37 272.17L105.37 206.17zM162.53 569.17L219.69 602.17L219.69 668.17L162.53 701.17L105.37 668.17L105.37 602.17zM276.85 -24.83L334.01 8.17L334.01 74.17L276.85 107.17L219.69 74.17L219.69 8.17zM334.01 74.17L391.17 107.17L391.17 173.17L334.01 206.17L276.85 173.17L276.85 107.17zM334.01 272.17L391.17 305.17L391.17 371.17L334.01 404.17L276.85 371.17L276.85 305.17zM391.17 371.17L448.33 404.17L448.33 470.17L391.17 503.17L334.01 470.17L334.01 404.17zM505.48 -24.83L562.64 8.17L562.64 74.17L505.48 107.17L448.33 74.17L448.33 8.17zM562.64 74.17L619.8 107.17L619.8 173.17L562.64 206.17L505.48 173.17L505.48 107.17zM505.48 173.17L562.64 206.17L562.64 272.17L505.48 305.17L448.33 272.17L448.33 206.17zM505.48 371.17L562.64 404.17L562.64 470.17L505.48 503.17L448.33 470.17L448.33 404.17zM562.64 470.17L619.8 503.17L619.8 569.17L562.64 602.17L505.48 569.17L505.48 503.17zM676.96 74.17L734.12 107.17L734.12 173.17L676.96 206.17L619.8 173.17L619.8 107.17zM619.8 173.17L676.96 206.17L676.96 272.17L619.8 305.17L562.64 272.17L562.64 206.17zM676.96 272.17L734.12 305.17L734.12 371.17L676.96 404.17L619.8 371.17L619.8 305.17zM734.12 173.17L791.28 206.17L791.28 272.17L734.12 305.17L676.96 272.17L676.96 206.17zM791.28 272.17L848.44 305.17L848.44 371.17L791.28 404.17L734.12 371.17L734.12 305.17zM734.12 569.17L791.28 602.17L791.28 668.17L734.12 701.17L676.96 668.17L676.96 602.17zM905.6 272.17L962.76 305.17L962.76 371.17L905.6 404.17L848.44 371.17L848.44 305.17zM905.6 470.17L962.76 503.17L962.76 569.17L905.6 602.17L848.44 569.17L848.44 503.17zM1019.92 74.17L1077.08 107.17L1077.08 173.17L1019.92 206.17L962.76 173.17L962.76 107.17zM962.76 173.17L1019.92 206.17L1019.92 272.17L962.76 305.17L905.6 272.17L905.6 206.17zM962.76 371.17L1019.92 404.17L1019.92 470.17L962.76 503.17L905.6 470.17L905.6 404.17zM1077.08 371.17L1134.24 404.17L1134.24 470.17L1077.08 503.17L1019.92 470.17L1019.92 404.17zM1191.4 -24.83L1248.56 8.17L1248.56 74.17L1191.4 107.17L1134.24 74.17L1134.24 8.17zM1248.56 74.17L1305.71 107.17L1305.71 173.17L1248.56 206.17L1191.4 173.17L1191.4 107.17zM1191.4 569.17L1248.56 602.17L1248.56 668.17L1191.4 701.17L1134.24 668.17L1134.24 602.17zM1305.71 -24.83L1362.87 8.17L1362.87 74.17L1305.71 107.17L1248.56 74.17L1248.56 8.17zM1305.71 173.17L1362.87 206.17L1362.87 272.17L1305.71 305.17L1248.56 272.17L1248.56 206.17zM1362.87 272.17L1420.03 305.17L1420.03 371.17L1362.87 404.17L1305.71 371.17L1305.71 305.17zM1305.71 569.17L1362.87 602.17L1362.87 668.17L1305.71 701.17L1248.56 668.17L1248.56 602.17zM1477.19 272.17L1534.35 305.17L1534.35 371.17L1477.19 404.17L1420.03 371.17L1420.03 305.17zM1420.03 371.17L1477.19 404.17L1477.19 470.17L1420.03 503.17L1362.87 470.17L1362.87 404.17zM1477.19 470.17L1534.35 503.17L1534.35 569.17L1477.19 602.17L1420.03 569.17L1420.03 503.17z" stroke="rgba(49, 211, 92, 0.6313725490196078)" stroke-width="2"></path><path d="M41.61 371.17 a6.6 6.6 0 1 0 13.2 0 a6.6 6.6 0 1 0 -13.2 0zM98.77 404.17 a6.6 6.6 0 1 0 13.2 0 a6.6 6.6 0 1 0 -13.2 0zM98.77 470.17 a6.6 6.6 0 1 0 13.2 0 a6.6 6.6 0 1 0 -13.2 0zM41.61 503.17 a6.6 6.6 0 1 0 13.2 0 a6.6 6.6 0 1 0 -13.2 0zM-15.55 470.17 a6.6 6.6 0 1 0 13.2 0 a6.6 6.6 0 1 0 -13.2 0zM-15.55 404.17 a6.6 6.6 0 1 0 13.2 0 a6.6 6.6 0 1 0 -13.2 0zM155.93 173.17 a6.6 6.6 0 1 0 13.2 0 a6.6 6.6 0 1 0 -13.2 0zM213.09 206.17 a6.6 6.6 0 1 0 13.2 0 a6.6 6.6 0 1 0 -13.2 0zM213.09 272.17 a6.6 6.6 0 1 0 13.2 0 a6.6 6.6 0 1 0 -13.2 0zM155.93 305.17 a6.6 6.6 0 1 0 13.2 0 a6.6 6.6 0 1 0 -13.2 0zM98.77 272.17 a6.6 6.6 0 1 0 13.2 0 a6.6 6.6 0 1 0 -13.2 0zM98.77 206.17 a6.6 6.6 0 1 0 13.2 0 a6.6 6.6 0 1 0 -13.2 0zM155.93 569.17 a6.6 6.6 0 1 0 13.2 0 a6.6 6.6 0 1 0 -13.2 0zM213.09 602.17 a6.6 6.6 0 1 0 13.2 0 a6.6 6.6 0 1 0 -13.2 0zM213.09 668.17 a6.6 6.6 0 1 0 13.2 0 a6.6 6.6 0 1 0 -13.2 0zM155.93 701.17 a6.6 6.6 0 1 0 13.2 0 a6.6 6.6 0 1 0 -13.2 0zM98.77 668.17 a6.6 6.6 0 1 0 13.2 0 a6.6 6.6 0 1 0 -13.2 0zM98.77 602.17 a6.6 6.6 0 1 0 13.2 0 a6.6 6.6 0 1 0 -13.2 0zM270.25 -24.83 a6.6 6.6 0 1 0 13.2 0 a6.6 6.6 0 1 0 -13.2 0zM327.41 8.17 a6.6 6.6 0 1 0 13.2 0 a6.6 6.6 0 1 0 -13.2 0zM327.41 74.17 a6.6 6.6 0 1 0 13.2 0 a6.6 6.6 0 1 0 -13.2 0zM270.25 107.17 a6.6 6.6 0 1 0 13.2 0 a6.6 6.6 0 1 0 -13.2 0zM213.09 74.17 a6.6 6.6 0 1 0 13.2 0 a6.6 6.6 0 1 0 -13.2 0zM213.09 8.17 a6.6 6.6 0 1 0 13.2 0 a6.6 6.6 0 1 0 -13.2 0zM384.57 107.17 a6.6 6.6 0 1 0 13.2 0 a6.6 6.6 0 1 0 -13.2 0zM384.57 173.17 a6.6 6.6 0 1 0 13.2 0 a6.6 6.6 0 1 0 -13.2 0zM327.41 206.17 a6.6 6.6 0 1 0 13.2 0 a6.6 6.6 0 1 0 -13.2 0zM270.25 173.17 a6.6 6.6 0 1 0 13.2 0 a6.6 6.6 0 1 0 -13.2 0zM327.41 272.17 a6.6 6.6 0 1 0 13.2 0 a6.6 6.6 0 1 0 -13.2 0zM384.57 305.17 a6.6 6.6 0 1 0 13.2 0 a6.6 6.6 0 1 0 -13.2 0zM384.57 371.17 a6.6 6.6 0 1 0 13.2 0 a6.6 6.6 0 1 0 -13.2 0zM327.41 404.17 a6.6 6.6 0 1 0 13.2 0 a6.6 6.6 0 1 0 -13.2 0zM270.25 371.17 a6.6 6.6 0 1 0 13.2 0 a6.6 6.6 0 1 0 -13.2 0zM270.25 305.17 a6.6 6.6 0 1 0 13.2 0 a6.6 6.6 0 1 0 -13.2 0zM441.73 404.17 a6.6 6.6 0 1 0 13.2 0 a6.6 6.6 0 1 0 -13.2 0zM441.73 470.17 a6.6 6.6 0 1 0 13.2 0 a6.6 6.6 0 1 0 -13.2 0zM384.57 503.17 a6.6 6.6 0 1 0 13.2 0 a6.6 6.6 0 1 0 -13.2 0zM327.41 470.17 a6.6 6.6 0 1 0 13.2 0 a6.6 6.6 0 1 0 -13.2 0zM498.88 -24.83 a6.6 6.6 0 1 0 13.2 0 a6.6 6.6 0 1 0 -13.2 0zM556.04 8.17 a6.6 6.6 0 1 0 13.2 0 a6.6 6.6 0 1 0 -13.2 0zM556.04 74.17 a6.6 6.6 0 1 0 13.2 0 a6.6 6.6 0 1 0 -13.2 0zM498.88 107.17 a6.6 6.6 0 1 0 13.2 0 a6.6 6.6 0 1 0 -13.2 0zM441.73 74.17 a6.6 6.6 0 1 0 13.2 0 a6.6 6.6 0 1 0 -13.2 0zM441.73 8.17 a6.6 6.6 0 1 0 13.2 0 a6.6 6.6 0 1 0 -13.2 0zM613.2 107.17 a6.6 6.6 0 1 0 13.2 0 a6.6 6.6 0 1 0 -13.2 0zM613.2 173.17 a6.6 6.6 0 1 0 13.2 0 a6.6 6.6 0 1 0 -13.2 0zM556.04 206.17 a6.6 6.6 0 1 0 13.2 0 a6.6 6.6 0 1 0 -13.2 0zM498.88 173.17 a6.6 6.6 0 1 0 13.2 0 a6.6 6.6 0 1 0 -13.2 0zM556.04 272.17 a6.6 6.6 0 1 0 13.2 0 a6.6 6.6 0 1 0 -13.2 0zM498.88 305.17 a6.6 6.6 0 1 0 13.2 0 a6.6 6.6 0 1 0 -13.2 0zM441.73 272.17 a6.6 6.6 0 1 0 13.2 0 a6.6 6.6 0 1 0 -13.2 0zM441.73 206.17 a6.6 6.6 0 1 0 13.2 0 a6.6 6.6 0 1 0 -13.2 0zM498.88 371.17 a6.6 6.6 0 1 0 13.2 0 a6.6 6.6 0 1 0 -13.2 0zM556.04 404.17 a6.6 6.6 0 1 0 13.2 0 a6.6 6.6 0 1 0 -13.2 0zM556.04 470.17 a6.6 6.6 0 1 0 13.2 0 a6.6 6.6 0 1 0 -13.2 0zM498.88 503.17 a6.6 6.6 0 1 0 13.2 0 a6.6 6.6 0 1 0 -13.2 0zM613.2 503.17 a6.6 6.6 0 1 0 13.2 0 a6.6 6.6 0 1 0 -13.2 0zM613.2 569.17 a6.6 6.6 0 1 0 13.2 0 a6.6 6.6 0 1 0 -13.2 0zM556.04 602.17 a6.6 6.6 0 1 0 13.2 0 a6.6 6.6 0 1 0 -13.2 0zM498.88 569.17 a6.6 6.6 0 1 0 13.2 0 a6.6 6.6 0 1 0 -13.2 0zM670.36 74.17 a6.6 6.6 0 1 0 13.2 0 a6.6 6.6 0 1 0 -13.2 0zM727.52 107.17 a6.6 6.6 0 1 0 13.2 0 a6.6 6.6 0 1 0 -13.2 0zM727.52 173.17 a6.6 6.6 0 1 0 13.2 0 a6.6 6.6 0 1 0 -13.2 0zM670.36 206.17 a6.6 6.6 0 1 0 13.2 0 a6.6 6.6 0 1 0 -13.2 0zM670.36 272.17 a6.6 6.6 0 1 0 13.2 0 a6.6 6.6 0 1 0 -13.2 0zM613.2 305.17 a6.6 6.6 0 1 0 13.2 0 a6.6 6.6 0 1 0 -13.2 0zM727.52 305.17 a6.6 6.6 0 1 0 13.2 0 a6.6 6.6 0 1 0 -13.2 0zM727.52 371.17 a6.6 6.6 0 1 0 13.2 0 a6.6 6.6 0 1 0 -13.2 0zM670.36 404.17 a6.6 6.6 0 1 0 13.2 0 a6.6 6.6 0 1 0 -13.2 0zM613.2 371.17 a6.6 6.6 0 1 0 13.2 0 a6.6 6.6 0 1 0 -13.2 0zM784.68 206.17 a6.6 6.6 0 1 0 13.2 0 a6.6 6.6 0 1 0 -13.2 0zM784.68 272.17 a6.6 6.6 0 1 0 13.2 0 a6.6 6.6 0 1 0 -13.2 0zM841.84 305.17 a6.6 6.6 0 1 0 13.2 0 a6.6 6.6 0 1 0 -13.2 0zM841.84 371.17 a6.6 6.6 0 1 0 13.2 0 a6.6 6.6 0 1 0 -13.2 0zM784.68 404.17 a6.6 6.6 0 1 0 13.2 0 a6.6 6.6 0 1 0 -13.2 0zM727.52 569.17 a6.6 6.6 0 1 0 13.2 0 a6.6 6.6 0 1 0 -13.2 0zM784.68 602.17 a6.6 6.6 0 1 0 13.2 0 a6.6 6.6 0 1 0 -13.2 0zM784.68 668.17 a6.6 6.6 0 1 0 13.2 0 a6.6 6.6 0 1 0 -13.2 0zM727.52 701.17 a6.6 6.6 0 1 0 13.2 0 a6.6 6.6 0 1 0 -13.2 0zM670.36 668.17 a6.6 6.6 0 1 0 13.2 0 a6.6 6.6 0 1 0 -13.2 0zM670.36 602.17 a6.6 6.6 0 1 0 13.2 0 a6.6 6.6 0 1 0 -13.2 0zM899 272.17 a6.6 6.6 0 1 0 13.2 0 a6.6 6.6 0 1 0 -13.2 0zM956.16 305.17 a6.6 6.6 0 1 0 13.2 0 a6.6 6.6 0 1 0 -13.2 0zM956.16 371.17 a6.6 6.6 0 1 0 13.2 0 a6.6 6.6 0 1 0 -13.2 0zM899 404.17 a6.6 6.6 0 1 0 13.2 0 a6.6 6.6 0 1 0 -13.2 0zM899 470.17 a6.6 6.6 0 1 0 13.2 0 a6.6 6.6 0 1 0 -13.2 0zM956.16 503.17 a6.6 6.6 0 1 0 13.2 0 a6.6 6.6 0 1 0 -13.2 0zM956.16 569.17 a6.6 6.6 0 1 0 13.2 0 a6.6 6.6 0 1 0 -13.2 0zM899 602.17 a6.6 6.6 0 1 0 13.2 0 a6.6 6.6 0 1 0 -13.2 0zM841.84 569.17 a6.6 6.6 0 1 0 13.2 0 a6.6 6.6 0 1 0 -13.2 0zM841.84 503.17 a6.6 6.6 0 1 0 13.2 0 a6.6 6.6 0 1 0 -13.2 0zM1013.32 74.17 a6.6 6.6 0 1 0 13.2 0 a6.6 6.6 0 1 0 -13.2 0zM1070.48 107.17 a6.6 6.6 0 1 0 13.2 0 a6.6 6.6 0 1 0 -13.2 0zM1070.48 173.17 a6.6 6.6 0 1 0 13.2 0 a6.6 6.6 0 1 0 -13.2 0zM1013.32 206.17 a6.6 6.6 0 1 0 13.2 0 a6.6 6.6 0 1 0 -13.2 0zM956.16 173.17 a6.6 6.6 0 1 0 13.2 0 a6.6 6.6 0 1 0 -13.2 0zM956.16 107.17 a6.6 6.6 0 1 0 13.2 0 a6.6 6.6 0 1 0 -13.2 0zM1013.32 272.17 a6.6 6.6 0 1 0 13.2 0 a6.6 6.6 0 1 0 -13.2 0zM899 206.17 a6.6 6.6 0 1 0 13.2 0 a6.6 6.6 0 1 0 -13.2 0zM1013.32 404.17 a6.6 6.6 0 1 0 13.2 0 a6.6 6.6 0 1 0 -13.2 0zM1013.32 470.17 a6.6 6.6 0 1 0 13.2 0 a6.6 6.6 0 1 0 -13.2 0zM1070.48 371.17 a6.6 6.6 0 1 0 13.2 0 a6.6 6.6 0 1 0 -13.2 0zM1127.64 404.17 a6.6 6.6 0 1 0 13.2 0 a6.6 6.6 0 1 0 -13.2 0zM1127.64 470.17 a6.6 6.6 0 1 0 13.2 0 a6.6 6.6 0 1 0 -13.2 0zM1070.48 503.17 a6.6 6.6 0 1 0 13.2 0 a6.6 6.6 0 1 0 -13.2 0zM1184.8 -24.83 a6.6 6.6 0 1 0 13.2 0 a6.6 6.6 0 1 0 -13.2 0zM1241.96 8.17 a6.6 6.6 0 1 0 13.2 0 a6.6 6.6 0 1 0 -13.2 0zM1241.96 74.17 a6.6 6.6 0 1 0 13.2 0 a6.6 6.6 0 1 0 -13.2 0zM1184.8 107.17 a6.6 6.6 0 1 0 13.2 0 a6.6 6.6 0 1 0 -13.2 0zM1127.64 74.17 a6.6 6.6 0 1 0 13.2 0 a6.6 6.6 0 1 0 -13.2 0zM1127.64 8.17 a6.6 6.6 0 1 0 13.2 0 a6.6 6.6 0 1 0 -13.2 0zM1299.11 107.17 a6.6 6.6 0 1 0 13.2 0 a6.6 6.6 0 1 0 -13.2 0zM1299.11 173.17 a6.6 6.6 0 1 0 13.2 0 a6.6 6.6 0 1 0 -13.2 0zM1241.96 206.17 a6.6 6.6 0 1 0 13.2 0 a6.6 6.6 0 1 0 -13.2 0zM1184.8 173.17 a6.6 6.6 0 1 0 13.2 0 a6.6 6.6 0 1 0 -13.2 0zM1184.8 569.17 a6.6 6.6 0 1 0 13.2 0 a6.6 6.6 0 1 0 -13.2 0zM1241.96 602.17 a6.6 6.6 0 1 0 13.2 0 a6.6 6.6 0 1 0 -13.2 0zM1241.96 668.17 a6.6 6.6 0 1 0 13.2 0 a6.6 6.6 0 1 0 -13.2 0zM1184.8 701.17 a6.6 6.6 0 1 0 13.2 0 a6.6 6.6 0 1 0 -13.2 0zM1127.64 668.17 a6.6 6.6 0 1 0 13.2 0 a6.6 6.6 0 1 0 -13.2 0zM1127.64 602.17 a6.6 6.6 0 1 0 13.2 0 a6.6 6.6 0 1 0 -13.2 0zM1299.11 -24.83 a6.6 6.6 0 1 0 13.2 0 a6.6 6.6 0 1 0 -13.2 0zM1356.27 8.17 a6.6 6.6 0 1 0 13.2 0 a6.6 6.6 0 1 0 -13.2 0zM1356.27 74.17 a6.6 6.6 0 1 0 13.2 0 a6.6 6.6 0 1 0 -13.2 0zM1356.27 206.17 a6.6 6.6 0 1 0 13.2 0 a6.6 6.6 0 1 0 -13.2 0zM1356.27 272.17 a6.6 6.6 0 1 0 13.2 0 a6.6 6.6 0 1 0 -13.2 0zM1299.11 305.17 a6.6 6.6 0 1 0 13.2 0 a6.6 6.6 0 1 0 -13.2 0zM1241.96 272.17 a6.6 6.6 0 1 0 13.2 0 a6.6 6.6 0 1 0 -13.2 0zM1413.43 305.17 a6.6 6.6 0 1 0 13.2 0 a6.6 6.6 0 1 0 -13.2 0zM1413.43 371.17 a6.6 6.6 0 1 0 13.2 0 a6.6 6.6 0 1 0 -13.2 0zM1356.27 404.17 a6.6 6.6 0 1 0 13.2 0 a6.6 6.6 0 1 0 -13.2 0zM1299.11 371.17 a6.6 6.6 0 1 0 13.2 0 a6.6 6.6 0 1 0 -13.2 0zM1299.11 569.17 a6.6 6.6 0 1 0 13.2 0 a6.6 6.6 0 1 0 -13.2 0zM1356.27 602.17 a6.6 6.6 0 1 0 13.2 0 a6.6 6.6 0 1 0 -13.2 0zM1356.27 668.17 a6.6 6.6 0 1 0 13.2 0 a6.6 6.6 0 1 0 -13.2 0zM1299.11 701.17 a6.6 6.6 0 1 0 13.2 0 a6.6 6.6 0 1 0 -13.2 0zM1470.59 272.17 a6.6 6.6 0 1 0 13.2 0 a6.6 6.6 0 1 0 -13.2 0zM1527.75 305.17 a6.6 6.6 0 1 0 13.2 0 a6.6 6.6 0 1 0 -13.2 0zM1527.75 371.17 a6.6 6.6 0 1 0 13.2 0 a6.6 6.6 0 1 0 -13.2 0zM1470.59 404.17 a6.6 6.6 0 1 0 13.2 0 a6.6 6.6 0 1 0 -13.2 0zM1470.59 470.17 a6.6 6.6 0 1 0 13.2 0 a6.6 6.6 0 1 0 -13.2 0zM1413.43 503.17 a6.6 6.6 0 1 0 13.2 0 a6.6 6.6 0 1 0 -13.2 0zM1356.27 470.17 a6.6 6.6 0 1 0 13.2 0 a6.6 6.6 0 1 0 -13.2 0zM1527.75 503.17 a6.6 6.6 0 1 0 13.2 0 a6.6 6.6 0 1 0 -13.2 0zM1527.75 569.17 a6.6 6.6 0 1 0 13.2 0 a6.6 6.6 0 1 0 -13.2 0zM1470.59 602.17 a6.6 6.6 0 1 0 13.2 0 a6.6 6.6 0 1 0 -13.2 0zM1413.43 569.17 a6.6 6.6 0 1 0 13.2 0 a6.6 6.6 0 1 0 -13.2 0z" fill="rgba(49, 211, 92, 0.6313725490196078)"></path><path d="M3.77 -49.5L61.8 -16L61.8 51L3.77 84.5L-54.26 51L-54.26 -16zM61.8 252L119.82 285.5L119.82 352.5L61.8 386L3.77 352.5L3.77 285.5zM3.77 352.5L61.8 386L61.8 453L3.77 486.5L-54.26 453L-54.26 386zM3.77 553.5L61.8 587L61.8 654L3.77 687.5L-54.26 654L-54.26 587zM119.82 -49.5L177.85 -16L177.85 51L119.82 84.5L61.8 51L61.8 -16zM177.85 51L235.87 84.5L235.87 151.5L177.85 185L119.82 151.5L119.82 84.5zM119.82 151.5L177.85 185L177.85 252L119.82 285.5L61.8 252L61.8 185zM119.82 352.5L177.85 386L177.85 453L119.82 486.5L61.8 453L61.8 386zM177.85 453L235.87 486.5L235.87 553.5L177.85 587L119.82 553.5L119.82 486.5zM293.9 51L351.92 84.5L351.92 151.5L293.9 185L235.87 151.5L235.87 84.5zM235.87 151.5L293.9 185L293.9 252L235.87 285.5L177.85 252L177.85 185zM351.92 -49.5L409.95 -16L409.95 51L351.92 84.5L293.9 51L293.9 -16zM409.95 51L467.97 84.5L467.97 151.5L409.95 185L351.92 151.5L351.92 84.5zM409.95 252L467.97 285.5L467.97 352.5L409.95 386L351.92 352.5L351.92 285.5zM351.92 352.5L409.95 386L409.95 453L351.92 486.5L293.9 453L293.9 386zM351.92 553.5L409.95 587L409.95 654L351.92 687.5L293.9 654L293.9 587zM526 51L584.02 84.5L584.02 151.5L526 185L467.97 151.5L467.97 84.5zM526 252L584.02 285.5L584.02 352.5L526 386L467.97 352.5L467.97 285.5zM467.97 352.5L526 386L526 453L467.97 486.5L409.95 453L409.95 386zM584.02 151.5L642.05 185L642.05 252L584.02 285.5L526 252L526 185zM584.02 352.5L642.05 386L642.05 453L584.02 486.5L526 453L526 386zM642.05 453L700.07 486.5L700.07 553.5L642.05 587L584.02 553.5L584.02 486.5zM584.02 553.5L642.05 587L642.05 654L584.02 687.5L526 654L526 587zM700.07 -49.5L758.1 -16L758.1 51L700.07 84.5L642.05 51L642.05 -16zM700.07 151.5L758.1 185L758.1 252L700.07 285.5L642.05 252L642.05 185zM700.07 352.5L758.1 386L758.1 453L700.07 486.5L642.05 453L642.05 386zM816.12 -49.5L874.15 -16L874.15 51L816.12 84.5L758.1 51L758.1 -16zM874.15 252L932.18 285.5L932.18 352.5L874.15 386L816.12 352.5L816.12 285.5zM874.15 453L932.18 486.5L932.18 553.5L874.15 587L816.12 553.5L816.12 486.5zM932.18 151.5L990.2 185L990.2 252L932.18 285.5L874.15 252L874.15 185zM990.2 252L1048.23 285.5L1048.23 352.5L990.2 386L932.18 352.5L932.18 285.5zM990.2 453L1048.23 486.5L1048.23 553.5L990.2 587L932.18 553.5L932.18 486.5zM932.18 553.5L990.2 587L990.2 654L932.18 687.5L874.15 654L874.15 587zM1048.23 352.5L1106.25 386L1106.25 453L1048.23 486.5L990.2 453L990.2 386zM1048.23 553.5L1106.25 587L1106.25 654L1048.23 687.5L990.2 654L990.2 587zM1222.3 51L1280.33 84.5L1280.33 151.5L1222.3 185L1164.28 151.5L1164.28 84.5zM1222.3 252L1280.33 285.5L1280.33 352.5L1222.3 386L1164.28 352.5L1164.28 285.5zM1164.28 553.5L1222.3 587L1222.3 654L1164.28 687.5L1106.25 654L1106.25 587zM1280.33 352.5L1338.35 386L1338.35 453L1280.33 486.5L1222.3 453L1222.3 386zM1454.4 51L1512.43 84.5L1512.43 151.5L1454.4 185L1396.38 151.5L1396.38 84.5zM1396.38 151.5L1454.4 185L1454.4 252L1396.38 285.5L1338.35 252L1338.35 185zM1396.38 352.5L1454.4 386L1454.4 453L1396.38 486.5L1338.35 453L1338.35 386zM1396.38 553.5L1454.4 587L1454.4 654L1396.38 687.5L1338.35 654L1338.35 587z" stroke="rgba(49, 211, 92, 0.6313725490196078)" stroke-width="2"></path></g><defs><mask id="SvgjsMask1168"><rect width="1440" height="560" fill="#ffffff"></rect></mask></defs></svg>