<svg xmlns="http://www.w3.org/2000/svg" version="1.1" xmlns:xlink="http://www.w3.org/1999/xlink" xmlns:svgjs="http://svgjs.com/svgjs" width="1440" height="560" preserveAspectRatio="none" viewBox="0 0 1440 560"><g mask="url(&quot;#SvgjsMask1311&quot;)" fill="none"><rect width="1440" height="560" x="0" y="0" fill="rgba(255, 255, 255, 1)"></rect><use xlink:href="#SvgjsG1329" transform="translate(0, 0)" fill="rgba(85, 190, 61, 0.5)"></use><use xlink:href="#SvgjsG1329" transform="translate(0, 480)" fill="rgba(85, 190, 61, 0.5)"></use><use xlink:href="#SvgjsG1329" transform="translate(480, 0)" fill="rgba(85, 190, 61, 0.5)"></use><use xlink:href="#SvgjsG1329" transform="translate(480, 480)" fill="rgba(85, 190, 61, 0.5)"></use><use xlink:href="#SvgjsG1329" transform="translate(960, 0)" fill="rgba(85, 190, 61, 0.5)"></use><use xlink:href="#SvgjsG1329" transform="translate(960, 480)" fill="rgba(85, 190, 61, 0.5)"></use></g><defs><mask id="SvgjsMask1311"><rect width="1440" height="560" fill="#ffffff"></rect></mask><g id="SvgjsG1322"><path d="M7.713 15.485C3.459 15.485 0 12.025 0 7.768 0 3.513 3.459 0.051 7.713 0.051S15.432 3.513 15.432 7.768c0 4.257-3.465 7.716-7.719 7.717z m0-1.91c3.201 0 5.81-2.604 5.81-5.809 0-3.199-2.61-5.807-5.81-5.807-3.202 0-5.804 2.609-5.804 5.807-0.001 3.206 2.602 5.809 5.804 5.809z"></path><path d="M7.753 8.787a0.574 0.574 0 0 1-0.554-0.042 0.578 0.578 0 0 1-0.259-0.399L6.931 3.862a0.58 0.58 0 0 1 1.162 0v3.478l2.975-1.4a0.578 0.578 0 0 1 0.773 0.275c0.138 0.292 0.011 0.637-0.276 0.774l-3.81 1.798z"></path></g><g id="SvgjsG1323"><path d="M8.312 8.242l0 0.521c0.492-0.069 0.443-0.509 0-0.52v-0.001z m-0.51-0.627V7.155c-0.365 0.064-0.358 0.454 0 0.46z"></path><path d="M8.055 5.946c-1.128 0-2.044 0.915-2.044 2.043 0 1.129 0.915 2.044 2.045 2.044 1.129 0 2.043-0.915 2.043-2.044 0-1.128-0.915-2.043-2.043-2.043l-0.001 0z m0.251 3.336v0.364h-0.507v-0.37c-0.29-0.043-0.822-0.323-0.855-0.924h0.534c0.034 0.154 0.078 0.34 0.321 0.409l-0.001-0.605c-0.334-0.048-0.814-0.194-0.814-0.73 0-0.602 0.666-0.789 0.813-0.789v-0.364h0.502v0.364c0.338 0.02 0.83 0.302 0.829 0.84h-0.528c-0.014-0.16-0.137-0.317-0.296-0.327v0.554c0.403 0.041 0.877 0.195 0.877 0.738 0 0.473-0.475 0.818-0.877 0.84h0.002z"></path><path d="M0 11.93h16V4H0v7.93z m1.508-1.508V5.508h12.984V10.422H1.508z"></path></g><g id="SvgjsG1314"><path d="M7.945 2.35L0 7.479h1.862V13.677H6.372V8.755h3.134V13.677h4.513V7.479H15.874L7.945 2.35z" fill-rule="evenodd"></path></g><g id="SvgjsG1319"><path d="M14.159 8.927V5.732c0-0.453 0.371-0.822 0.828-0.822a0.822 0.822 0 0 1 0.821 0.822V10.107c0 0.605-0.218 1.189-0.608 1.646L12.472 14.65c-0.271 0.255-0.337 0.481-0.337 0.823V16h-2.97l-0.003-1.255c0-0.478-0.039-1.117 0.559-1.743l3.462-3.476a0.654 0.654 0 0 1 0.456-0.184 0.657 0.657 0 0 1 0.657 0.655c0 0.156-0.055 0.308-0.156 0.427l-1.67 1.789c-0.108 0.127-0.291 0.366-0.382 0.659-0.049 0.152-0.063 0.301-0.066 0.47h0.537c0.002-0.121 0.011-0.218 0.04-0.308 0.053-0.169 0.157-0.321 0.237-0.419l1.694-1.86c0.213-0.215 0.33-0.493 0.33-0.786 0-0.439-0.264-0.843-0.7-1.042z m-12.51 0V5.732c0-0.453-0.371-0.822-0.827-0.822A0.822 0.822 0 0 0 0 5.732V10.107c0 0.605 0.218 1.189 0.608 1.646l2.729 2.897c0.27 0.255 0.337 0.481 0.337 0.822V16h2.969l0.003-1.255c0-0.478 0.039-1.117-0.559-1.743L2.626 9.526a0.654 0.654 0 0 0-0.457-0.184 0.657 0.657 0 0 0-0.5 1.083l1.669 1.788c0.108 0.127 0.291 0.366 0.382 0.659 0.049 0.152 0.063 0.301 0.066 0.471h-0.537c-0.002-0.121-0.011-0.219-0.04-0.309-0.053-0.169-0.157-0.321-0.236-0.418L1.278 10.755c-0.213-0.215-0.33-0.493-0.33-0.786 0-0.439 0.264-0.843 0.701-1.042z m6.568-7.512a0.705 0.705 0 0 0 0-1.41 0.705 0.705 0 0 0 0 1.41z m-3.825 0.004c-0.395 0-0.715-0.317-0.715-0.71 0-0.392 0.32-0.709 0.715-0.709s0.716 0.317 0.716 0.709c0 0.393-0.321 0.71-0.716 0.71z"></path><path d="M11.225 3.646a0.494 0.494 0 1 0 0.988 0 0.494 0.494 0 1 0-0.988 0"></path><path d="M12.435 4.384h-1.334c-0.006 0-0.446-0.04-0.446-0.04l-0.559-1.947c-0.225-0.784-0.883-0.76-0.882-0.76h-1.808s-0.657-0.024-0.882 0.76l-0.276 0.959-0.275-0.959c-0.226-0.784-0.882-0.76-0.881-0.76H3.693s-0.658-0.024-0.883 0.76l-0.563 1.962c-0.053 0.184 0.047 0.323 0.208 0.369 0.16 0.046 0.324-0.035 0.365-0.181l0.549-1.913 0.267 0L2.835 5.946h0.708v2.352c0 0.194 0.156 0.352 0.35 0.351 0.194 0 0.352-0.158 0.352-0.351v-2.352h0.297v2.352c0 0.194 0.156 0.352 0.35 0.351a0.352 0.352 0 0 0 0.352-0.351v-2.352h0.696l-0.793-3.312 0.266 0.001 0.543 1.892c0.009 0.032 0.023 0.062 0.042 0.087 0.053 0.08 0.146 0.125 0.249 0.122 0.103 0.003 0.195-0.041 0.249-0.12 0.022-0.028 0.037-0.061 0.046-0.098l0.54-1.884 0.246 0v5.595a0.415 0.415 0 0 0 0.415 0.414 0.413 0.413 0 0 0 0.413-0.414V5.046h0.306v3.183a0.413 0.413 0 0 0 0.413 0.414 0.415 0.415 0 0 0 0.417-0.414v-5.595l0.267 0 0.525 1.913c0.028 0.094 0.107 0.156 0.202 0.18 0.004 0.001 0.006 0.003 0.009 0.004 0.083 0.019 0.469 0.128 0.753 0.209v3.47a0.291 0.291 0 0 0 0.581 0V6.676h0.228v1.734c0 0.16 0.13 0.29 0.29 0.29s0.292-0.13 0.292-0.29v-3.242h0.223v1.098c0 0.12 0.098 0.218 0.217 0.218 0.119 0 0.214-0.097 0.214-0.218v-1.249c0-0.35-0.308-0.634-0.658-0.634z"></path></g><g id="SvgjsG1327"><path d="M13.113 6.956a0.719 0.719 0 1 0 1.437 0 0.719 0.719 0 1 0-1.437 0"></path><path d="M8.74 3.712a1.025 1.025 0 0 0 1.025-1.025A1.026 1.026 0 0 0 8.74 1.663a1.025 1.025 0 0 0 0 2.049z m-5.559 0.007c-0.575 0-1.04-0.462-1.04-1.032C2.143 2.117 2.606 1.655 3.182 1.655c0.574 0 1.04 0.462 1.04 1.032s-0.466 1.032-1.04 1.032z m11.692 4.31h-1.94c-0.009 0-0.648-0.058-0.648-0.058l-0.813-2.832C11.145 4 10.189 4.035 10.189 4.035H7.56s-0.954-0.035-1.281 1.104l-0.401 1.395-0.4-1.395c-0.328-1.139-1.282-1.105-1.282-1.104h-2.034s-0.955-0.035-1.282 1.104L0.061 7.993c-0.078 0.267 0.068 0.47 0.301 0.537 0.233 0.067 0.471-0.051 0.532-0.264l0.798-2.78 0.389-0.001-1.164 4.815h1.029v3.42a0.509 0.509 0 0 0 0.509 0.511 0.512 0.512 0 0 0 0.511-0.511V10.3h0.431v3.42a0.51 0.51 0 0 0 0.509 0.511 0.512 0.512 0 0 0 0.512-0.512V10.299h1.011l-1.152-4.815 0.387 0.001L5.453 8.237c0.013 0.047 0.034 0.089 0.061 0.128 0.077 0.116 0.211 0.182 0.363 0.176 0.15 0.005 0.284-0.059 0.361-0.175a0.373 0.373 0 0 0 0.067-0.141l0.785-2.74 0.358 0v8.136a0.603 0.603 0 0 0 0.604 0.601 0.601 0.601 0 0 0 0.6-0.601v-4.629h0.445v4.629a0.601 0.601 0 0 0 0.601 0.601c0.333 0 0.605-0.269 0.605-0.601v-8.136l0.389 0 0.764 2.781c0.04 0.137 0.155 0.228 0.292 0.262 0.006 0.002 0.009 0.006 0.015 0.005 0.12 0.028 0.681 0.186 1.094 0.304V13.883a0.423 0.423 0 0 0 0.845 0V11.362H14.032v2.521c0 0.233 0.189 0.423 0.422 0.423s0.424-0.189 0.424-0.423V9.17h0.326v1.598c0 0.174 0.142 0.316 0.314 0.316 0.174 0 0.311-0.142 0.311-0.316V8.951c0-0.509-0.447-0.921-0.956-0.922z"></path></g><g id="SvgjsG1326"><path d="M13.856 7.297c1.344 0 2.144 0.801 2.144 2.027v5.74c0 0.444-0.04 0.805-0.04 0.804H9.822V10.29h-0.25l-1.139 1.7c-0.186 0.253-0.562 0.376-0.863 0.375H4.896a0.804 0.804 0 0 1-0.805-0.804c0-0.443 0.36-0.793 0.805-0.793h2.432L9.016 8.216c0.405-0.617 1.155-0.911 1.832-0.911 0 1.795 0.448 2.554 1.256 2.554v2.983a0.64 0.64 0 0 0-0.387 0.588 0.632 0.632 0 0 0 0.634 0.635c0.353 0 0.636-0.291 0.636-0.644 0-0.264-0.16-0.49-0.387-0.588V9.85c0.808 0 1.256-0.759 1.256-2.554"></path><path d="M13.352 7.297c-0.014 1.84-0.332 2.082-1 2.082-0.667 0-0.986-0.242-1-2.082h2z m-1.012-4.144c1.014 0 1.836 0.822 1.836 1.837 0 1.013-0.822 1.836-1.837 1.835-1.014 0-1.837-0.822-1.837-1.836S11.325 3.152 12.339 3.152m-4.512 0.251c0.224 0 0.406-0.182 0.407-0.406s-0.182-0.406-0.407-0.407a0.406 0.406 0 0 0 0 0.814M4.922 1.163a0.579 0.579 0 0 0 0.579-0.579c0-0.32-0.259-0.58-0.579-0.58a0.58 0.58 0 0 0-0.58 0.58c0 0.32 0.259 0.579 0.58 0.579m-3.146 0.004c0.325 0 0.589-0.261 0.589-0.584 0-0.322-0.264-0.583-0.589-0.583C1.452 0 1.189 0.261 1.189 0.583c0 0.322 0.263 0.584 0.588 0.584"></path><path d="M7.276 6.914a0.24 0.24 0 0 0 0.241 0.238c0.131 0 0.237-0.107 0.236-0.238v-1.427h0.187v1.426c0 0.131 0.107 0.238 0.238 0.239s0.24-0.107 0.24-0.239V4.246h0.184v0.904a0.178 0.178 0 0 0 0.178 0.178 0.176 0.176 0 0 0 0.176-0.178v-1.027c0-0.288-0.253-0.522-0.54-0.522 0 0-1.103 0.001-1.108 0.002l-0.357-0.035-0.459-1.598c-0.185-0.645-0.725-0.624-0.724-0.625h-1.487s-0.54-0.021-0.725 0.625l-0.24 0.837-0.24-0.837c-0.185-0.645-0.725-0.624-0.725-0.624h-1.15s-0.54-0.021-0.725 0.624L0.013 3.584c-0.045 0.15 0.029 0.291 0.161 0.329 0.132 0.037 0.276-0.054 0.311-0.174l0.45-1.573h0.22l-0.658 2.723H1.078v1.934a0.288 0.288 0 0 0 0.288 0.289c0.16 0 0.29-0.129 0.29-0.289v-1.935h0.245v1.935a0.289 0.289 0 0 0 0.578 0v-1.935h0.572L2.398 2.166h0.22l0.45 1.573c0.03 0.104 0.126 0.189 0.24 0.179 0.113 0.01 0.229-0.075 0.258-0.179l0.45-1.573h0.203v4.601a0.341 0.341 0 0 0 0.342 0.339c0.187 0 0.34-0.152 0.34-0.339V4.149h0.251v2.618a0.341 0.341 0 0 0 0.682 0V2.166h0.22l0.418 1.52c0.026 0.092 0.121 0.18 0.222 0.211l0.584 0.163V6.914z"></path></g><g id="SvgjsG1328"><path d="M7.357 2.676c0.737 0.058 1.384-0.493 1.442-1.229 0.057-0.738-0.495-1.384-1.231-1.443A1.34 1.34 0 0 0 7.357 2.677m0.367 2.686c0.418 0.078 0.732 0.448 0.733 0.89a0.906 0.906 0 0 1-0.906 0.906H4.615a0.575 0.575 0 0 1-0.575-0.575c0-0.077 0.016-0.151 0.043-0.218L4.4 5.624l3.535-2.532h-1.684c-0.647-0.018-1.101 0.207-1.363 0.717-0.177 0.343-1.115 2.439-1.115 2.439a0.906 0.906 0 0 0 0.842 1.242h1.147l-0.338 2.224L3.644 14.857a0.867 0.867 0 0 0 0.55 1.094c0.453 0.151 0.944-0.097 1.094-0.551L7.334 9.598c0.399 0.649 1.194 1.811 1.329 2.031 0.031 0.365 0.317 3.582 0.317 3.582a0.867 0.867 0 0 0 0.939 0.786c0.476-0.041 0.828-0.464 0.786-0.939L10.368 11.271a0.854 0.854 0 0 0-0.126-0.378L8.771 8.508l0.234-2.992s0.348 1.184 0.375 1.27c0.075 0.244 0.244 0.42 0.416 0.56 0.101 0.08 1.818 1.25 1.818 1.249 0.096 0.044 0.174 0.083 0.277 0.09a0.604 0.604 0 0 0 0.65-0.554 0.608 0.608 0 0 0-0.236-0.53s-1.711-1.175-1.781-1.226c-0.057-0.043-0.102-0.118-0.113-0.157L9.733 3.779c-0.11-0.369-0.482-0.687-0.952-0.687h-0.202l-0.855 2.271z"></path><path d="M7.551 6.828a0.575 0.575 0 0 0 0.575-0.576c0-0.296-0.226-0.538-0.514-0.568l-0.42 1.147 0.359-0.003z"></path></g><g id="SvgjsG1325"><path d="M8 14.66l5.904-5.908c1.836-1.836 1.8-4.512 0.132-6.174A4.268 4.268 0 0 0 8 2.58a4.264 4.264 0 0 0-6.03-0.02C0.3 4.24 0.26 6.92 2.1 8.744L8 14.66z"></path></g><g id="SvgjsG1313"><path d="M15.796 7.558a0.668 0.668 0 0 0-0.057-0.164l-2.897-2.3H7.012c-0.135-0.008-0.208 0.055-0.272 0.13L4.792 7.176 0.531 7.884c-0.059 0.051-0.119 0.102-0.167 0.236l0.01 1.466c0.092 0.235 0.154 0.204 0.225 0.237h0.82c0-1.993 2.968-1.985 2.968 0h7.57c0-1.997 2.946-1.993 2.946 0h0.673c0.113-0.011 0.177-0.11 0.23-0.227l-0.011-2.038z m-6.258-0.095h-4.038c-0.154-0.061-0.175-0.152-0.111-0.265l1.451-1.432c0.033-0.028 0.059-0.066 0.116-0.058h2.582v1.755z m4.182 0h-3.702v-1.755h2.172c0.057-0.008 0.083 0.03 0.116 0.058l1.244 1.254c0.114 0.173 0.345 0.409 0.169 0.444z" fill-rule="evenodd"></path><path d="M2.897 8.621a1.205 1.205 0 1 0 0 2.41 1.205 1.205 0 0 0 0-2.41z m0 1.71a0.509 0.509 0 1 1 0-1.017 0.509 0.509 0 0 1 0 1.018zM13.431 8.62a1.205 1.205 0 1 0 0 2.41 1.205 1.205 0 0 0 0-2.41z m0 1.71a0.509 0.509 0 1 1 0-1.016 0.509 0.509 0 0 1 0 1.018z" fill-rule="evenodd"></path></g><g id="SvgjsG1315"><path d="M7.275 1.252h5.267l0.848 0.856c0.153 0.155 0.15 0.264 0 0.42l-1.034 1.034-0.606-0.606-0.606 0.606-0.597-0.597-0.582 0.58-0.606-0.606-0.792 0.792H7.275V1.251z m5.655 8.143l-0.986-2.545c-0.184-0.487-0.587-0.901-1.349-0.905h-5.178c-0.758 0.003-1.162 0.418-1.349 0.905l-0.985 2.545C2.691 9.445 1.998 9.905 2 10.776v3.24h0.961v1.033c-0.002 1.274 1.802 1.259 1.802 0v-1.035h6.486v1.034c0.004 1.26 1.808 1.275 1.81 0v-1.034h0.961V10.776c-0.003-0.871-0.696-1.331-1.09-1.381z m-9.04 2.665c-0.461 0.002-0.834-0.383-0.832-0.856-0.002-0.476 0.371-0.86 0.832-0.856 0.46-0.004 0.833 0.381 0.832 0.856 0.001 0.473-0.372 0.857-0.832 0.856z m4.12-2.689H4.108l0.743-2.004c0.09-0.284 0.229-0.488 0.559-0.493h5.201c0.324 0.005 0.464 0.208 0.558 0.493l0.744 2.004H8.01z m4.12 2.689c-0.464 0.002-0.837-0.383-0.84-0.856 0.003-0.476 0.376-0.86 0.84-0.856 0.456-0.004 0.829 0.381 0.832 0.856-0.003 0.473-0.376 0.857-0.832 0.856z"></path><path d="M5.433 0C4.069-0.003 2.964 1.113 2.961 2.488c0.003 1.378 1.108 2.494 2.472 2.496 1.361-0.002 2.466-1.118 2.464-2.496C7.899 1.113 6.794-0.003 5.433 0z m-1.082 3.142c-0.365-0.003-0.658-0.3-0.655-0.662-0.003-0.368 0.29-0.664 0.655-0.662 0.358-0.002 0.652 0.294 0.654 0.662-0.003 0.362-0.296 0.659-0.654 0.662z"></path></g><g id="SvgjsG1312"><path d="M2.457 6.907a1.47 1.47 0 0 0-0.149 0.652l0.053 3.502L1.156 13.662a0.786 0.786 0 0 0 0.572 1.156 0.782 0.782 0 0 0 0.805-0.398l1.33-2.848a0.811 0.811 0 0 0 0.071-0.32l-0.012-2.162 2.044 0.889 0.329 2.115a0.788 0.788 0 0 0 1.55-0.266L7.442 9.28a0.795 0.795 0 0 0-0.441-0.569L5.173 7.9l1.165-2.023 0.576 0.733a0.604 0.604 0 0 0 0.22 0.156l2.198 0.64a0.622 0.622 0 0 0 0.705-0.37 0.622 0.622 0 0 0-0.341-0.808l-0.03-0.011-1.91-0.562-1.44-1.724a1.433 1.433 0 0 0-2.266 0.218l-1.595 2.759z"></path><path d="M8.764 11.924l-0.142 1.048-3.779 0.92 0.035 0.65h9.223c0.325 0 0.59-0.267 0.591-0.59L14.681 1.52 13.419 1.227l-0.729 3.265-1.213 0.511L10.4 8.018l1.024 2.306-0.288 0.885-2.373 0.715zM6.196 3.33A1.179 1.179 0 1 0 6.192 0.974a1.179 1.179 0 0 0 0.004 2.356M3.852 3.515a0.338 0.338 0 0 0-0.124-0.459l-0.569-0.334a0.338 0.338 0 0 0-0.462 0.124L0.942 5.879a0.338 0.338 0 0 0 0.125 0.459l0.572 0.329c0.16 0.094 0.363 0.039 0.457-0.121l1.756-3.031z"></path></g><g id="SvgjsG1320"><path d="M0.267 14.413h15.466V16H0.267z m0.632-1.535h13.998v0.872H0.899z m1.139-7.74h2.352v7.056h-2.352z m4.693 0h2.352v7.056h-2.352z m4.513 0h2.352v7.056H11.244zM0 3.595L8 0l8 3.595-0.007 0.927L0 4.535z"></path></g><g id="SvgjsG1324"><path d="M8.541 10.856h1.001v1H8.541zM8.243 14.859H10.041v-2.002h-2.001v2.002h0.201z"></path><path d="M14.225 9.282V3.277l-2.788 1.716v2.573h-1.067V4.125h-1.293V1.132h-3.432v4.899h-1.716v-1.682L2.536 3.492 1.142 4.349v3.003H0.07v7.507h3.216V9.103a1.501 1.501 0 0 1 3.004 0v1.184l-1.131 2.874h0.702v1.698h0.429v-2.127h-0.501l0.844-2.146 2.408-0.982 2.409 0.982 0.845 2.146h-0.501v2.127h0.846l2.872-0.001V9.282h-1.287z"></path></g><g id="SvgjsG1321"><path d="M2.796 14.654h-1.184C0.792 14.653 0.001 14.052 0 13.006c0 0 0.001-7.471 0-7.494 0.001-0.926 0.773-1.629 1.612-1.63h1.184v10.772z m7.448-10.754V2.352c0.004-0.558-0.49-0.914-1.093-0.91 0 0-2.303-0.004-2.294 0-0.6-0.004-1.103 0.352-1.102 0.91v1.548H3.597v10.772h8.823V3.9h-2.176z m-0.81 0H6.547v-1.593h2.887v1.593z m3.779 10.754h1.184c0.814-0.002 1.605-0.602 1.603-1.648 0 0 0.003-7.471 0-7.494 0.003-0.926-0.77-1.63-1.602-1.631h-1.184v10.772z"></path></g><g id="SvgjsG1318"><path d="M8.312 4.802l0 0.521c0.492-0.069 0.443-0.509 0-0.52z m-0.51-0.627V3.715c-0.365 0.064-0.358 0.454 0 0.46z"></path><path d="M8.055 2.506c-1.128 0-2.044 0.915-2.044 2.043 0 1.129 0.915 2.044 2.045 2.044 1.129 0 2.043-0.915 2.043-2.044 0-1.128-0.915-2.043-2.043-2.043z m0.251 3.336v0.364h-0.507v-0.37c-0.29-0.043-0.822-0.323-0.855-0.924h0.534c0.034 0.154 0.078 0.34 0.321 0.409l-0.001-0.605c-0.334-0.048-0.814-0.194-0.814-0.73 0-0.602 0.666-0.789 0.813-0.789v-0.364h0.502v0.364c0.338 0.02 0.83 0.302 0.83 0.84h-0.528c-0.014-0.16-0.137-0.317-0.296-0.327v0.554c0.403 0.041 0.877 0.195 0.877 0.738 0 0.473-0.475 0.818-0.877 0.84z m1.733 5.54c-1.129 0-2.044 0.915-2.043 2.044s0.915 2.043 2.043 2.043 2.043-0.915 2.043-2.043c0-1.129-0.915-2.044-2.043-2.044zM10.955 13.739v0.499h-0.636v0.701h-0.542V14.238h-0.68v-0.49h0.688l-0.894-1.576h0.593l0.551 0.972 0.597-0.972h0.547L10.293 13.739h0.662z m-7.36-4.673c-1.129 0-2.044 0.915-2.043 2.044S2.467 13.154 3.595 13.154s2.044-0.915 2.044-2.044-0.915-2.044-2.044-2.044z m0.065 1.654v0.486h-0.367v1.165H2.773v-1.162h-0.31v-0.484h0.31v-0.436c0-0.168 0.163-0.68 0.777-0.68 0.627 0 0.762 0.494 0.762 0.908h-0.511c0-0.265-0.037-0.404-0.246-0.404-0.226 0-0.262 0.155-0.262 0.4v0.206h0.366z m1.173 0.482c-0.421 0.052-0.516 0.276-0.517 0.554v0.616h-0.516V10.72h0.516v0.258c0.112-0.129 0.241-0.267 0.517-0.267v0.491z"></path><path d="M0 0.56v7.93h9.395c0.178 0.948 1.009 1.666 2.009 1.666s1.83-0.718 2.008-1.666H16V0.56H0z m11.195 7.221h0.464v0.441h-0.378c0.047 0.403-0.185 0.572-0.198 0.707h1.264v0.441H10.456v-0.441c0.215-0.144 0.327-0.508 0.258-0.703h-0.396v-0.448h0.318c-0.086-0.203-0.086-0.27-0.086-0.448s0.147-0.758 0.912-0.754c0.705 0.004 0.91 0.584 0.91 1l-0.537 0c-0.036-0.251-0.135-0.458-0.368-0.458-0.357 0-0.358 0.224-0.357 0.301s0.013 0.262 0.086 0.364z m3.297-0.798h-1.386c-0.366-0.551-0.992-0.914-1.703-0.914S10.067 6.432 9.701 6.982H1.508V2.068h12.984V6.982z"></path></g><g id="SvgjsG1317"><path d="M11.221 11.657c-2.056 2.056-5.389 2.055-7.444 0-2.056-2.056-2.056-5.389 0-7.444 0.976-0.977 2.617-2.176 5.214-2.176 4.749 0 6.224-1.252 6.224-1.252 0 5.707-1.938 8.816-3.994 10.872z"></path><path d="M3.223 11.626L2.552 10.224l6.437-4.363z"></path><path d="M8.989 5.861l1.15 1.15-8.203 8.203-1.151-1.15z"></path></g><g id="SvgjsG1316"><path d="M7.996 16h-0.001c-2.137-0.001-4.145-0.834-5.655-2.345C0.829 12.142-0.002 10.132 0 7.995-0.002 5.861 0.828 3.853 2.338 2.342 3.848 0.832 5.855 0 7.99 0h0.01C10.136 0 12.146 0.832 13.656 2.342c1.51 1.51 2.342 3.518 2.344 5.653-0.002 2.139-0.835 4.148-2.346 5.66-1.512 1.511-3.521 2.344-5.658 2.345z m-0.006-14.161c-1.644 0-3.189 0.64-4.351 1.804-1.162 1.163-1.801 2.708-1.8 4.352-0.001 1.648 0.639 3.196 1.802 4.359 1.163 1.164 2.709 1.805 4.354 1.807 3.398-0.002 6.163-2.768 6.167-6.166-0.002-3.394-2.765-6.155-6.16-6.155h-0.01z"></path><path d="M8.692 7.143V5.35c0.511 0.037 0.91 0.544 0.957 1.062h1.697c0.002-1.741-1.581-2.657-2.672-2.724v-1.175H7.056v1.175c-0.476 0.004-2.622 0.611-2.62 2.558-0.003 1.733 1.545 2.206 2.62 2.358v1.959c-0.783-0.222-0.926-0.824-1.036-1.323h-1.723c0.11 1.949 1.823 2.856 2.759 2.995v1.202h1.636v-1.184c1.294-0.07 2.827-1.187 2.829-2.716-0.002-1.758-1.529-2.256-2.829-2.393zM7.064 6.855c-1.152-0.018-1.175-1.281 0-1.488v1.488z m1.645 3.717V8.883c1.427 0.039 1.586 1.462 0 1.689z"></path></g><g id="SvgjsG1329"><use xlink:href="#SvgjsG1312" transform="translate(0, 0) scale(2)" fill="rgba(85, 190, 61, 0.5)"></use><use xlink:href="#SvgjsG1313" transform="translate(0, 48) scale(2)" fill="rgba(85, 190, 61, 0.5)"></use><use xlink:href="#SvgjsG1314" transform="translate(0, 96) scale(2)" fill="rgba(85, 190, 61, 0.5)"></use><use xlink:href="#SvgjsG1315" transform="translate(0, 144) scale(2)" fill="rgba(85, 190, 61, 0.5)"></use><use xlink:href="#SvgjsG1316" transform="translate(0, 192) scale(2)" fill="rgba(85, 190, 61, 0.5)"></use><use xlink:href="#SvgjsG1315" transform="translate(0, 240) scale(2)" fill="rgba(85, 190, 61, 0.5)"></use><use xlink:href="#SvgjsG1313" transform="translate(0, 288) scale(2)" fill="rgba(85, 190, 61, 0.5)"></use><use xlink:href="#SvgjsG1315" transform="translate(0, 336) scale(2)" fill="rgba(85, 190, 61, 0.5)"></use><use xlink:href="#SvgjsG1317" transform="translate(0, 384) scale(2)" fill="rgba(85, 190, 61, 0.5)"></use><use xlink:href="#SvgjsG1318" transform="translate(0, 432) scale(2)" fill="rgba(85, 190, 61, 0.5)"></use><use xlink:href="#SvgjsG1319" transform="translate(48, 0) scale(2)" fill="rgba(85, 190, 61, 0.5)"></use><use xlink:href="#SvgjsG1320" transform="translate(48, 48) scale(2)" fill="rgba(85, 190, 61, 0.5)"></use><use xlink:href="#SvgjsG1321" transform="translate(48, 96) scale(2)" fill="rgba(85, 190, 61, 0.5)"></use><use xlink:href="#SvgjsG1322" transform="translate(48, 144) scale(2)" fill="rgba(85, 190, 61, 0.5)"></use><use xlink:href="#SvgjsG1322" transform="translate(48, 192) scale(2)" fill="rgba(85, 190, 61, 0.5)"></use><use xlink:href="#SvgjsG1318" transform="translate(48, 240) scale(2)" fill="rgba(85, 190, 61, 0.5)"></use><use xlink:href="#SvgjsG1316" transform="translate(48, 288) scale(2)" fill="rgba(85, 190, 61, 0.5)"></use><use xlink:href="#SvgjsG1319" transform="translate(48, 336) scale(2)" fill="rgba(85, 190, 61, 0.5)"></use><use xlink:href="#SvgjsG1317" transform="translate(48, 384) scale(2)" fill="rgba(85, 190, 61, 0.5)"></use><use xlink:href="#SvgjsG1323" transform="translate(48, 432) scale(2)" fill="rgba(85, 190, 61, 0.5)"></use><use xlink:href="#SvgjsG1324" transform="translate(96, 0) scale(2)" fill="rgba(85, 190, 61, 0.5)"></use><use xlink:href="#SvgjsG1324" transform="translate(96, 48) scale(2)" fill="rgba(85, 190, 61, 0.5)"></use><use xlink:href="#SvgjsG1316" transform="translate(96, 96) scale(2)" fill="rgba(85, 190, 61, 0.5)"></use><use xlink:href="#SvgjsG1322" transform="translate(96, 144) scale(2)" fill="rgba(85, 190, 61, 0.5)"></use><use xlink:href="#SvgjsG1316" transform="translate(96, 192) scale(2)" fill="rgba(85, 190, 61, 0.5)"></use><use xlink:href="#SvgjsG1325" transform="translate(96, 240) scale(2)" fill="rgba(85, 190, 61, 0.5)"></use><use xlink:href="#SvgjsG1326" transform="translate(96, 288) scale(2)" fill="rgba(85, 190, 61, 0.5)"></use><use xlink:href="#SvgjsG1313" transform="translate(96, 336) scale(2)" fill="rgba(85, 190, 61, 0.5)"></use><use xlink:href="#SvgjsG1319" transform="translate(96, 384) scale(2)" fill="rgba(85, 190, 61, 0.5)"></use><use xlink:href="#SvgjsG1314" transform="translate(96, 432) scale(2)" fill="rgba(85, 190, 61, 0.5)"></use><use xlink:href="#SvgjsG1327" transform="translate(144, 0) scale(2)" fill="rgba(85, 190, 61, 0.5)"></use><use xlink:href="#SvgjsG1317" transform="translate(144, 48) scale(2)" fill="rgba(85, 190, 61, 0.5)"></use><use xlink:href="#SvgjsG1312" transform="translate(144, 96) scale(2)" fill="rgba(85, 190, 61, 0.5)"></use><use xlink:href="#SvgjsG1312" transform="translate(144, 144) scale(2)" fill="rgba(85, 190, 61, 0.5)"></use><use xlink:href="#SvgjsG1316" transform="translate(144, 192) scale(2)" fill="rgba(85, 190, 61, 0.5)"></use><use xlink:href="#SvgjsG1317" transform="translate(144, 240) scale(2)" fill="rgba(85, 190, 61, 0.5)"></use><use xlink:href="#SvgjsG1314" transform="translate(144, 288) scale(2)" fill="rgba(85, 190, 61, 0.5)"></use><use xlink:href="#SvgjsG1325" transform="translate(144, 336) scale(2)" fill="rgba(85, 190, 61, 0.5)"></use><use xlink:href="#SvgjsG1322" transform="translate(144, 384) scale(2)" fill="rgba(85, 190, 61, 0.5)"></use><use xlink:href="#SvgjsG1322" transform="translate(144, 432) scale(2)" fill="rgba(85, 190, 61, 0.5)"></use><use xlink:href="#SvgjsG1325" transform="translate(192, 0) scale(2)" fill="rgba(85, 190, 61, 0.5)"></use><use xlink:href="#SvgjsG1314" transform="translate(192, 48) scale(2)" fill="rgba(85, 190, 61, 0.5)"></use><use xlink:href="#SvgjsG1315" transform="translate(192, 96) scale(2)" fill="rgba(85, 190, 61, 0.5)"></use><use xlink:href="#SvgjsG1328" transform="translate(192, 144) scale(2)" fill="rgba(85, 190, 61, 0.5)"></use><use xlink:href="#SvgjsG1318" transform="translate(192, 192) scale(2)" fill="rgba(85, 190, 61, 0.5)"></use><use xlink:href="#SvgjsG1323" transform="translate(192, 240) scale(2)" fill="rgba(85, 190, 61, 0.5)"></use><use xlink:href="#SvgjsG1317" transform="translate(192, 288) scale(2)" fill="rgba(85, 190, 61, 0.5)"></use><use xlink:href="#SvgjsG1325" transform="translate(192, 336) scale(2)" fill="rgba(85, 190, 61, 0.5)"></use><use xlink:href="#SvgjsG1312" transform="translate(192, 384) scale(2)" fill="rgba(85, 190, 61, 0.5)"></use><use xlink:href="#SvgjsG1325" transform="translate(192, 432) scale(2)" fill="rgba(85, 190, 61, 0.5)"></use><use xlink:href="#SvgjsG1314" transform="translate(240, 0) scale(2)" fill="rgba(85, 190, 61, 0.5)"></use><use xlink:href="#SvgjsG1312" transform="translate(240, 48) scale(2)" fill="rgba(85, 190, 61, 0.5)"></use><use xlink:href="#SvgjsG1324" transform="translate(240, 96) scale(2)" fill="rgba(85, 190, 61, 0.5)"></use><use xlink:href="#SvgjsG1312" transform="translate(240, 144) scale(2)" fill="rgba(85, 190, 61, 0.5)"></use><use xlink:href="#SvgjsG1312" transform="translate(240, 192) scale(2)" fill="rgba(85, 190, 61, 0.5)"></use><use xlink:href="#SvgjsG1317" transform="translate(240, 240) scale(2)" fill="rgba(85, 190, 61, 0.5)"></use><use xlink:href="#SvgjsG1322" transform="translate(240, 288) scale(2)" fill="rgba(85, 190, 61, 0.5)"></use><use xlink:href="#SvgjsG1316" transform="translate(240, 336) scale(2)" fill="rgba(85, 190, 61, 0.5)"></use><use xlink:href="#SvgjsG1325" transform="translate(240, 384) scale(2)" fill="rgba(85, 190, 61, 0.5)"></use><use xlink:href="#SvgjsG1319" transform="translate(240, 432) scale(2)" fill="rgba(85, 190, 61, 0.5)"></use><use xlink:href="#SvgjsG1317" transform="translate(288, 0) scale(2)" fill="rgba(85, 190, 61, 0.5)"></use><use xlink:href="#SvgjsG1319" transform="translate(288, 48) scale(2)" fill="rgba(85, 190, 61, 0.5)"></use><use xlink:href="#SvgjsG1317" transform="translate(288, 96) scale(2)" fill="rgba(85, 190, 61, 0.5)"></use><use xlink:href="#SvgjsG1325" transform="translate(288, 144) scale(2)" fill="rgba(85, 190, 61, 0.5)"></use><use xlink:href="#SvgjsG1312" transform="translate(288, 192) scale(2)" fill="rgba(85, 190, 61, 0.5)"></use><use xlink:href="#SvgjsG1313" transform="translate(288, 240) scale(2)" fill="rgba(85, 190, 61, 0.5)"></use><use xlink:href="#SvgjsG1322" transform="translate(288, 288) scale(2)" fill="rgba(85, 190, 61, 0.5)"></use><use xlink:href="#SvgjsG1328" transform="translate(288, 336) scale(2)" fill="rgba(85, 190, 61, 0.5)"></use><use xlink:href="#SvgjsG1315" transform="translate(288, 384) scale(2)" fill="rgba(85, 190, 61, 0.5)"></use><use xlink:href="#SvgjsG1326" transform="translate(288, 432) scale(2)" fill="rgba(85, 190, 61, 0.5)"></use><use xlink:href="#SvgjsG1328" transform="translate(336, 0) scale(2)" fill="rgba(85, 190, 61, 0.5)"></use><use xlink:href="#SvgjsG1328" transform="translate(336, 48) scale(2)" fill="rgba(85, 190, 61, 0.5)"></use><use xlink:href="#SvgjsG1319" transform="translate(336, 96) scale(2)" fill="rgba(85, 190, 61, 0.5)"></use><use xlink:href="#SvgjsG1317" transform="translate(336, 144) scale(2)" fill="rgba(85, 190, 61, 0.5)"></use><use xlink:href="#SvgjsG1315" transform="translate(336, 192) scale(2)" fill="rgba(85, 190, 61, 0.5)"></use><use xlink:href="#SvgjsG1326" transform="translate(336, 240) scale(2)" fill="rgba(85, 190, 61, 0.5)"></use><use xlink:href="#SvgjsG1325" transform="translate(336, 288) scale(2)" fill="rgba(85, 190, 61, 0.5)"></use><use xlink:href="#SvgjsG1317" transform="translate(336, 336) scale(2)" fill="rgba(85, 190, 61, 0.5)"></use><use xlink:href="#SvgjsG1322" transform="translate(336, 384) scale(2)" fill="rgba(85, 190, 61, 0.5)"></use><use xlink:href="#SvgjsG1321" transform="translate(336, 432) scale(2)" fill="rgba(85, 190, 61, 0.5)"></use><use xlink:href="#SvgjsG1317" transform="translate(384, 0) scale(2)" fill="rgba(85, 190, 61, 0.5)"></use><use xlink:href="#SvgjsG1325" transform="translate(384, 48) scale(2)" fill="rgba(85, 190, 61, 0.5)"></use><use xlink:href="#SvgjsG1312" transform="translate(384, 96) scale(2)" fill="rgba(85, 190, 61, 0.5)"></use><use xlink:href="#SvgjsG1328" transform="translate(384, 144) scale(2)" fill="rgba(85, 190, 61, 0.5)"></use><use xlink:href="#SvgjsG1326" transform="translate(384, 192) scale(2)" fill="rgba(85, 190, 61, 0.5)"></use><use xlink:href="#SvgjsG1318" transform="translate(384, 240) scale(2)" fill="rgba(85, 190, 61, 0.5)"></use><use xlink:href="#SvgjsG1315" transform="translate(384, 288) scale(2)" fill="rgba(85, 190, 61, 0.5)"></use><use xlink:href="#SvgjsG1313" transform="translate(384, 336) scale(2)" fill="rgba(85, 190, 61, 0.5)"></use><use xlink:href="#SvgjsG1322" transform="translate(384, 384) scale(2)" fill="rgba(85, 190, 61, 0.5)"></use><use xlink:href="#SvgjsG1317" transform="translate(384, 432) scale(2)" fill="rgba(85, 190, 61, 0.5)"></use><use xlink:href="#SvgjsG1327" transform="translate(432, 0) scale(2)" fill="rgba(85, 190, 61, 0.5)"></use><use xlink:href="#SvgjsG1327" transform="translate(432, 48) scale(2)" fill="rgba(85, 190, 61, 0.5)"></use><use xlink:href="#SvgjsG1323" transform="translate(432, 96) scale(2)" fill="rgba(85, 190, 61, 0.5)"></use><use xlink:href="#SvgjsG1312" transform="translate(432, 144) scale(2)" fill="rgba(85, 190, 61, 0.5)"></use><use xlink:href="#SvgjsG1313" transform="translate(432, 192) scale(2)" fill="rgba(85, 190, 61, 0.5)"></use><use xlink:href="#SvgjsG1320" transform="translate(432, 240) scale(2)" fill="rgba(85, 190, 61, 0.5)"></use><use xlink:href="#SvgjsG1317" transform="translate(432, 288) scale(2)" fill="rgba(85, 190, 61, 0.5)"></use><use xlink:href="#SvgjsG1318" transform="translate(432, 336) scale(2)" fill="rgba(85, 190, 61, 0.5)"></use><use xlink:href="#SvgjsG1314" transform="translate(432, 384) scale(2)" fill="rgba(85, 190, 61, 0.5)"></use><use xlink:href="#SvgjsG1324" transform="translate(432, 432) scale(2)" fill="rgba(85, 190, 61, 0.5)"></use></g></defs></svg>