<svg xmlns="http://www.w3.org/2000/svg" version="1.1" xmlns:xlink="http://www.w3.org/1999/xlink" xmlns:svgjs="http://svgjs.com/svgjs" width="1440" height="560" preserveAspectRatio="none" viewBox="0 0 1440 560"><g clip-path="url(&quot;#SvgjsClipPath1009&quot;)" fill="none"><rect width="1440" height="560" x="0" y="0" fill="rgba(255, 255, 255, 1)"></rect><circle r="93.335" cx="-68.76" cy="84.5" stroke="#aaaaaa" stroke-opacity="0.25" stroke-width="2"></circle><circle r="93.335" cx="441.19" cy="425.38" stroke="#aaaaaa" stroke-opacity="0.25" stroke-width="2"></circle><circle r="93.335" cx="730.85" cy="727.92" stroke="#aaaaaa" stroke-opacity="0.25" stroke-width="2"></circle><circle r="58.105" cx="964.37" cy="188.04" stroke="#aaaaaa" stroke-opacity="0.25" stroke-width="2"></circle><circle r="150.32" cx="1310.82" cy="169.42" stroke="#aaaaaa" stroke-opacity="0.25" stroke-width="2"></circle><circle r="137.39" cx="1176.73" cy="98.29" stroke="#aaaaaa" stroke-opacity="0.25" stroke-width="2"></circle><circle r="185.23" cx="451.76" cy="428.55" stroke="#aaaaaa" stroke-opacity="0.25" stroke-width="2"></circle><circle r="172.315" cx="463.76" cy="526.53" stroke="#aaaaaa" stroke-opacity="0.25" stroke-width="2"></circle><circle r="107.875" cx="1221.97" cy="126.34" stroke="#aaaaaa" stroke-opacity="0.25" stroke-width="2"></circle><circle r="84.315" cx="719.45" cy="228.44" stroke="#aaaaaa" stroke-opacity="0.25" stroke-width="2"></circle><circle r="77.94" cx="1265.79" cy="125.93" stroke="#aaaaaa" stroke-opacity="0.25" stroke-width="2"></circle><circle r="80.03" cx="889.02" cy="427.71" stroke="#aaaaaa" stroke-opacity="0.25" stroke-width="2"></circle><circle r="110.16" cx="624.59" cy="519.8" stroke="#aaaaaa" stroke-opacity="0.25" stroke-width="2"></circle><circle r="90.77" cx="626.86" cy="34.56" stroke="#aaaaaa" stroke-opacity="0.25" stroke-width="2"></circle><circle r="160.87" cx="351.97" cy="441.97" stroke="#aaaaaa" stroke-opacity="0.25" stroke-width="2"></circle><circle r="76.27" cx="1320.42" cy="355.44" stroke="#aaaaaa" stroke-opacity="0.25" stroke-width="2"></circle><circle r="128.595" cx="1400.26" cy="145.11" stroke="#aaaaaa" stroke-opacity="0.25" stroke-width="2"></circle><circle r="113.18" cx="857.66" cy="103.74" stroke="#aaaaaa" stroke-opacity="0.25" stroke-width="2"></circle><circle r="157.63" cx="1182.58" cy="443.78" stroke="#aaaaaa" stroke-opacity="0.25" stroke-width="2"></circle><circle r="95.175" cx="138.09" cy="498.98" stroke="#aaaaaa" stroke-opacity="0.25" stroke-width="2"></circle><circle r="154.045" cx="1096.73" cy="534.11" stroke="#aaaaaa" stroke-opacity="0.25" stroke-width="2"></circle><circle r="71.005" cx="843.13" cy="378.79" stroke="#aaaaaa" stroke-opacity="0.25" stroke-width="2"></circle></g><defs><clipPath id="SvgjsClipPath1009"><rect width="1440" height="560" x="0" y="0"></rect></clipPath></defs></svg>