<svg xmlns="http://www.w3.org/2000/svg" version="1.1" xmlns:xlink="http://www.w3.org/1999/xlink" xmlns:svgjs="http://svgjs.com/svgjs" width="1440" height="560" preserveAspectRatio="none" viewBox="0 0 1440 560"><g mask="url(&quot;#SvgjsMask1090&quot;)" fill="none"><rect width="1440" height="560" x="0" y="0" fill="rgba(45, 49, 77, 1)"></rect><path d="M-57.02 394.15L-57.02 394.15" stroke="rgba(49, 211, 92, 0.36)" stroke-width="1.5"></path><path d="M-57.02 394.15L-69.57 521.67" stroke="rgba(49, 211, 92, 0.36)" stroke-width="1.5"></path><path d="M-57.02 394.15L77.59 377.78" stroke="rgba(49, 211, 92, 0.36)" stroke-width="1.5"></path><path d="M-57.02 394.15L54.89 519" stroke="rgba(49, 211, 92, 0.36)" stroke-width="1.5"></path><path d="M-57.02 394.15L221.36 379.71" stroke="rgba(49, 211, 92, 0.36)" stroke-width="1.5"></path><path d="M-57.02 394.15L-86.52 685.35" stroke="rgba(49, 211, 92, 0.36)" stroke-width="1.5"></path><path d="M-57.02 394.15L81.22 708.42" stroke="rgba(49, 211, 92, 0.36)" stroke-width="1.5"></path><path d="M-69.57 521.67L-69.57 521.67" stroke="rgba(49, 211, 92, 0.36)" stroke-width="1.5"></path><path d="M-69.57 521.67L54.89 519" stroke="rgba(49, 211, 92, 0.36)" stroke-width="1.5"></path><path d="M-69.57 521.67L-86.52 685.35" stroke="rgba(49, 211, 92, 0.36)" stroke-width="1.5"></path><path d="M-86.52 685.35L-86.52 685.35" stroke="rgba(49, 211, 92, 0.36)" stroke-width="1.5"></path><path d="M-86.52 685.35L81.22 708.42" stroke="rgba(49, 211, 92, 0.36)" stroke-width="1.5"></path><path d="M-86.52 685.35L54.89 519" stroke="rgba(49, 211, 92, 0.36)" stroke-width="1.5"></path><path d="M77.59 377.78L77.59 377.78" stroke="rgba(49, 211, 92, 0.36)" stroke-width="1.5"></path><path d="M77.59 377.78L54.89 519" stroke="rgba(49, 211, 92, 0.36)" stroke-width="1.5"></path><path d="M77.59 377.78L221.36 379.71" stroke="rgba(49, 211, 92, 0.36)" stroke-width="1.5"></path><path d="M77.59 377.78L-69.57 521.67" stroke="rgba(49, 211, 92, 0.36)" stroke-width="1.5"></path><path d="M77.59 377.78L344.19 375.57" stroke="rgba(49, 211, 92, 0.36)" stroke-width="1.5"></path><path d="M54.89 519L54.89 519" stroke="rgba(49, 211, 92, 0.36)" stroke-width="1.5"></path><path d="M81.22 708.42L81.22 708.42" stroke="rgba(49, 211, 92, 0.36)" stroke-width="1.5"></path><path d="M81.22 708.42L257.79 639.25" stroke="rgba(49, 211, 92, 0.36)" stroke-width="1.5"></path><path d="M81.22 708.42L54.89 519" stroke="rgba(49, 211, 92, 0.36)" stroke-width="1.5"></path><path d="M81.22 708.42L-69.57 521.67" stroke="rgba(49, 211, 92, 0.36)" stroke-width="1.5"></path><path d="M81.22 708.42L350.77 527.06" stroke="rgba(49, 211, 92, 0.36)" stroke-width="1.5"></path><path d="M221.36 379.71L221.36 379.71" stroke="rgba(49, 211, 92, 0.36)" stroke-width="1.5"></path><path d="M221.36 379.71L344.19 375.57" stroke="rgba(49, 211, 92, 0.36)" stroke-width="1.5"></path><path d="M257.79 639.25L257.79 639.25" stroke="rgba(49, 211, 92, 0.36)" stroke-width="1.5"></path><path d="M257.79 639.25L350.77 527.06" stroke="rgba(49, 211, 92, 0.36)" stroke-width="1.5"></path><path d="M257.79 639.25L412.12 712.08" stroke="rgba(49, 211, 92, 0.36)" stroke-width="1.5"></path><path d="M344.19 375.57L344.19 375.57" stroke="rgba(49, 211, 92, 0.36)" stroke-width="1.5"></path><path d="M344.19 375.57L350.77 527.06" stroke="rgba(49, 211, 92, 0.36)" stroke-width="1.5"></path><path d="M344.19 375.57L521.73 342.13" stroke="rgba(49, 211, 92, 0.36)" stroke-width="1.5"></path><path d="M344.19 375.57L502.55 515.26" stroke="rgba(49, 211, 92, 0.36)" stroke-width="1.5"></path><path d="M350.77 527.06L350.77 527.06" stroke="rgba(49, 211, 92, 0.36)" stroke-width="1.5"></path><path d="M350.77 527.06L502.55 515.26" stroke="rgba(49, 211, 92, 0.36)" stroke-width="1.5"></path><path d="M350.77 527.06L412.12 712.08" stroke="rgba(49, 211, 92, 0.36)" stroke-width="1.5"></path><path d="M412.12 712.08L412.12 712.08" stroke="rgba(49, 211, 92, 0.36)" stroke-width="1.5"></path><path d="M412.12 712.08L541.71 652.8" stroke="rgba(49, 211, 92, 0.36)" stroke-width="1.5"></path><path d="M412.12 712.08L502.55 515.26" stroke="rgba(49, 211, 92, 0.36)" stroke-width="1.5"></path><path d="M412.12 712.08L685.79 686.08" stroke="rgba(49, 211, 92, 0.36)" stroke-width="1.5"></path><path d="M521.73 342.13L521.73 342.13" stroke="rgba(49, 211, 92, 0.36)" stroke-width="1.5"></path><path d="M521.73 342.13L653.72 410.83" stroke="rgba(49, 211, 92, 0.36)" stroke-width="1.5"></path><path d="M521.73 342.13L502.55 515.26" stroke="rgba(49, 211, 92, 0.36)" stroke-width="1.5"></path><path d="M502.55 515.26L502.55 515.26" stroke="rgba(49, 211, 92, 0.36)" stroke-width="1.5"></path><path d="M502.55 515.26L541.71 652.8" stroke="rgba(49, 211, 92, 0.36)" stroke-width="1.5"></path><path d="M502.55 515.26L653.72 410.83" stroke="rgba(49, 211, 92, 0.36)" stroke-width="1.5"></path><path d="M541.71 652.8L541.71 652.8" stroke="rgba(49, 211, 92, 0.36)" stroke-width="1.5"></path><path d="M541.71 652.8L685.79 686.08" stroke="rgba(49, 211, 92, 0.36)" stroke-width="1.5"></path><path d="M541.71 652.8L686.01 498.54" stroke="rgba(49, 211, 92, 0.36)" stroke-width="1.5"></path><path d="M653.72 410.83L653.72 410.83" stroke="rgba(49, 211, 92, 0.36)" stroke-width="1.5"></path><path d="M653.72 410.83L686.01 498.54" stroke="rgba(49, 211, 92, 0.36)" stroke-width="1.5"></path><path d="M653.72 410.83L852.83 404.23" stroke="rgba(49, 211, 92, 0.36)" stroke-width="1.5"></path><path d="M653.72 410.83L820.96 560.1" stroke="rgba(49, 211, 92, 0.36)" stroke-width="1.5"></path><path d="M653.72 410.83L541.71 652.8" stroke="rgba(49, 211, 92, 0.36)" stroke-width="1.5"></path><path d="M686.01 498.54L686.01 498.54" stroke="rgba(49, 211, 92, 0.36)" stroke-width="1.5"></path><path d="M686.01 498.54L820.96 560.1" stroke="rgba(49, 211, 92, 0.36)" stroke-width="1.5"></path><path d="M686.01 498.54L502.55 515.26" stroke="rgba(49, 211, 92, 0.36)" stroke-width="1.5"></path><path d="M685.79 686.08L685.79 686.08" stroke="rgba(49, 211, 92, 0.36)" stroke-width="1.5"></path><path d="M685.79 686.08L837.9 704.58" stroke="rgba(49, 211, 92, 0.36)" stroke-width="1.5"></path><path d="M685.79 686.08L820.96 560.1" stroke="rgba(49, 211, 92, 0.36)" stroke-width="1.5"></path><path d="M685.79 686.08L686.01 498.54" stroke="rgba(49, 211, 92, 0.36)" stroke-width="1.5"></path><path d="M860.67 87.83L860.67 87.83" stroke="rgba(49, 211, 92, 0.36)" stroke-width="1.5"></path><path d="M860.67 87.83L965.33 48.14" stroke="rgba(49, 211, 92, 0.36)" stroke-width="1.5"></path><path d="M860.67 87.83L828.28 207.68" stroke="rgba(49, 211, 92, 0.36)" stroke-width="1.5"></path><path d="M828.28 207.68L828.28 207.68" stroke="rgba(49, 211, 92, 0.36)" stroke-width="1.5"></path><path d="M828.28 207.68L852.83 404.23" stroke="rgba(49, 211, 92, 0.36)" stroke-width="1.5"></path><path d="M828.28 207.68L965.33 48.14" stroke="rgba(49, 211, 92, 0.36)" stroke-width="1.5"></path><path d="M828.28 207.68L973.61 385.93" stroke="rgba(49, 211, 92, 0.36)" stroke-width="1.5"></path><path d="M828.28 207.68L653.72 410.83" stroke="rgba(49, 211, 92, 0.36)" stroke-width="1.5"></path><path d="M828.28 207.68L1130.69 199.69" stroke="rgba(49, 211, 92, 0.36)" stroke-width="1.5"></path><path d="M852.83 404.23L852.83 404.23" stroke="rgba(49, 211, 92, 0.36)" stroke-width="1.5"></path><path d="M852.83 404.23L973.61 385.93" stroke="rgba(49, 211, 92, 0.36)" stroke-width="1.5"></path><path d="M852.83 404.23L820.96 560.1" stroke="rgba(49, 211, 92, 0.36)" stroke-width="1.5"></path><path d="M852.83 404.23L947.74 554.81" stroke="rgba(49, 211, 92, 0.36)" stroke-width="1.5"></path><path d="M820.96 560.1L820.96 560.1" stroke="rgba(49, 211, 92, 0.36)" stroke-width="1.5"></path><path d="M820.96 560.1L947.74 554.81" stroke="rgba(49, 211, 92, 0.36)" stroke-width="1.5"></path><path d="M820.96 560.1L837.9 704.58" stroke="rgba(49, 211, 92, 0.36)" stroke-width="1.5"></path><path d="M837.9 704.58L837.9 704.58" stroke="rgba(49, 211, 92, 0.36)" stroke-width="1.5"></path><path d="M837.9 704.58L975.14 672.21" stroke="rgba(49, 211, 92, 0.36)" stroke-width="1.5"></path><path d="M837.9 704.58L947.74 554.81" stroke="rgba(49, 211, 92, 0.36)" stroke-width="1.5"></path><path d="M837.9 704.58L686.01 498.54" stroke="rgba(49, 211, 92, 0.36)" stroke-width="1.5"></path><path d="M837.9 704.58L541.71 652.8" stroke="rgba(49, 211, 92, 0.36)" stroke-width="1.5"></path><path d="M1000.17 -47.04L1000.17 -47.04" stroke="rgba(49, 211, 92, 0.36)" stroke-width="1.5"></path><path d="M1000.17 -47.04L965.33 48.14" stroke="rgba(49, 211, 92, 0.36)" stroke-width="1.5"></path><path d="M1000.17 -47.04L1102.04 -86.46" stroke="rgba(49, 211, 92, 0.36)" stroke-width="1.5"></path><path d="M1000.17 -47.04L1148.67 66.3" stroke="rgba(49, 211, 92, 0.36)" stroke-width="1.5"></path><path d="M965.33 48.14L965.33 48.14" stroke="rgba(49, 211, 92, 0.36)" stroke-width="1.5"></path><path d="M965.33 48.14L1148.67 66.3" stroke="rgba(49, 211, 92, 0.36)" stroke-width="1.5"></path><path d="M965.33 48.14L1102.04 -86.46" stroke="rgba(49, 211, 92, 0.36)" stroke-width="1.5"></path><path d="M973.61 385.93L973.61 385.93" stroke="rgba(49, 211, 92, 0.36)" stroke-width="1.5"></path><path d="M973.61 385.93L1129.45 347.31" stroke="rgba(49, 211, 92, 0.36)" stroke-width="1.5"></path><path d="M947.74 554.81L947.74 554.81" stroke="rgba(49, 211, 92, 0.36)" stroke-width="1.5"></path><path d="M947.74 554.81L975.14 672.21" stroke="rgba(49, 211, 92, 0.36)" stroke-width="1.5"></path><path d="M947.74 554.81L973.61 385.93" stroke="rgba(49, 211, 92, 0.36)" stroke-width="1.5"></path><path d="M975.14 672.21L975.14 672.21" stroke="rgba(49, 211, 92, 0.36)" stroke-width="1.5"></path><path d="M975.14 672.21L1142.32 658.19" stroke="rgba(49, 211, 92, 0.36)" stroke-width="1.5"></path><path d="M975.14 672.21L820.96 560.1" stroke="rgba(49, 211, 92, 0.36)" stroke-width="1.5"></path><path d="M975.14 672.21L1139.01 513.42" stroke="rgba(49, 211, 92, 0.36)" stroke-width="1.5"></path><path d="M1102.04 -86.46L1102.04 -86.46" stroke="rgba(49, 211, 92, 0.36)" stroke-width="1.5"></path><path d="M1102.04 -86.46L1148.67 66.3" stroke="rgba(49, 211, 92, 0.36)" stroke-width="1.5"></path><path d="M1102.04 -86.46L1291.85 -98.57" stroke="rgba(49, 211, 92, 0.36)" stroke-width="1.5"></path><path d="M1148.67 66.3L1148.67 66.3" stroke="rgba(49, 211, 92, 0.36)" stroke-width="1.5"></path><path d="M1148.67 66.3L1130.69 199.69" stroke="rgba(49, 211, 92, 0.36)" stroke-width="1.5"></path><path d="M1148.67 66.3L1305.84 99.59" stroke="rgba(49, 211, 92, 0.36)" stroke-width="1.5"></path><path d="M1130.69 199.69L1130.69 199.69" stroke="rgba(49, 211, 92, 0.36)" stroke-width="1.5"></path><path d="M1130.69 199.69L1129.45 347.31" stroke="rgba(49, 211, 92, 0.36)" stroke-width="1.5"></path><path d="M1130.69 199.69L1298.11 256.96" stroke="rgba(49, 211, 92, 0.36)" stroke-width="1.5"></path><path d="M1130.69 199.69L1305.84 99.59" stroke="rgba(49, 211, 92, 0.36)" stroke-width="1.5"></path><path d="M1129.45 347.31L1129.45 347.31" stroke="rgba(49, 211, 92, 0.36)" stroke-width="1.5"></path><path d="M1129.45 347.31L1287.53 349.21" stroke="rgba(49, 211, 92, 0.36)" stroke-width="1.5"></path><path d="M1129.45 347.31L1139.01 513.42" stroke="rgba(49, 211, 92, 0.36)" stroke-width="1.5"></path><path d="M1129.45 347.31L1298.11 256.96" stroke="rgba(49, 211, 92, 0.36)" stroke-width="1.5"></path><path d="M1129.45 347.31L1265.24 517.36" stroke="rgba(49, 211, 92, 0.36)" stroke-width="1.5"></path><path d="M1139.01 513.42L1139.01 513.42" stroke="rgba(49, 211, 92, 0.36)" stroke-width="1.5"></path><path d="M1139.01 513.42L1265.24 517.36" stroke="rgba(49, 211, 92, 0.36)" stroke-width="1.5"></path><path d="M1142.32 658.19L1142.32 658.19" stroke="rgba(49, 211, 92, 0.36)" stroke-width="1.5"></path><path d="M1142.32 658.19L1139.01 513.42" stroke="rgba(49, 211, 92, 0.36)" stroke-width="1.5"></path><path d="M1142.32 658.19L1311.35 671.41" stroke="rgba(49, 211, 92, 0.36)" stroke-width="1.5"></path><path d="M1291.85 -98.57L1291.85 -98.57" stroke="rgba(49, 211, 92, 0.36)" stroke-width="1.5"></path><path d="M1291.85 -98.57L1460.76 -74.65" stroke="rgba(49, 211, 92, 0.36)" stroke-width="1.5"></path><path d="M1291.85 -98.57L1305.84 99.59" stroke="rgba(49, 211, 92, 0.36)" stroke-width="1.5"></path><path d="M1291.85 -98.57L1148.67 66.3" stroke="rgba(49, 211, 92, 0.36)" stroke-width="1.5"></path><path d="M1305.84 99.59L1305.84 99.59" stroke="rgba(49, 211, 92, 0.36)" stroke-width="1.5"></path><path d="M1305.84 99.59L1425.26 77.16" stroke="rgba(49, 211, 92, 0.36)" stroke-width="1.5"></path><path d="M1305.84 99.59L1298.11 256.96" stroke="rgba(49, 211, 92, 0.36)" stroke-width="1.5"></path><path d="M1298.11 256.96L1298.11 256.96" stroke="rgba(49, 211, 92, 0.36)" stroke-width="1.5"></path><path d="M1298.11 256.96L1287.53 349.21" stroke="rgba(49, 211, 92, 0.36)" stroke-width="1.5"></path><path d="M1298.11 256.96L1443.38 194.35" stroke="rgba(49, 211, 92, 0.36)" stroke-width="1.5"></path><path d="M1287.53 349.21L1287.53 349.21" stroke="rgba(49, 211, 92, 0.36)" stroke-width="1.5"></path><path d="M1287.53 349.21L1436.46 394.38" stroke="rgba(49, 211, 92, 0.36)" stroke-width="1.5"></path><path d="M1287.53 349.21L1265.24 517.36" stroke="rgba(49, 211, 92, 0.36)" stroke-width="1.5"></path><path d="M1265.24 517.36L1265.24 517.36" stroke="rgba(49, 211, 92, 0.36)" stroke-width="1.5"></path><path d="M1265.24 517.36L1418.64 553.72" stroke="rgba(49, 211, 92, 0.36)" stroke-width="1.5"></path><path d="M1265.24 517.36L1311.35 671.41" stroke="rgba(49, 211, 92, 0.36)" stroke-width="1.5"></path><path d="M1265.24 517.36L1142.32 658.19" stroke="rgba(49, 211, 92, 0.36)" stroke-width="1.5"></path><path d="M1311.35 671.41L1311.35 671.41" stroke="rgba(49, 211, 92, 0.36)" stroke-width="1.5"></path><path d="M1311.35 671.41L1401.02 651.68" stroke="rgba(49, 211, 92, 0.36)" stroke-width="1.5"></path><path d="M1311.35 671.41L1418.64 553.72" stroke="rgba(49, 211, 92, 0.36)" stroke-width="1.5"></path><path d="M1460.76 -74.65L1460.76 -74.65" stroke="rgba(49, 211, 92, 0.36)" stroke-width="1.5"></path><path d="M1460.76 -74.65L1562.16 -98.22" stroke="rgba(49, 211, 92, 0.36)" stroke-width="1.5"></path><path d="M1460.76 -74.65L1425.26 77.16" stroke="rgba(49, 211, 92, 0.36)" stroke-width="1.5"></path><path d="M1460.76 -74.65L1541.28 97.84" stroke="rgba(49, 211, 92, 0.36)" stroke-width="1.5"></path><path d="M1460.76 -74.65L1305.84 99.59" stroke="rgba(49, 211, 92, 0.36)" stroke-width="1.5"></path><path d="M1460.76 -74.65L1443.38 194.35" stroke="rgba(49, 211, 92, 0.36)" stroke-width="1.5"></path><path d="M1425.26 77.16L1425.26 77.16" stroke="rgba(49, 211, 92, 0.36)" stroke-width="1.5"></path><path d="M1425.26 77.16L1541.28 97.84" stroke="rgba(49, 211, 92, 0.36)" stroke-width="1.5"></path><path d="M1425.26 77.16L1443.38 194.35" stroke="rgba(49, 211, 92, 0.36)" stroke-width="1.5"></path><path d="M1443.38 194.35L1443.38 194.35" stroke="rgba(49, 211, 92, 0.36)" stroke-width="1.5"></path><path d="M1443.38 194.35L1556.89 192.05" stroke="rgba(49, 211, 92, 0.36)" stroke-width="1.5"></path><path d="M1443.38 194.35L1541.28 97.84" stroke="rgba(49, 211, 92, 0.36)" stroke-width="1.5"></path><path d="M1436.46 394.38L1436.46 394.38" stroke="rgba(49, 211, 92, 0.36)" stroke-width="1.5"></path><path d="M1436.46 394.38L1418.64 553.72" stroke="rgba(49, 211, 92, 0.36)" stroke-width="1.5"></path><path d="M1436.46 394.38L1606.58 374.03" stroke="rgba(49, 211, 92, 0.36)" stroke-width="1.5"></path><path d="M1418.64 553.72L1418.64 553.72" stroke="rgba(49, 211, 92, 0.36)" stroke-width="1.5"></path><path d="M1418.64 553.72L1401.02 651.68" stroke="rgba(49, 211, 92, 0.36)" stroke-width="1.5"></path><path d="M1418.64 553.72L1575.56 531.2" stroke="rgba(49, 211, 92, 0.36)" stroke-width="1.5"></path><path d="M1401.02 651.68L1401.02 651.68" stroke="rgba(49, 211, 92, 0.36)" stroke-width="1.5"></path><path d="M1401.02 651.68L1551.07 694.06" stroke="rgba(49, 211, 92, 0.36)" stroke-width="1.5"></path><path d="M1562.16 -98.22L1562.16 -98.22" stroke="rgba(49, 211, 92, 0.36)" stroke-width="1.5"></path><path d="M1562.16 -98.22L1541.28 97.84" stroke="rgba(49, 211, 92, 0.36)" stroke-width="1.5"></path><path d="M1562.16 -98.22L1425.26 77.16" stroke="rgba(49, 211, 92, 0.36)" stroke-width="1.5"></path><path d="M1562.16 -98.22L1291.85 -98.57" stroke="rgba(49, 211, 92, 0.36)" stroke-width="1.5"></path><path d="M1541.28 97.84L1541.28 97.84" stroke="rgba(49, 211, 92, 0.36)" stroke-width="1.5"></path><path d="M1541.28 97.84L1556.89 192.05" stroke="rgba(49, 211, 92, 0.36)" stroke-width="1.5"></path><path d="M1556.89 192.05L1556.89 192.05" stroke="rgba(49, 211, 92, 0.36)" stroke-width="1.5"></path><path d="M1606.58 374.03L1606.58 374.03" stroke="rgba(49, 211, 92, 0.36)" stroke-width="1.5"></path><path d="M1606.58 374.03L1575.56 531.2" stroke="rgba(49, 211, 92, 0.36)" stroke-width="1.5"></path><path d="M1606.58 374.03L1556.89 192.05" stroke="rgba(49, 211, 92, 0.36)" stroke-width="1.5"></path><path d="M1606.58 374.03L1443.38 194.35" stroke="rgba(49, 211, 92, 0.36)" stroke-width="1.5"></path><path d="M1575.56 531.2L1575.56 531.2" stroke="rgba(49, 211, 92, 0.36)" stroke-width="1.5"></path><path d="M1551.07 694.06L1551.07 694.06" stroke="rgba(49, 211, 92, 0.36)" stroke-width="1.5"></path><path d="M1551.07 694.06L1575.56 531.2" stroke="rgba(49, 211, 92, 0.36)" stroke-width="1.5"></path><path d="M1551.07 694.06L1418.64 553.72" stroke="rgba(49, 211, 92, 0.36)" stroke-width="1.5"></path><path d="M1551.07 694.06L1311.35 671.41" stroke="rgba(49, 211, 92, 0.36)" stroke-width="1.5"></path><circle r="5" cx="-57.02" cy="394.15" fill="rgba(49, 211, 92, 0.36)"></circle><circle r="5" cx="-69.57" cy="521.67" fill="rgba(49, 211, 92, 0.36)"></circle><circle r="5" cx="-86.52" cy="685.35" fill="rgba(49, 211, 92, 0.36)"></circle><circle r="5" cx="77.59" cy="377.78" fill="rgba(49, 211, 92, 0.36)"></circle><circle r="5" cx="54.89" cy="519" fill="rgba(49, 211, 92, 0.36)"></circle><circle r="5" cx="81.22" cy="708.42" fill="rgba(49, 211, 92, 0.36)"></circle><circle r="5" cx="221.36" cy="379.71" fill="rgba(49, 211, 92, 0.36)"></circle><circle r="5" cx="257.79" cy="639.25" fill="rgba(49, 211, 92, 0.36)"></circle><circle r="5" cx="344.19" cy="375.57" fill="rgba(49, 211, 92, 0.36)"></circle><circle r="5" cx="350.77" cy="527.06" fill="rgba(49, 211, 92, 0.36)"></circle><circle r="5" cx="412.12" cy="712.08" fill="rgba(49, 211, 92, 0.36)"></circle><circle r="5" cx="521.73" cy="342.13" fill="rgba(49, 211, 92, 0.36)"></circle><circle r="5" cx="502.55" cy="515.26" fill="rgba(49, 211, 92, 0.36)"></circle><circle r="5" cx="541.71" cy="652.8" fill="rgba(49, 211, 92, 0.36)"></circle><circle r="5" cx="653.72" cy="410.83" fill="rgba(49, 211, 92, 0.36)"></circle><circle r="5" cx="686.01" cy="498.54" fill="rgba(49, 211, 92, 0.36)"></circle><circle r="5" cx="685.79" cy="686.08" fill="rgba(49, 211, 92, 0.36)"></circle><circle r="5" cx="860.67" cy="87.83" fill="rgba(49, 211, 92, 0.36)"></circle><circle r="5" cx="828.28" cy="207.68" fill="rgba(49, 211, 92, 0.36)"></circle><circle r="5" cx="852.83" cy="404.23" fill="rgba(49, 211, 92, 0.36)"></circle><circle r="5" cx="820.96" cy="560.1" fill="rgba(49, 211, 92, 0.36)"></circle><circle r="5" cx="837.9" cy="704.58" fill="rgba(49, 211, 92, 0.36)"></circle><circle r="5" cx="1000.17" cy="-47.04" fill="rgba(49, 211, 92, 0.36)"></circle><circle r="5" cx="965.33" cy="48.14" fill="rgba(49, 211, 92, 0.36)"></circle><circle r="5" cx="973.61" cy="385.93" fill="rgba(49, 211, 92, 0.36)"></circle><circle r="5" cx="947.74" cy="554.81" fill="rgba(49, 211, 92, 0.36)"></circle><circle r="5" cx="975.14" cy="672.21" fill="rgba(49, 211, 92, 0.36)"></circle><circle r="5" cx="1102.04" cy="-86.46" fill="rgba(49, 211, 92, 0.36)"></circle><circle r="5" cx="1148.67" cy="66.3" fill="rgba(49, 211, 92, 0.36)"></circle><circle r="5" cx="1130.69" cy="199.69" fill="rgba(49, 211, 92, 0.36)"></circle><circle r="5" cx="1129.45" cy="347.31" fill="rgba(49, 211, 92, 0.36)"></circle><circle r="5" cx="1139.01" cy="513.42" fill="rgba(49, 211, 92, 0.36)"></circle><circle r="5" cx="1142.32" cy="658.19" fill="rgba(49, 211, 92, 0.36)"></circle><circle r="5" cx="1291.85" cy="-98.57" fill="rgba(49, 211, 92, 0.36)"></circle><circle r="5" cx="1305.84" cy="99.59" fill="rgba(49, 211, 92, 0.36)"></circle><circle r="5" cx="1298.11" cy="256.96" fill="rgba(49, 211, 92, 0.36)"></circle><circle r="5" cx="1287.53" cy="349.21" fill="rgba(49, 211, 92, 0.36)"></circle><circle r="5" cx="1265.24" cy="517.36" fill="rgba(49, 211, 92, 0.36)"></circle><circle r="5" cx="1311.35" cy="671.41" fill="rgba(49, 211, 92, 0.36)"></circle><circle r="5" cx="1460.76" cy="-74.65" fill="rgba(49, 211, 92, 0.36)"></circle><circle r="5" cx="1425.26" cy="77.16" fill="rgba(49, 211, 92, 0.36)"></circle><circle r="5" cx="1443.38" cy="194.35" fill="rgba(49, 211, 92, 0.36)"></circle><circle r="5" cx="1436.46" cy="394.38" fill="rgba(49, 211, 92, 0.36)"></circle><circle r="5" cx="1418.64" cy="553.72" fill="rgba(49, 211, 92, 0.36)"></circle><circle r="5" cx="1401.02" cy="651.68" fill="rgba(49, 211, 92, 0.36)"></circle><circle r="5" cx="1562.16" cy="-98.22" fill="rgba(49, 211, 92, 0.36)"></circle><circle r="5" cx="1541.28" cy="97.84" fill="rgba(49, 211, 92, 0.36)"></circle><circle r="5" cx="1556.89" cy="192.05" fill="rgba(49, 211, 92, 0.36)"></circle><circle r="5" cx="1606.58" cy="374.03" fill="rgba(49, 211, 92, 0.36)"></circle><circle r="5" cx="1575.56" cy="531.2" fill="rgba(49, 211, 92, 0.36)"></circle><circle r="5" cx="1551.07" cy="694.06" fill="rgba(49, 211, 92, 0.36)"></circle><path d="M-107.87 536.42L-107.87 536.42" stroke="hsla(135.89999999999998, 64.8%, 66.3%, 0.72)" stroke-width="1.5"></path><path d="M-107.87 536.42L-45.96 649.19" stroke="hsla(135.89999999999998, 64.8%, 66.3%, 0.72)" stroke-width="1.5"></path><path d="M-107.87 536.42L61.54 489.25" stroke="hsla(135.89999999999998, 64.8%, 66.3%, 0.72)" stroke-width="1.5"></path><path d="M-107.87 536.42L64.02 703.68" stroke="hsla(135.89999999999998, 64.8%, 66.3%, 0.72)" stroke-width="1.5"></path><path d="M64.02 703.68L64.02 703.68" stroke="hsla(135.89999999999998, 64.8%, 66.3%, 0.72)" stroke-width="1.5"></path><path d="M64.02 703.68L-45.96 649.19" stroke="hsla(135.89999999999998, 64.8%, 66.3%, 0.72)" stroke-width="1.5"></path><path d="M64.02 703.68L201.37 642.17" stroke="hsla(135.89999999999998, 64.8%, 66.3%, 0.72)" stroke-width="1.5"></path><path d="M64.02 703.68L61.54 489.25" stroke="hsla(135.89999999999998, 64.8%, 66.3%, 0.72)" stroke-width="1.5"></path><path d="M64.02 703.68L242.87 531.43" stroke="hsla(135.89999999999998, 64.8%, 66.3%, 0.72)" stroke-width="1.5"></path><path d="M1310.79 -46.15L1310.79 -46.15" stroke="hsla(135.89999999999998, 64.8%, 66.3%, 0.72)" stroke-width="1.5"></path><path d="M1310.79 -46.15L1296.32 66.37" stroke="hsla(135.89999999999998, 64.8%, 66.3%, 0.72)" stroke-width="1.5"></path><path d="M1310.79 -46.15L1452.66 -57.22" stroke="hsla(135.89999999999998, 64.8%, 66.3%, 0.72)" stroke-width="1.5"></path><path d="M1310.79 -46.15L1408.1 60.45" stroke="hsla(135.89999999999998, 64.8%, 66.3%, 0.72)" stroke-width="1.5"></path><path d="M1296.32 66.37L1296.32 66.37" stroke="hsla(135.89999999999998, 64.8%, 66.3%, 0.72)" stroke-width="1.5"></path><path d="M1296.32 66.37L1408.1 60.45" stroke="hsla(135.89999999999998, 64.8%, 66.3%, 0.72)" stroke-width="1.5"></path><path d="M1296.32 66.37L1261.1 243.69" stroke="hsla(135.89999999999998, 64.8%, 66.3%, 0.72)" stroke-width="1.5"></path><path d="M1296.32 66.37L1452.66 -57.22" stroke="hsla(135.89999999999998, 64.8%, 66.3%, 0.72)" stroke-width="1.5"></path><path d="M1452.66 -57.22L1452.66 -57.22" stroke="hsla(135.89999999999998, 64.8%, 66.3%, 0.72)" stroke-width="1.5"></path><path d="M1452.66 -57.22L1546.15 -39.35" stroke="hsla(135.89999999999998, 64.8%, 66.3%, 0.72)" stroke-width="1.5"></path><path d="M1452.66 -57.22L1408.1 60.45" stroke="hsla(135.89999999999998, 64.8%, 66.3%, 0.72)" stroke-width="1.5"></path><path d="M1452.66 -57.22L1572.63 97.33" stroke="hsla(135.89999999999998, 64.8%, 66.3%, 0.72)" stroke-width="1.5"></path><path d="M1607.59 384.25L1607.59 384.25" stroke="hsla(135.89999999999998, 64.8%, 66.3%, 0.72)" stroke-width="1.5"></path><path d="M1607.59 384.25L1556.17 262.12" stroke="hsla(135.89999999999998, 64.8%, 66.3%, 0.72)" stroke-width="1.5"></path><path d="M1607.59 384.25L1568.89 514.49" stroke="hsla(135.89999999999998, 64.8%, 66.3%, 0.72)" stroke-width="1.5"></path><path d="M1607.59 384.25L1393.96 367.96" stroke="hsla(135.89999999999998, 64.8%, 66.3%, 0.72)" stroke-width="1.5"></path><path d="M1607.59 384.25L1428.32 502.71" stroke="hsla(135.89999999999998, 64.8%, 66.3%, 0.72)" stroke-width="1.5"></path><path d="M1607.59 384.25L1462.03 195.28" stroke="hsla(135.89999999999998, 64.8%, 66.3%, 0.72)" stroke-width="1.5"></path><path d="M1607.59 384.25L1572.63 97.33" stroke="hsla(135.89999999999998, 64.8%, 66.3%, 0.72)" stroke-width="1.5"></path><path d="M-45.96 649.19L-45.96 649.19" stroke="hsla(135.89999999999998, 64.8%, 66.3%, 0.72)" stroke-width="1.5"></path><path d="M-45.96 649.19L61.54 489.25" stroke="hsla(135.89999999999998, 64.8%, 66.3%, 0.72)" stroke-width="1.5"></path><path d="M-45.96 649.19L201.37 642.17" stroke="hsla(135.89999999999998, 64.8%, 66.3%, 0.72)" stroke-width="1.5"></path><path d="M-45.96 649.19L242.87 531.43" stroke="hsla(135.89999999999998, 64.8%, 66.3%, 0.72)" stroke-width="1.5"></path><path d="M-45.96 649.19L348.05 518.59" stroke="hsla(135.89999999999998, 64.8%, 66.3%, 0.72)" stroke-width="1.5"></path><path d="M61.54 489.25L61.54 489.25" stroke="hsla(135.89999999999998, 64.8%, 66.3%, 0.72)" stroke-width="1.5"></path><path d="M61.54 489.25L242.87 531.43" stroke="hsla(135.89999999999998, 64.8%, 66.3%, 0.72)" stroke-width="1.5"></path><path d="M242.87 531.43L242.87 531.43" stroke="hsla(135.89999999999998, 64.8%, 66.3%, 0.72)" stroke-width="1.5"></path><path d="M242.87 531.43L348.05 518.59" stroke="hsla(135.89999999999998, 64.8%, 66.3%, 0.72)" stroke-width="1.5"></path><path d="M242.87 531.43L201.37 642.17" stroke="hsla(135.89999999999998, 64.8%, 66.3%, 0.72)" stroke-width="1.5"></path><path d="M242.87 531.43L393.52 680" stroke="hsla(135.89999999999998, 64.8%, 66.3%, 0.72)" stroke-width="1.5"></path><path d="M242.87 531.43L511.83 510.15" stroke="hsla(135.89999999999998, 64.8%, 66.3%, 0.72)" stroke-width="1.5"></path><path d="M201.37 642.17L201.37 642.17" stroke="hsla(135.89999999999998, 64.8%, 66.3%, 0.72)" stroke-width="1.5"></path><path d="M348.05 518.59L348.05 518.59" stroke="hsla(135.89999999999998, 64.8%, 66.3%, 0.72)" stroke-width="1.5"></path><path d="M348.05 518.59L511.83 510.15" stroke="hsla(135.89999999999998, 64.8%, 66.3%, 0.72)" stroke-width="1.5"></path><path d="M348.05 518.59L393.52 680" stroke="hsla(135.89999999999998, 64.8%, 66.3%, 0.72)" stroke-width="1.5"></path><path d="M393.52 680L393.52 680" stroke="hsla(135.89999999999998, 64.8%, 66.3%, 0.72)" stroke-width="1.5"></path><path d="M393.52 680L554.2 664.73" stroke="hsla(135.89999999999998, 64.8%, 66.3%, 0.72)" stroke-width="1.5"></path><path d="M393.52 680L201.37 642.17" stroke="hsla(135.89999999999998, 64.8%, 66.3%, 0.72)" stroke-width="1.5"></path><path d="M511.83 510.15L511.83 510.15" stroke="hsla(135.89999999999998, 64.8%, 66.3%, 0.72)" stroke-width="1.5"></path><path d="M511.83 510.15L648.12 533.55" stroke="hsla(135.89999999999998, 64.8%, 66.3%, 0.72)" stroke-width="1.5"></path><path d="M511.83 510.15L554.2 664.73" stroke="hsla(135.89999999999998, 64.8%, 66.3%, 0.72)" stroke-width="1.5"></path><path d="M554.2 664.73L554.2 664.73" stroke="hsla(135.89999999999998, 64.8%, 66.3%, 0.72)" stroke-width="1.5"></path><path d="M554.2 664.73L711.56 664.74" stroke="hsla(135.89999999999998, 64.8%, 66.3%, 0.72)" stroke-width="1.5"></path><path d="M554.2 664.73L648.12 533.55" stroke="hsla(135.89999999999998, 64.8%, 66.3%, 0.72)" stroke-width="1.5"></path><path d="M670.11 407.73L670.11 407.73" stroke="hsla(135.89999999999998, 64.8%, 66.3%, 0.72)" stroke-width="1.5"></path><path d="M670.11 407.73L648.12 533.55" stroke="hsla(135.89999999999998, 64.8%, 66.3%, 0.72)" stroke-width="1.5"></path><path d="M670.11 407.73L845.59 368.81" stroke="hsla(135.89999999999998, 64.8%, 66.3%, 0.72)" stroke-width="1.5"></path><path d="M648.12 533.55L648.12 533.55" stroke="hsla(135.89999999999998, 64.8%, 66.3%, 0.72)" stroke-width="1.5"></path><path d="M648.12 533.55L711.56 664.74" stroke="hsla(135.89999999999998, 64.8%, 66.3%, 0.72)" stroke-width="1.5"></path><path d="M711.56 664.74L711.56 664.74" stroke="hsla(135.89999999999998, 64.8%, 66.3%, 0.72)" stroke-width="1.5"></path><path d="M711.56 664.74L813.78 676" stroke="hsla(135.89999999999998, 64.8%, 66.3%, 0.72)" stroke-width="1.5"></path><path d="M711.56 664.74L844.1 490.87" stroke="hsla(135.89999999999998, 64.8%, 66.3%, 0.72)" stroke-width="1.5"></path><path d="M711.56 664.74L954.61 674.03" stroke="hsla(135.89999999999998, 64.8%, 66.3%, 0.72)" stroke-width="1.5"></path><path d="M711.56 664.74L511.83 510.15" stroke="hsla(135.89999999999998, 64.8%, 66.3%, 0.72)" stroke-width="1.5"></path><path d="M845.59 368.81L845.59 368.81" stroke="hsla(135.89999999999998, 64.8%, 66.3%, 0.72)" stroke-width="1.5"></path><path d="M845.59 368.81L844.1 490.87" stroke="hsla(135.89999999999998, 64.8%, 66.3%, 0.72)" stroke-width="1.5"></path><path d="M845.59 368.81L971.82 382.96" stroke="hsla(135.89999999999998, 64.8%, 66.3%, 0.72)" stroke-width="1.5"></path><path d="M845.59 368.81L959.94 548.47" stroke="hsla(135.89999999999998, 64.8%, 66.3%, 0.72)" stroke-width="1.5"></path><path d="M844.1 490.87L844.1 490.87" stroke="hsla(135.89999999999998, 64.8%, 66.3%, 0.72)" stroke-width="1.5"></path><path d="M844.1 490.87L959.94 548.47" stroke="hsla(135.89999999999998, 64.8%, 66.3%, 0.72)" stroke-width="1.5"></path><path d="M813.78 676L813.78 676" stroke="hsla(135.89999999999998, 64.8%, 66.3%, 0.72)" stroke-width="1.5"></path><path d="M813.78 676L954.61 674.03" stroke="hsla(135.89999999999998, 64.8%, 66.3%, 0.72)" stroke-width="1.5"></path><path d="M813.78 676L844.1 490.87" stroke="hsla(135.89999999999998, 64.8%, 66.3%, 0.72)" stroke-width="1.5"></path><path d="M971.82 382.96L971.82 382.96" stroke="hsla(135.89999999999998, 64.8%, 66.3%, 0.72)" stroke-width="1.5"></path><path d="M971.82 382.96L959.94 548.47" stroke="hsla(135.89999999999998, 64.8%, 66.3%, 0.72)" stroke-width="1.5"></path><path d="M959.94 548.47L959.94 548.47" stroke="hsla(135.89999999999998, 64.8%, 66.3%, 0.72)" stroke-width="1.5"></path><path d="M959.94 548.47L954.61 674.03" stroke="hsla(135.89999999999998, 64.8%, 66.3%, 0.72)" stroke-width="1.5"></path><path d="M959.94 548.47L813.78 676" stroke="hsla(135.89999999999998, 64.8%, 66.3%, 0.72)" stroke-width="1.5"></path><path d="M954.61 674.03L954.61 674.03" stroke="hsla(135.89999999999998, 64.8%, 66.3%, 0.72)" stroke-width="1.5"></path><path d="M954.61 674.03L1159.69 679.06" stroke="hsla(135.89999999999998, 64.8%, 66.3%, 0.72)" stroke-width="1.5"></path><path d="M1160.28 -95.29L1160.28 -95.29" stroke="hsla(135.89999999999998, 64.8%, 66.3%, 0.72)" stroke-width="1.5"></path><path d="M1160.28 -95.29L1310.79 -46.15" stroke="hsla(135.89999999999998, 64.8%, 66.3%, 0.72)" stroke-width="1.5"></path><path d="M1160.28 -95.29L1296.32 66.37" stroke="hsla(135.89999999999998, 64.8%, 66.3%, 0.72)" stroke-width="1.5"></path><path d="M1160.28 -95.29L1408.1 60.45" stroke="hsla(135.89999999999998, 64.8%, 66.3%, 0.72)" stroke-width="1.5"></path><path d="M1160.28 -95.29L1452.66 -57.22" stroke="hsla(135.89999999999998, 64.8%, 66.3%, 0.72)" stroke-width="1.5"></path><path d="M1160.28 -95.29L1261.1 243.69" stroke="hsla(135.89999999999998, 64.8%, 66.3%, 0.72)" stroke-width="1.5"></path><path d="M1114.72 262.39L1114.72 262.39" stroke="hsla(135.89999999999998, 64.8%, 66.3%, 0.72)" stroke-width="1.5"></path><path d="M1114.72 262.39L1261.1 243.69" stroke="hsla(135.89999999999998, 64.8%, 66.3%, 0.72)" stroke-width="1.5"></path><path d="M1114.72 262.39L971.82 382.96" stroke="hsla(135.89999999999998, 64.8%, 66.3%, 0.72)" stroke-width="1.5"></path><path d="M1152.54 499.51L1152.54 499.51" stroke="hsla(135.89999999999998, 64.8%, 66.3%, 0.72)" stroke-width="1.5"></path><path d="M1152.54 499.51L1159.69 679.06" stroke="hsla(135.89999999999998, 64.8%, 66.3%, 0.72)" stroke-width="1.5"></path><path d="M1152.54 499.51L959.94 548.47" stroke="hsla(135.89999999999998, 64.8%, 66.3%, 0.72)" stroke-width="1.5"></path><path d="M1152.54 499.51L971.82 382.96" stroke="hsla(135.89999999999998, 64.8%, 66.3%, 0.72)" stroke-width="1.5"></path><path d="M1152.54 499.51L1311.79 346.1" stroke="hsla(135.89999999999998, 64.8%, 66.3%, 0.72)" stroke-width="1.5"></path><path d="M1152.54 499.51L1241.99 710.04" stroke="hsla(135.89999999999998, 64.8%, 66.3%, 0.72)" stroke-width="1.5"></path><path d="M1152.54 499.51L1114.72 262.39" stroke="hsla(135.89999999999998, 64.8%, 66.3%, 0.72)" stroke-width="1.5"></path><path d="M1159.69 679.06L1159.69 679.06" stroke="hsla(135.89999999999998, 64.8%, 66.3%, 0.72)" stroke-width="1.5"></path><path d="M1159.69 679.06L1241.99 710.04" stroke="hsla(135.89999999999998, 64.8%, 66.3%, 0.72)" stroke-width="1.5"></path><path d="M1159.69 679.06L959.94 548.47" stroke="hsla(135.89999999999998, 64.8%, 66.3%, 0.72)" stroke-width="1.5"></path><path d="M1261.1 243.69L1261.1 243.69" stroke="hsla(135.89999999999998, 64.8%, 66.3%, 0.72)" stroke-width="1.5"></path><path d="M1261.1 243.69L1311.79 346.1" stroke="hsla(135.89999999999998, 64.8%, 66.3%, 0.72)" stroke-width="1.5"></path><path d="M1261.1 243.69L1393.96 367.96" stroke="hsla(135.89999999999998, 64.8%, 66.3%, 0.72)" stroke-width="1.5"></path><path d="M1261.1 243.69L1462.03 195.28" stroke="hsla(135.89999999999998, 64.8%, 66.3%, 0.72)" stroke-width="1.5"></path><path d="M1311.79 346.1L1311.79 346.1" stroke="hsla(135.89999999999998, 64.8%, 66.3%, 0.72)" stroke-width="1.5"></path><path d="M1311.79 346.1L1393.96 367.96" stroke="hsla(135.89999999999998, 64.8%, 66.3%, 0.72)" stroke-width="1.5"></path><path d="M1311.79 346.1L1428.32 502.71" stroke="hsla(135.89999999999998, 64.8%, 66.3%, 0.72)" stroke-width="1.5"></path><path d="M1311.79 346.1L1462.03 195.28" stroke="hsla(135.89999999999998, 64.8%, 66.3%, 0.72)" stroke-width="1.5"></path><path d="M1311.79 346.1L1114.72 262.39" stroke="hsla(135.89999999999998, 64.8%, 66.3%, 0.72)" stroke-width="1.5"></path><path d="M1241.99 710.04L1241.99 710.04" stroke="hsla(135.89999999999998, 64.8%, 66.3%, 0.72)" stroke-width="1.5"></path><path d="M1241.99 710.04L1422.72 697.34" stroke="hsla(135.89999999999998, 64.8%, 66.3%, 0.72)" stroke-width="1.5"></path><path d="M1241.99 710.04L1428.32 502.71" stroke="hsla(135.89999999999998, 64.8%, 66.3%, 0.72)" stroke-width="1.5"></path><path d="M1408.1 60.45L1408.1 60.45" stroke="hsla(135.89999999999998, 64.8%, 66.3%, 0.72)" stroke-width="1.5"></path><path d="M1408.1 60.45L1462.03 195.28" stroke="hsla(135.89999999999998, 64.8%, 66.3%, 0.72)" stroke-width="1.5"></path><path d="M1408.1 60.45L1572.63 97.33" stroke="hsla(135.89999999999998, 64.8%, 66.3%, 0.72)" stroke-width="1.5"></path><path d="M1462.03 195.28L1462.03 195.28" stroke="hsla(135.89999999999998, 64.8%, 66.3%, 0.72)" stroke-width="1.5"></path><path d="M1462.03 195.28L1556.17 262.12" stroke="hsla(135.89999999999998, 64.8%, 66.3%, 0.72)" stroke-width="1.5"></path><path d="M1462.03 195.28L1572.63 97.33" stroke="hsla(135.89999999999998, 64.8%, 66.3%, 0.72)" stroke-width="1.5"></path><path d="M1393.96 367.96L1393.96 367.96" stroke="hsla(135.89999999999998, 64.8%, 66.3%, 0.72)" stroke-width="1.5"></path><path d="M1393.96 367.96L1428.32 502.71" stroke="hsla(135.89999999999998, 64.8%, 66.3%, 0.72)" stroke-width="1.5"></path><path d="M1393.96 367.96L1462.03 195.28" stroke="hsla(135.89999999999998, 64.8%, 66.3%, 0.72)" stroke-width="1.5"></path><path d="M1428.32 502.71L1428.32 502.71" stroke="hsla(135.89999999999998, 64.8%, 66.3%, 0.72)" stroke-width="1.5"></path><path d="M1428.32 502.71L1568.89 514.49" stroke="hsla(135.89999999999998, 64.8%, 66.3%, 0.72)" stroke-width="1.5"></path><path d="M1422.72 697.34L1422.72 697.34" stroke="hsla(135.89999999999998, 64.8%, 66.3%, 0.72)" stroke-width="1.5"></path><path d="M1422.72 697.34L1595.02 680.36" stroke="hsla(135.89999999999998, 64.8%, 66.3%, 0.72)" stroke-width="1.5"></path><path d="M1422.72 697.34L1428.32 502.71" stroke="hsla(135.89999999999998, 64.8%, 66.3%, 0.72)" stroke-width="1.5"></path><path d="M1546.15 -39.35L1546.15 -39.35" stroke="hsla(135.89999999999998, 64.8%, 66.3%, 0.72)" stroke-width="1.5"></path><path d="M1546.15 -39.35L1572.63 97.33" stroke="hsla(135.89999999999998, 64.8%, 66.3%, 0.72)" stroke-width="1.5"></path><path d="M1572.63 97.33L1572.63 97.33" stroke="hsla(135.89999999999998, 64.8%, 66.3%, 0.72)" stroke-width="1.5"></path><path d="M1572.63 97.33L1556.17 262.12" stroke="hsla(135.89999999999998, 64.8%, 66.3%, 0.72)" stroke-width="1.5"></path><path d="M1572.63 97.33L1296.32 66.37" stroke="hsla(135.89999999999998, 64.8%, 66.3%, 0.72)" stroke-width="1.5"></path><path d="M1556.17 262.12L1556.17 262.12" stroke="hsla(135.89999999999998, 64.8%, 66.3%, 0.72)" stroke-width="1.5"></path><path d="M1556.17 262.12L1393.96 367.96" stroke="hsla(135.89999999999998, 64.8%, 66.3%, 0.72)" stroke-width="1.5"></path><path d="M1556.17 262.12L1408.1 60.45" stroke="hsla(135.89999999999998, 64.8%, 66.3%, 0.72)" stroke-width="1.5"></path><path d="M1556.17 262.12L1568.89 514.49" stroke="hsla(135.89999999999998, 64.8%, 66.3%, 0.72)" stroke-width="1.5"></path><path d="M1568.89 514.49L1568.89 514.49" stroke="hsla(135.89999999999998, 64.8%, 66.3%, 0.72)" stroke-width="1.5"></path><path d="M1595.02 680.36L1595.02 680.36" stroke="hsla(135.89999999999998, 64.8%, 66.3%, 0.72)" stroke-width="1.5"></path><path d="M1595.02 680.36L1568.89 514.49" stroke="hsla(135.89999999999998, 64.8%, 66.3%, 0.72)" stroke-width="1.5"></path><path d="M1595.02 680.36L1428.32 502.71" stroke="hsla(135.89999999999998, 64.8%, 66.3%, 0.72)" stroke-width="1.5"></path><path d="M1595.02 680.36L1607.59 384.25" stroke="hsla(135.89999999999998, 64.8%, 66.3%, 0.72)" stroke-width="1.5"></path><path d="M1595.02 680.36L1241.99 710.04" stroke="hsla(135.89999999999998, 64.8%, 66.3%, 0.72)" stroke-width="1.5"></path><path d="M1595.02 680.36L1393.96 367.96" stroke="hsla(135.89999999999998, 64.8%, 66.3%, 0.72)" stroke-width="1.5"></path><circle r="25" cx="-107.87" cy="536.42" fill="url(#SvgjsRadialGradient1091)"></circle><circle r="25" cx="64.02" cy="703.68" fill="url(#SvgjsRadialGradient1091)"></circle><circle r="25" cx="1310.79" cy="-46.15" fill="url(#SvgjsRadialGradient1091)"></circle><circle r="25" cx="1296.32" cy="66.37" fill="url(#SvgjsRadialGradient1091)"></circle><circle r="25" cx="1452.66" cy="-57.22" fill="url(#SvgjsRadialGradient1091)"></circle><circle r="25" cx="1607.59" cy="384.25" fill="url(#SvgjsRadialGradient1091)"></circle><circle r="5" cx="-45.96" cy="649.19" fill="rgba(181, 239, 196, 0.86)"></circle><circle r="5" cx="61.54" cy="489.25" fill="rgba(181, 239, 196, 0.86)"></circle><circle r="5" cx="242.87" cy="531.43" fill="rgba(181, 239, 196, 0.86)"></circle><circle r="5" cx="201.37" cy="642.17" fill="rgba(181, 239, 196, 0.86)"></circle><circle r="5" cx="348.05" cy="518.59" fill="rgba(181, 239, 196, 0.86)"></circle><circle r="5" cx="393.52" cy="680" fill="rgba(181, 239, 196, 0.86)"></circle><circle r="5" cx="511.83" cy="510.15" fill="rgba(181, 239, 196, 0.86)"></circle><circle r="5" cx="554.2" cy="664.73" fill="rgba(181, 239, 196, 0.86)"></circle><circle r="5" cx="670.11" cy="407.73" fill="rgba(181, 239, 196, 0.86)"></circle><circle r="5" cx="648.12" cy="533.55" fill="rgba(181, 239, 196, 0.86)"></circle><circle r="5" cx="711.56" cy="664.74" fill="rgba(181, 239, 196, 0.86)"></circle><circle r="5" cx="845.59" cy="368.81" fill="rgba(181, 239, 196, 0.86)"></circle><circle r="5" cx="844.1" cy="490.87" fill="rgba(181, 239, 196, 0.86)"></circle><circle r="5" cx="813.78" cy="676" fill="rgba(181, 239, 196, 0.86)"></circle><circle r="5" cx="971.82" cy="382.96" fill="rgba(181, 239, 196, 0.86)"></circle><circle r="5" cx="959.94" cy="548.47" fill="rgba(181, 239, 196, 0.86)"></circle><circle r="5" cx="954.61" cy="674.03" fill="rgba(181, 239, 196, 0.86)"></circle><circle r="5" cx="1160.28" cy="-95.29" fill="rgba(181, 239, 196, 0.86)"></circle><circle r="5" cx="1114.72" cy="262.39" fill="rgba(181, 239, 196, 0.86)"></circle><circle r="5" cx="1152.54" cy="499.51" fill="rgba(181, 239, 196, 0.86)"></circle><circle r="5" cx="1159.69" cy="679.06" fill="rgba(181, 239, 196, 0.86)"></circle><circle r="5" cx="1261.1" cy="243.69" fill="rgba(181, 239, 196, 0.86)"></circle><circle r="5" cx="1311.79" cy="346.1" fill="rgba(181, 239, 196, 0.86)"></circle><circle r="5" cx="1241.99" cy="710.04" fill="rgba(181, 239, 196, 0.86)"></circle><circle r="5" cx="1408.1" cy="60.45" fill="rgba(181, 239, 196, 0.86)"></circle><circle r="5" cx="1462.03" cy="195.28" fill="rgba(181, 239, 196, 0.86)"></circle><circle r="5" cx="1393.96" cy="367.96" fill="rgba(181, 239, 196, 0.86)"></circle><circle r="5" cx="1428.32" cy="502.71" fill="rgba(181, 239, 196, 0.86)"></circle><circle r="5" cx="1422.72" cy="697.34" fill="rgba(181, 239, 196, 0.86)"></circle><circle r="5" cx="1546.15" cy="-39.35" fill="rgba(181, 239, 196, 0.86)"></circle><circle r="5" cx="1572.63" cy="97.33" fill="rgba(181, 239, 196, 0.86)"></circle><circle r="5" cx="1556.17" cy="262.12" fill="rgba(181, 239, 196, 0.86)"></circle><circle r="5" cx="1568.89" cy="514.49" fill="rgba(181, 239, 196, 0.86)"></circle><circle r="5" cx="1595.02" cy="680.36" fill="rgba(181, 239, 196, 0.86)"></circle></g><defs><mask id="SvgjsMask1090"><rect width="1440" height="560" fill="#ffffff"></rect></mask><radialGradient id="SvgjsRadialGradient1091"><stop stop-color="#ffffff" offset="0.1"></stop><stop stop-color="rgba(49, 211, 92, 0.72)" offset="0.2"></stop><stop stop-color="rgba(49, 211, 92, 0)" offset="1"></stop></radialGradient></defs></svg>