<svg xmlns="http://www.w3.org/2000/svg" version="1.1" xmlns:xlink="http://www.w3.org/1999/xlink" xmlns:svgjs="http://svgjs.com/svgjs" width="1440" height="560" preserveAspectRatio="none" viewBox="0 0 1440 560"><g mask="url(&quot;#SvgjsMask1006&quot;)" fill="none"><rect width="1440" height="560" x="0" y="0" fill="rgba(255, 255, 255, 1)"></rect><path d="M-52.73 389.12L-52.73 389.12" stroke="rgba(214, 214, 214, 1)" stroke-width="1.5"></path><path d="M-52.73 389.12L76.04 381.58" stroke="rgba(214, 214, 214, 1)" stroke-width="1.5"></path><path d="M-52.73 389.12L93.81 501.84" stroke="rgba(214, 214, 214, 1)" stroke-width="1.5"></path><path d="M-52.73 389.12L76.17 661.59" stroke="rgba(214, 214, 214, 1)" stroke-width="1.5"></path><path d="M-52.73 389.12L-53.03 704.11" stroke="rgba(214, 214, 214, 1)" stroke-width="1.5"></path><path d="M-52.73 389.12L252.53 652.28" stroke="rgba(214, 214, 214, 1)" stroke-width="1.5"></path><path d="M-53.03 704.11L-53.03 704.11" stroke="rgba(214, 214, 214, 1)" stroke-width="1.5"></path><path d="M-53.03 704.11L76.17 661.59" stroke="rgba(214, 214, 214, 1)" stroke-width="1.5"></path><path d="M-53.03 704.11L93.81 501.84" stroke="rgba(214, 214, 214, 1)" stroke-width="1.5"></path><path d="M-53.03 704.11L252.53 652.28" stroke="rgba(214, 214, 214, 1)" stroke-width="1.5"></path><path d="M76.04 381.58L76.04 381.58" stroke="rgba(214, 214, 214, 1)" stroke-width="1.5"></path><path d="M76.04 381.58L93.81 501.84" stroke="rgba(214, 214, 214, 1)" stroke-width="1.5"></path><path d="M93.81 501.84L93.81 501.84" stroke="rgba(214, 214, 214, 1)" stroke-width="1.5"></path><path d="M93.81 501.84L76.17 661.59" stroke="rgba(214, 214, 214, 1)" stroke-width="1.5"></path><path d="M76.17 661.59L76.17 661.59" stroke="rgba(214, 214, 214, 1)" stroke-width="1.5"></path><path d="M76.17 661.59L252.53 652.28" stroke="rgba(214, 214, 214, 1)" stroke-width="1.5"></path><path d="M252.53 652.28L252.53 652.28" stroke="rgba(214, 214, 214, 1)" stroke-width="1.5"></path><path d="M252.53 652.28L399.68 643.79" stroke="rgba(214, 214, 214, 1)" stroke-width="1.5"></path><path d="M400.96 359.16L400.96 359.16" stroke="rgba(214, 214, 214, 1)" stroke-width="1.5"></path><path d="M400.96 359.16L506.68 408.76" stroke="rgba(214, 214, 214, 1)" stroke-width="1.5"></path><path d="M400.96 359.16L394.03 543.79" stroke="rgba(214, 214, 214, 1)" stroke-width="1.5"></path><path d="M400.96 359.16L510.01 537.75" stroke="rgba(214, 214, 214, 1)" stroke-width="1.5"></path><path d="M400.96 359.16L654.46 388.42" stroke="rgba(214, 214, 214, 1)" stroke-width="1.5"></path><path d="M400.96 359.16L399.68 643.79" stroke="rgba(214, 214, 214, 1)" stroke-width="1.5"></path><path d="M394.03 543.79L394.03 543.79" stroke="rgba(214, 214, 214, 1)" stroke-width="1.5"></path><path d="M394.03 543.79L399.68 643.79" stroke="rgba(214, 214, 214, 1)" stroke-width="1.5"></path><path d="M394.03 543.79L510.01 537.75" stroke="rgba(214, 214, 214, 1)" stroke-width="1.5"></path><path d="M394.03 543.79L506.68 408.76" stroke="rgba(214, 214, 214, 1)" stroke-width="1.5"></path><path d="M394.03 543.79L252.53 652.28" stroke="rgba(214, 214, 214, 1)" stroke-width="1.5"></path><path d="M399.68 643.79L399.68 643.79" stroke="rgba(214, 214, 214, 1)" stroke-width="1.5"></path><path d="M399.68 643.79L528.37 700.12" stroke="rgba(214, 214, 214, 1)" stroke-width="1.5"></path><path d="M399.68 643.79L510.01 537.75" stroke="rgba(214, 214, 214, 1)" stroke-width="1.5"></path><path d="M399.68 643.79L506.68 408.76" stroke="rgba(214, 214, 214, 1)" stroke-width="1.5"></path><path d="M506.68 408.76L506.68 408.76" stroke="rgba(214, 214, 214, 1)" stroke-width="1.5"></path><path d="M506.68 408.76L510.01 537.75" stroke="rgba(214, 214, 214, 1)" stroke-width="1.5"></path><path d="M506.68 408.76L654.46 388.42" stroke="rgba(214, 214, 214, 1)" stroke-width="1.5"></path><path d="M510.01 537.75L510.01 537.75" stroke="rgba(214, 214, 214, 1)" stroke-width="1.5"></path><path d="M510.01 537.75L528.37 700.12" stroke="rgba(214, 214, 214, 1)" stroke-width="1.5"></path><path d="M528.37 700.12L528.37 700.12" stroke="rgba(214, 214, 214, 1)" stroke-width="1.5"></path><path d="M528.37 700.12L690.86 668.58" stroke="rgba(214, 214, 214, 1)" stroke-width="1.5"></path><path d="M528.37 700.12L394.03 543.79" stroke="rgba(214, 214, 214, 1)" stroke-width="1.5"></path><path d="M528.37 700.12L711.88 536.19" stroke="rgba(214, 214, 214, 1)" stroke-width="1.5"></path><path d="M654.46 388.42L654.46 388.42" stroke="rgba(214, 214, 214, 1)" stroke-width="1.5"></path><path d="M654.46 388.42L805.09 402.46" stroke="rgba(214, 214, 214, 1)" stroke-width="1.5"></path><path d="M654.46 388.42L711.88 536.19" stroke="rgba(214, 214, 214, 1)" stroke-width="1.5"></path><path d="M654.46 388.42L510.01 537.75" stroke="rgba(214, 214, 214, 1)" stroke-width="1.5"></path><path d="M711.88 536.19L711.88 536.19" stroke="rgba(214, 214, 214, 1)" stroke-width="1.5"></path><path d="M711.88 536.19L832.7 515.52" stroke="rgba(214, 214, 214, 1)" stroke-width="1.5"></path><path d="M711.88 536.19L690.86 668.58" stroke="rgba(214, 214, 214, 1)" stroke-width="1.5"></path><path d="M690.86 668.58L690.86 668.58" stroke="rgba(214, 214, 214, 1)" stroke-width="1.5"></path><path d="M690.86 668.58L832.7 515.52" stroke="rgba(214, 214, 214, 1)" stroke-width="1.5"></path><path d="M690.86 668.58L510.01 537.75" stroke="rgba(214, 214, 214, 1)" stroke-width="1.5"></path><path d="M690.86 668.58L654.46 388.42" stroke="rgba(214, 214, 214, 1)" stroke-width="1.5"></path><path d="M690.86 668.58L805.09 402.46" stroke="rgba(214, 214, 214, 1)" stroke-width="1.5"></path><path d="M829.78 226.99L829.78 226.99" stroke="rgba(214, 214, 214, 1)" stroke-width="1.5"></path><path d="M829.78 226.99L979.08 248.02" stroke="rgba(214, 214, 214, 1)" stroke-width="1.5"></path><path d="M805.09 402.46L805.09 402.46" stroke="rgba(214, 214, 214, 1)" stroke-width="1.5"></path><path d="M805.09 402.46L832.7 515.52" stroke="rgba(214, 214, 214, 1)" stroke-width="1.5"></path><path d="M832.7 515.52L832.7 515.52" stroke="rgba(214, 214, 214, 1)" stroke-width="1.5"></path><path d="M832.7 515.52L986.78 552.45" stroke="rgba(214, 214, 214, 1)" stroke-width="1.5"></path><path d="M832.7 515.52L654.46 388.42" stroke="rgba(214, 214, 214, 1)" stroke-width="1.5"></path><path d="M1000 -67.47L1000 -67.47" stroke="rgba(214, 214, 214, 1)" stroke-width="1.5"></path><path d="M1000 -67.47L1113.01 -104.93" stroke="rgba(214, 214, 214, 1)" stroke-width="1.5"></path><path d="M1000 -67.47L981.03 96.16" stroke="rgba(214, 214, 214, 1)" stroke-width="1.5"></path><path d="M1000 -67.47L1153.34 98.01" stroke="rgba(214, 214, 214, 1)" stroke-width="1.5"></path><path d="M1000 -67.47L979.08 248.02" stroke="rgba(214, 214, 214, 1)" stroke-width="1.5"></path><path d="M981.03 96.16L981.03 96.16" stroke="rgba(214, 214, 214, 1)" stroke-width="1.5"></path><path d="M981.03 96.16L979.08 248.02" stroke="rgba(214, 214, 214, 1)" stroke-width="1.5"></path><path d="M979.08 248.02L979.08 248.02" stroke="rgba(214, 214, 214, 1)" stroke-width="1.5"></path><path d="M979.08 248.02L967.63 340.91" stroke="rgba(214, 214, 214, 1)" stroke-width="1.5"></path><path d="M979.08 248.02L1106.98 245.28" stroke="rgba(214, 214, 214, 1)" stroke-width="1.5"></path><path d="M979.08 248.02L1137.98 389.88" stroke="rgba(214, 214, 214, 1)" stroke-width="1.5"></path><path d="M967.63 340.91L967.63 340.91" stroke="rgba(214, 214, 214, 1)" stroke-width="1.5"></path><path d="M967.63 340.91L1106.98 245.28" stroke="rgba(214, 214, 214, 1)" stroke-width="1.5"></path><path d="M967.63 340.91L805.09 402.46" stroke="rgba(214, 214, 214, 1)" stroke-width="1.5"></path><path d="M967.63 340.91L1137.98 389.88" stroke="rgba(214, 214, 214, 1)" stroke-width="1.5"></path><path d="M967.63 340.91L829.78 226.99" stroke="rgba(214, 214, 214, 1)" stroke-width="1.5"></path><path d="M967.63 340.91L986.78 552.45" stroke="rgba(214, 214, 214, 1)" stroke-width="1.5"></path><path d="M986.78 552.45L986.78 552.45" stroke="rgba(214, 214, 214, 1)" stroke-width="1.5"></path><path d="M986.78 552.45L1011.39 648.03" stroke="rgba(214, 214, 214, 1)" stroke-width="1.5"></path><path d="M986.78 552.45L1113.68 561.19" stroke="rgba(214, 214, 214, 1)" stroke-width="1.5"></path><path d="M1011.39 648.03L1011.39 648.03" stroke="rgba(214, 214, 214, 1)" stroke-width="1.5"></path><path d="M1011.39 648.03L1113.68 561.19" stroke="rgba(214, 214, 214, 1)" stroke-width="1.5"></path><path d="M1011.39 648.03L1147.31 679.14" stroke="rgba(214, 214, 214, 1)" stroke-width="1.5"></path><path d="M1011.39 648.03L832.7 515.52" stroke="rgba(214, 214, 214, 1)" stroke-width="1.5"></path><path d="M1011.39 648.03L1137.98 389.88" stroke="rgba(214, 214, 214, 1)" stroke-width="1.5"></path><path d="M1113.01 -104.93L1113.01 -104.93" stroke="rgba(214, 214, 214, 1)" stroke-width="1.5"></path><path d="M1113.01 -104.93L1153.34 98.01" stroke="rgba(214, 214, 214, 1)" stroke-width="1.5"></path><path d="M1113.01 -104.93L981.03 96.16" stroke="rgba(214, 214, 214, 1)" stroke-width="1.5"></path><path d="M1113.01 -104.93L1430.77 -108.07" stroke="rgba(214, 214, 214, 1)" stroke-width="1.5"></path><path d="M1113.01 -104.93L1414.46 68.28" stroke="rgba(214, 214, 214, 1)" stroke-width="1.5"></path><path d="M1153.34 98.01L1153.34 98.01" stroke="rgba(214, 214, 214, 1)" stroke-width="1.5"></path><path d="M1153.34 98.01L1106.98 245.28" stroke="rgba(214, 214, 214, 1)" stroke-width="1.5"></path><path d="M1153.34 98.01L981.03 96.16" stroke="rgba(214, 214, 214, 1)" stroke-width="1.5"></path><path d="M1153.34 98.01L1239.6 253.13" stroke="rgba(214, 214, 214, 1)" stroke-width="1.5"></path><path d="M1106.98 245.28L1106.98 245.28" stroke="rgba(214, 214, 214, 1)" stroke-width="1.5"></path><path d="M1106.98 245.28L1239.6 253.13" stroke="rgba(214, 214, 214, 1)" stroke-width="1.5"></path><path d="M1106.98 245.28L1137.98 389.88" stroke="rgba(214, 214, 214, 1)" stroke-width="1.5"></path><path d="M1137.98 389.88L1137.98 389.88" stroke="rgba(214, 214, 214, 1)" stroke-width="1.5"></path><path d="M1137.98 389.88L1275.29 385.28" stroke="rgba(214, 214, 214, 1)" stroke-width="1.5"></path><path d="M1137.98 389.88L1239.6 253.13" stroke="rgba(214, 214, 214, 1)" stroke-width="1.5"></path><path d="M1137.98 389.88L1113.68 561.19" stroke="rgba(214, 214, 214, 1)" stroke-width="1.5"></path><path d="M1137.98 389.88L1281.32 532.26" stroke="rgba(214, 214, 214, 1)" stroke-width="1.5"></path><path d="M1113.68 561.19L1113.68 561.19" stroke="rgba(214, 214, 214, 1)" stroke-width="1.5"></path><path d="M1113.68 561.19L1147.31 679.14" stroke="rgba(214, 214, 214, 1)" stroke-width="1.5"></path><path d="M1147.31 679.14L1147.31 679.14" stroke="rgba(214, 214, 214, 1)" stroke-width="1.5"></path><path d="M1239.6 253.13L1239.6 253.13" stroke="rgba(214, 214, 214, 1)" stroke-width="1.5"></path><path d="M1239.6 253.13L1275.29 385.28" stroke="rgba(214, 214, 214, 1)" stroke-width="1.5"></path><path d="M1239.6 253.13L1387.98 213.76" stroke="rgba(214, 214, 214, 1)" stroke-width="1.5"></path><path d="M1239.6 253.13L1433.55 352.59" stroke="rgba(214, 214, 214, 1)" stroke-width="1.5"></path><path d="M1275.29 385.28L1275.29 385.28" stroke="rgba(214, 214, 214, 1)" stroke-width="1.5"></path><path d="M1275.29 385.28L1281.32 532.26" stroke="rgba(214, 214, 214, 1)" stroke-width="1.5"></path><path d="M1281.32 532.26L1281.32 532.26" stroke="rgba(214, 214, 214, 1)" stroke-width="1.5"></path><path d="M1281.32 532.26L1445.55 529.19" stroke="rgba(214, 214, 214, 1)" stroke-width="1.5"></path><path d="M1281.32 532.26L1113.68 561.19" stroke="rgba(214, 214, 214, 1)" stroke-width="1.5"></path><path d="M1281.32 532.26L1147.31 679.14" stroke="rgba(214, 214, 214, 1)" stroke-width="1.5"></path><path d="M1281.32 532.26L1433.55 352.59" stroke="rgba(214, 214, 214, 1)" stroke-width="1.5"></path><path d="M1430.77 -108.07L1430.77 -108.07" stroke="rgba(214, 214, 214, 1)" stroke-width="1.5"></path><path d="M1430.77 -108.07L1566.86 -37.8" stroke="rgba(214, 214, 214, 1)" stroke-width="1.5"></path><path d="M1430.77 -108.07L1414.46 68.28" stroke="rgba(214, 214, 214, 1)" stroke-width="1.5"></path><path d="M1414.46 68.28L1414.46 68.28" stroke="rgba(214, 214, 214, 1)" stroke-width="1.5"></path><path d="M1414.46 68.28L1387.98 213.76" stroke="rgba(214, 214, 214, 1)" stroke-width="1.5"></path><path d="M1387.98 213.76L1387.98 213.76" stroke="rgba(214, 214, 214, 1)" stroke-width="1.5"></path><path d="M1387.98 213.76L1433.55 352.59" stroke="rgba(214, 214, 214, 1)" stroke-width="1.5"></path><path d="M1387.98 213.76L1539.95 210.83" stroke="rgba(214, 214, 214, 1)" stroke-width="1.5"></path><path d="M1433.55 352.59L1433.55 352.59" stroke="rgba(214, 214, 214, 1)" stroke-width="1.5"></path><path d="M1433.55 352.59L1275.29 385.28" stroke="rgba(214, 214, 214, 1)" stroke-width="1.5"></path><path d="M1445.55 529.19L1445.55 529.19" stroke="rgba(214, 214, 214, 1)" stroke-width="1.5"></path><path d="M1445.55 529.19L1584.46 548.8" stroke="rgba(214, 214, 214, 1)" stroke-width="1.5"></path><path d="M1445.55 529.19L1442.33 704.48" stroke="rgba(214, 214, 214, 1)" stroke-width="1.5"></path><path d="M1445.55 529.19L1433.55 352.59" stroke="rgba(214, 214, 214, 1)" stroke-width="1.5"></path><path d="M1445.55 529.19L1539.29 688.06" stroke="rgba(214, 214, 214, 1)" stroke-width="1.5"></path><path d="M1442.33 704.48L1442.33 704.48" stroke="rgba(214, 214, 214, 1)" stroke-width="1.5"></path><path d="M1442.33 704.48L1539.29 688.06" stroke="rgba(214, 214, 214, 1)" stroke-width="1.5"></path><path d="M1442.33 704.48L1584.46 548.8" stroke="rgba(214, 214, 214, 1)" stroke-width="1.5"></path><path d="M1442.33 704.48L1281.32 532.26" stroke="rgba(214, 214, 214, 1)" stroke-width="1.5"></path><path d="M1566.86 -37.8L1566.86 -37.8" stroke="rgba(214, 214, 214, 1)" stroke-width="1.5"></path><path d="M1566.86 -37.8L1604.23 49.36" stroke="rgba(214, 214, 214, 1)" stroke-width="1.5"></path><path d="M1566.86 -37.8L1414.46 68.28" stroke="rgba(214, 214, 214, 1)" stroke-width="1.5"></path><path d="M1566.86 -37.8L1539.95 210.83" stroke="rgba(214, 214, 214, 1)" stroke-width="1.5"></path><path d="M1604.23 49.36L1604.23 49.36" stroke="rgba(214, 214, 214, 1)" stroke-width="1.5"></path><path d="M1604.23 49.36L1539.95 210.83" stroke="rgba(214, 214, 214, 1)" stroke-width="1.5"></path><path d="M1604.23 49.36L1414.46 68.28" stroke="rgba(214, 214, 214, 1)" stroke-width="1.5"></path><path d="M1539.95 210.83L1539.95 210.83" stroke="rgba(214, 214, 214, 1)" stroke-width="1.5"></path><path d="M1539.95 210.83L1433.55 352.59" stroke="rgba(214, 214, 214, 1)" stroke-width="1.5"></path><path d="M1539.95 210.83L1414.46 68.28" stroke="rgba(214, 214, 214, 1)" stroke-width="1.5"></path><path d="M1584.46 548.8L1584.46 548.8" stroke="rgba(214, 214, 214, 1)" stroke-width="1.5"></path><path d="M1584.46 548.8L1539.29 688.06" stroke="rgba(214, 214, 214, 1)" stroke-width="1.5"></path><path d="M1539.29 688.06L1539.29 688.06" stroke="rgba(214, 214, 214, 1)" stroke-width="1.5"></path><circle r="5" cx="-52.73" cy="389.12" fill="rgba(214, 214, 214, 1)"></circle><circle r="5" cx="-53.03" cy="704.11" fill="rgba(214, 214, 214, 1)"></circle><circle r="5" cx="76.04" cy="381.58" fill="rgba(214, 214, 214, 1)"></circle><circle r="5" cx="93.81" cy="501.84" fill="rgba(214, 214, 214, 1)"></circle><circle r="5" cx="76.17" cy="661.59" fill="rgba(214, 214, 214, 1)"></circle><circle r="5" cx="252.53" cy="652.28" fill="rgba(214, 214, 214, 1)"></circle><circle r="5" cx="400.96" cy="359.16" fill="rgba(214, 214, 214, 1)"></circle><circle r="5" cx="394.03" cy="543.79" fill="rgba(214, 214, 214, 1)"></circle><circle r="5" cx="399.68" cy="643.79" fill="rgba(214, 214, 214, 1)"></circle><circle r="5" cx="506.68" cy="408.76" fill="rgba(214, 214, 214, 1)"></circle><circle r="5" cx="510.01" cy="537.75" fill="rgba(214, 214, 214, 1)"></circle><circle r="5" cx="528.37" cy="700.12" fill="rgba(214, 214, 214, 1)"></circle><circle r="5" cx="654.46" cy="388.42" fill="rgba(214, 214, 214, 1)"></circle><circle r="5" cx="711.88" cy="536.19" fill="rgba(214, 214, 214, 1)"></circle><circle r="5" cx="690.86" cy="668.58" fill="rgba(214, 214, 214, 1)"></circle><circle r="5" cx="829.78" cy="226.99" fill="rgba(214, 214, 214, 1)"></circle><circle r="5" cx="805.09" cy="402.46" fill="rgba(214, 214, 214, 1)"></circle><circle r="5" cx="832.7" cy="515.52" fill="rgba(214, 214, 214, 1)"></circle><circle r="5" cx="1000" cy="-67.47" fill="rgba(214, 214, 214, 1)"></circle><circle r="5" cx="981.03" cy="96.16" fill="rgba(214, 214, 214, 1)"></circle><circle r="5" cx="979.08" cy="248.02" fill="rgba(214, 214, 214, 1)"></circle><circle r="5" cx="967.63" cy="340.91" fill="rgba(214, 214, 214, 1)"></circle><circle r="5" cx="986.78" cy="552.45" fill="rgba(214, 214, 214, 1)"></circle><circle r="5" cx="1011.39" cy="648.03" fill="rgba(214, 214, 214, 1)"></circle><circle r="5" cx="1113.01" cy="-104.93" fill="rgba(214, 214, 214, 1)"></circle><circle r="5" cx="1153.34" cy="98.01" fill="rgba(214, 214, 214, 1)"></circle><circle r="5" cx="1106.98" cy="245.28" fill="rgba(214, 214, 214, 1)"></circle><circle r="5" cx="1137.98" cy="389.88" fill="rgba(214, 214, 214, 1)"></circle><circle r="5" cx="1113.68" cy="561.19" fill="rgba(214, 214, 214, 1)"></circle><circle r="5" cx="1147.31" cy="679.14" fill="rgba(214, 214, 214, 1)"></circle><circle r="5" cx="1239.6" cy="253.13" fill="rgba(214, 214, 214, 1)"></circle><circle r="5" cx="1275.29" cy="385.28" fill="rgba(214, 214, 214, 1)"></circle><circle r="5" cx="1281.32" cy="532.26" fill="rgba(214, 214, 214, 1)"></circle><circle r="5" cx="1430.77" cy="-108.07" fill="rgba(214, 214, 214, 1)"></circle><circle r="5" cx="1414.46" cy="68.28" fill="rgba(214, 214, 214, 1)"></circle><circle r="5" cx="1387.98" cy="213.76" fill="rgba(214, 214, 214, 1)"></circle><circle r="5" cx="1433.55" cy="352.59" fill="rgba(214, 214, 214, 1)"></circle><circle r="5" cx="1445.55" cy="529.19" fill="rgba(214, 214, 214, 1)"></circle><circle r="5" cx="1442.33" cy="704.48" fill="rgba(214, 214, 214, 1)"></circle><circle r="5" cx="1566.86" cy="-37.8" fill="rgba(214, 214, 214, 1)"></circle><circle r="5" cx="1604.23" cy="49.36" fill="rgba(214, 214, 214, 1)"></circle><circle r="5" cx="1539.95" cy="210.83" fill="rgba(214, 214, 214, 1)"></circle><circle r="5" cx="1584.46" cy="548.8" fill="rgba(214, 214, 214, 1)"></circle><circle r="5" cx="1539.29" cy="688.06" fill="rgba(214, 214, 214, 1)"></circle><path d="M397.62 709.33L397.62 709.33" stroke="hsl(0, 0%, 87.7%)" stroke-width="1.5"></path><path d="M397.62 709.33L554.31 645.21" stroke="hsl(0, 0%, 87.7%)" stroke-width="1.5"></path><path d="M397.62 709.33L394.52 530.32" stroke="hsl(0, 0%, 87.7%)" stroke-width="1.5"></path><path d="M397.62 709.33L222.37 644.07" stroke="hsl(0, 0%, 87.7%)" stroke-width="1.5"></path><path d="M397.62 709.33L499.02 489.87" stroke="hsl(0, 0%, 87.7%)" stroke-width="1.5"></path><path d="M397.62 709.33L648.68 650.95" stroke="hsl(0, 0%, 87.7%)" stroke-width="1.5"></path><path d="M397.62 709.33L203.92 528.67" stroke="hsl(0, 0%, 87.7%)" stroke-width="1.5"></path><path d="M850.32 662.55L850.32 662.55" stroke="hsl(0, 0%, 87.7%)" stroke-width="1.5"></path><path d="M850.32 662.55L825.08 495.11" stroke="hsl(0, 0%, 87.7%)" stroke-width="1.5"></path><path d="M850.32 662.55L978.81 549.76" stroke="hsl(0, 0%, 87.7%)" stroke-width="1.5"></path><path d="M850.32 662.55L648.68 650.95" stroke="hsl(0, 0%, 87.7%)" stroke-width="1.5"></path><path d="M850.32 662.55L652.15 528.25" stroke="hsl(0, 0%, 87.7%)" stroke-width="1.5"></path><path d="M1145.57 499.5L1145.57 499.5" stroke="hsl(0, 0%, 87.7%)" stroke-width="1.5"></path><path d="M1145.57 499.5L1261.71 489.47" stroke="hsl(0, 0%, 87.7%)" stroke-width="1.5"></path><path d="M1261.71 489.47L1261.71 489.47" stroke="hsl(0, 0%, 87.7%)" stroke-width="1.5"></path><path d="M1261.71 489.47L1238.56 371.3" stroke="hsl(0, 0%, 87.7%)" stroke-width="1.5"></path><path d="M1261.71 489.47L1393.87 541.12" stroke="hsl(0, 0%, 87.7%)" stroke-width="1.5"></path><path d="M1261.71 489.47L1304.82 638.94" stroke="hsl(0, 0%, 87.7%)" stroke-width="1.5"></path><path d="M1417.87 250L1417.87 250" stroke="hsl(0, 0%, 87.7%)" stroke-width="1.5"></path><path d="M1417.87 250L1445.26 362.12" stroke="hsl(0, 0%, 87.7%)" stroke-width="1.5"></path><path d="M1417.87 250L1277.91 256.71" stroke="hsl(0, 0%, 87.7%)" stroke-width="1.5"></path><path d="M1417.87 250L1458 76.82" stroke="hsl(0, 0%, 87.7%)" stroke-width="1.5"></path><path d="M1417.87 250L1601.71 210.96" stroke="hsl(0, 0%, 87.7%)" stroke-width="1.5"></path><path d="M1445.26 362.12L1445.26 362.12" stroke="hsl(0, 0%, 87.7%)" stroke-width="1.5"></path><path d="M1445.26 362.12L1548.41 497.43" stroke="hsl(0, 0%, 87.7%)" stroke-width="1.5"></path><path d="M1445.26 362.12L1393.87 541.12" stroke="hsl(0, 0%, 87.7%)" stroke-width="1.5"></path><path d="M1445.26 362.12L1277.91 256.71" stroke="hsl(0, 0%, 87.7%)" stroke-width="1.5"></path><path d="M1445.26 362.12L1238.56 371.3" stroke="hsl(0, 0%, 87.7%)" stroke-width="1.5"></path><path d="M1418.54 670.57L1418.54 670.57" stroke="hsl(0, 0%, 87.7%)" stroke-width="1.5"></path><path d="M1418.54 670.57L1304.82 638.94" stroke="hsl(0, 0%, 87.7%)" stroke-width="1.5"></path><path d="M1418.54 670.57L1393.87 541.12" stroke="hsl(0, 0%, 87.7%)" stroke-width="1.5"></path><path d="M1418.54 670.57L1560.53 642.88" stroke="hsl(0, 0%, 87.7%)" stroke-width="1.5"></path><path d="M1418.54 670.57L1548.41 497.43" stroke="hsl(0, 0%, 87.7%)" stroke-width="1.5"></path><path d="M1418.54 670.57L1261.71 489.47" stroke="hsl(0, 0%, 87.7%)" stroke-width="1.5"></path><path d="M1548.41 497.43L1548.41 497.43" stroke="hsl(0, 0%, 87.7%)" stroke-width="1.5"></path><path d="M1548.41 497.43L1560.53 642.88" stroke="hsl(0, 0%, 87.7%)" stroke-width="1.5"></path><path d="M1548.41 497.43L1393.87 541.12" stroke="hsl(0, 0%, 87.7%)" stroke-width="1.5"></path><path d="M1548.41 497.43L1417.87 250" stroke="hsl(0, 0%, 87.7%)" stroke-width="1.5"></path><path d="M-76.15 515.4L-76.15 515.4" stroke="hsl(0, 0%, 87.7%)" stroke-width="1.5"></path><path d="M-76.15 515.4L74.89 558.24" stroke="hsl(0, 0%, 87.7%)" stroke-width="1.5"></path><path d="M-76.15 515.4L-112.03 712.45" stroke="hsl(0, 0%, 87.7%)" stroke-width="1.5"></path><path d="M-76.15 515.4L107.38 672.32" stroke="hsl(0, 0%, 87.7%)" stroke-width="1.5"></path><path d="M-112.03 712.45L-112.03 712.45" stroke="hsl(0, 0%, 87.7%)" stroke-width="1.5"></path><path d="M-112.03 712.45L107.38 672.32" stroke="hsl(0, 0%, 87.7%)" stroke-width="1.5"></path><path d="M-112.03 712.45L74.89 558.24" stroke="hsl(0, 0%, 87.7%)" stroke-width="1.5"></path><path d="M-112.03 712.45L222.37 644.07" stroke="hsl(0, 0%, 87.7%)" stroke-width="1.5"></path><path d="M-112.03 712.45L203.92 528.67" stroke="hsl(0, 0%, 87.7%)" stroke-width="1.5"></path><path d="M-112.03 712.45L397.62 709.33" stroke="hsl(0, 0%, 87.7%)" stroke-width="1.5"></path><path d="M74.89 558.24L74.89 558.24" stroke="hsl(0, 0%, 87.7%)" stroke-width="1.5"></path><path d="M74.89 558.24L107.38 672.32" stroke="hsl(0, 0%, 87.7%)" stroke-width="1.5"></path><path d="M74.89 558.24L203.92 528.67" stroke="hsl(0, 0%, 87.7%)" stroke-width="1.5"></path><path d="M107.38 672.32L107.38 672.32" stroke="hsl(0, 0%, 87.7%)" stroke-width="1.5"></path><path d="M107.38 672.32L222.37 644.07" stroke="hsl(0, 0%, 87.7%)" stroke-width="1.5"></path><path d="M107.38 672.32L203.92 528.67" stroke="hsl(0, 0%, 87.7%)" stroke-width="1.5"></path><path d="M107.38 672.32L397.62 709.33" stroke="hsl(0, 0%, 87.7%)" stroke-width="1.5"></path><path d="M203.92 528.67L203.92 528.67" stroke="hsl(0, 0%, 87.7%)" stroke-width="1.5"></path><path d="M203.92 528.67L222.37 644.07" stroke="hsl(0, 0%, 87.7%)" stroke-width="1.5"></path><path d="M203.92 528.67L394.52 530.32" stroke="hsl(0, 0%, 87.7%)" stroke-width="1.5"></path><path d="M222.37 644.07L222.37 644.07" stroke="hsl(0, 0%, 87.7%)" stroke-width="1.5"></path><path d="M222.37 644.07L74.89 558.24" stroke="hsl(0, 0%, 87.7%)" stroke-width="1.5"></path><path d="M222.37 644.07L394.52 530.32" stroke="hsl(0, 0%, 87.7%)" stroke-width="1.5"></path><path d="M222.37 644.07L499.02 489.87" stroke="hsl(0, 0%, 87.7%)" stroke-width="1.5"></path><path d="M394.52 530.32L394.52 530.32" stroke="hsl(0, 0%, 87.7%)" stroke-width="1.5"></path><path d="M394.52 530.32L499.02 489.87" stroke="hsl(0, 0%, 87.7%)" stroke-width="1.5"></path><path d="M499.02 489.87L499.02 489.87" stroke="hsl(0, 0%, 87.7%)" stroke-width="1.5"></path><path d="M499.02 489.87L652.15 528.25" stroke="hsl(0, 0%, 87.7%)" stroke-width="1.5"></path><path d="M499.02 489.87L554.31 645.21" stroke="hsl(0, 0%, 87.7%)" stroke-width="1.5"></path><path d="M499.02 489.87L648.68 650.95" stroke="hsl(0, 0%, 87.7%)" stroke-width="1.5"></path><path d="M499.02 489.87L699.22 397.88" stroke="hsl(0, 0%, 87.7%)" stroke-width="1.5"></path><path d="M554.31 645.21L554.31 645.21" stroke="hsl(0, 0%, 87.7%)" stroke-width="1.5"></path><path d="M554.31 645.21L648.68 650.95" stroke="hsl(0, 0%, 87.7%)" stroke-width="1.5"></path><path d="M554.31 645.21L652.15 528.25" stroke="hsl(0, 0%, 87.7%)" stroke-width="1.5"></path><path d="M554.31 645.21L394.52 530.32" stroke="hsl(0, 0%, 87.7%)" stroke-width="1.5"></path><path d="M554.31 645.21L699.22 397.88" stroke="hsl(0, 0%, 87.7%)" stroke-width="1.5"></path><path d="M699.22 397.88L699.22 397.88" stroke="hsl(0, 0%, 87.7%)" stroke-width="1.5"></path><path d="M699.22 397.88L652.15 528.25" stroke="hsl(0, 0%, 87.7%)" stroke-width="1.5"></path><path d="M699.22 397.88L825.08 495.11" stroke="hsl(0, 0%, 87.7%)" stroke-width="1.5"></path><path d="M699.22 397.88L856.75 373.28" stroke="hsl(0, 0%, 87.7%)" stroke-width="1.5"></path><path d="M652.15 528.25L652.15 528.25" stroke="hsl(0, 0%, 87.7%)" stroke-width="1.5"></path><path d="M652.15 528.25L648.68 650.95" stroke="hsl(0, 0%, 87.7%)" stroke-width="1.5"></path><path d="M652.15 528.25L825.08 495.11" stroke="hsl(0, 0%, 87.7%)" stroke-width="1.5"></path><path d="M648.68 650.95L648.68 650.95" stroke="hsl(0, 0%, 87.7%)" stroke-width="1.5"></path><path d="M856.75 373.28L856.75 373.28" stroke="hsl(0, 0%, 87.7%)" stroke-width="1.5"></path><path d="M856.75 373.28L946.35 347.21" stroke="hsl(0, 0%, 87.7%)" stroke-width="1.5"></path><path d="M856.75 373.28L825.08 495.11" stroke="hsl(0, 0%, 87.7%)" stroke-width="1.5"></path><path d="M825.08 495.11L825.08 495.11" stroke="hsl(0, 0%, 87.7%)" stroke-width="1.5"></path><path d="M825.08 495.11L978.81 549.76" stroke="hsl(0, 0%, 87.7%)" stroke-width="1.5"></path><path d="M946.35 347.21L946.35 347.21" stroke="hsl(0, 0%, 87.7%)" stroke-width="1.5"></path><path d="M946.35 347.21L1123.88 344.24" stroke="hsl(0, 0%, 87.7%)" stroke-width="1.5"></path><path d="M946.35 347.21L825.08 495.11" stroke="hsl(0, 0%, 87.7%)" stroke-width="1.5"></path><path d="M946.35 347.21L978.81 549.76" stroke="hsl(0, 0%, 87.7%)" stroke-width="1.5"></path><path d="M946.35 347.21L1143.03 192.23" stroke="hsl(0, 0%, 87.7%)" stroke-width="1.5"></path><path d="M946.35 347.21L1145.57 499.5" stroke="hsl(0, 0%, 87.7%)" stroke-width="1.5"></path><path d="M978.81 549.76L978.81 549.76" stroke="hsl(0, 0%, 87.7%)" stroke-width="1.5"></path><path d="M978.81 549.76L1145.57 499.5" stroke="hsl(0, 0%, 87.7%)" stroke-width="1.5"></path><path d="M978.81 549.76L1112.59 667.58" stroke="hsl(0, 0%, 87.7%)" stroke-width="1.5"></path><path d="M978.81 549.76L856.75 373.28" stroke="hsl(0, 0%, 87.7%)" stroke-width="1.5"></path><path d="M1143.03 192.23L1143.03 192.23" stroke="hsl(0, 0%, 87.7%)" stroke-width="1.5"></path><path d="M1143.03 192.23L1277.91 256.71" stroke="hsl(0, 0%, 87.7%)" stroke-width="1.5"></path><path d="M1143.03 192.23L1123.88 344.24" stroke="hsl(0, 0%, 87.7%)" stroke-width="1.5"></path><path d="M1143.03 192.23L1265.04 96.64" stroke="hsl(0, 0%, 87.7%)" stroke-width="1.5"></path><path d="M1143.03 192.23L1238.56 371.3" stroke="hsl(0, 0%, 87.7%)" stroke-width="1.5"></path><path d="M1143.03 192.23L1417.87 250" stroke="hsl(0, 0%, 87.7%)" stroke-width="1.5"></path><path d="M1123.88 344.24L1123.88 344.24" stroke="hsl(0, 0%, 87.7%)" stroke-width="1.5"></path><path d="M1123.88 344.24L1238.56 371.3" stroke="hsl(0, 0%, 87.7%)" stroke-width="1.5"></path><path d="M1123.88 344.24L1145.57 499.5" stroke="hsl(0, 0%, 87.7%)" stroke-width="1.5"></path><path d="M1123.88 344.24L1277.91 256.71" stroke="hsl(0, 0%, 87.7%)" stroke-width="1.5"></path><path d="M1112.59 667.58L1112.59 667.58" stroke="hsl(0, 0%, 87.7%)" stroke-width="1.5"></path><path d="M1112.59 667.58L1145.57 499.5" stroke="hsl(0, 0%, 87.7%)" stroke-width="1.5"></path><path d="M1112.59 667.58L1304.82 638.94" stroke="hsl(0, 0%, 87.7%)" stroke-width="1.5"></path><path d="M1307.6 -41.02L1307.6 -41.02" stroke="hsl(0, 0%, 87.7%)" stroke-width="1.5"></path><path d="M1307.6 -41.02L1434.85 -80.42" stroke="hsl(0, 0%, 87.7%)" stroke-width="1.5"></path><path d="M1307.6 -41.02L1265.04 96.64" stroke="hsl(0, 0%, 87.7%)" stroke-width="1.5"></path><path d="M1307.6 -41.02L1458 76.82" stroke="hsl(0, 0%, 87.7%)" stroke-width="1.5"></path><path d="M1307.6 -41.02L1143.03 192.23" stroke="hsl(0, 0%, 87.7%)" stroke-width="1.5"></path><path d="M1307.6 -41.02L1571.38 92.4" stroke="hsl(0, 0%, 87.7%)" stroke-width="1.5"></path><path d="M1307.6 -41.02L1603.9 -70.44" stroke="hsl(0, 0%, 87.7%)" stroke-width="1.5"></path><path d="M1265.04 96.64L1265.04 96.64" stroke="hsl(0, 0%, 87.7%)" stroke-width="1.5"></path><path d="M1265.04 96.64L1277.91 256.71" stroke="hsl(0, 0%, 87.7%)" stroke-width="1.5"></path><path d="M1265.04 96.64L1458 76.82" stroke="hsl(0, 0%, 87.7%)" stroke-width="1.5"></path><path d="M1265.04 96.64L1417.87 250" stroke="hsl(0, 0%, 87.7%)" stroke-width="1.5"></path><path d="M1265.04 96.64L1434.85 -80.42" stroke="hsl(0, 0%, 87.7%)" stroke-width="1.5"></path><path d="M1277.91 256.71L1277.91 256.71" stroke="hsl(0, 0%, 87.7%)" stroke-width="1.5"></path><path d="M1277.91 256.71L1238.56 371.3" stroke="hsl(0, 0%, 87.7%)" stroke-width="1.5"></path><path d="M1238.56 371.3L1238.56 371.3" stroke="hsl(0, 0%, 87.7%)" stroke-width="1.5"></path><path d="M1238.56 371.3L1145.57 499.5" stroke="hsl(0, 0%, 87.7%)" stroke-width="1.5"></path><path d="M1304.82 638.94L1304.82 638.94" stroke="hsl(0, 0%, 87.7%)" stroke-width="1.5"></path><path d="M1304.82 638.94L1393.87 541.12" stroke="hsl(0, 0%, 87.7%)" stroke-width="1.5"></path><path d="M1434.85 -80.42L1434.85 -80.42" stroke="hsl(0, 0%, 87.7%)" stroke-width="1.5"></path><path d="M1434.85 -80.42L1458 76.82" stroke="hsl(0, 0%, 87.7%)" stroke-width="1.5"></path><path d="M1458 76.82L1458 76.82" stroke="hsl(0, 0%, 87.7%)" stroke-width="1.5"></path><path d="M1458 76.82L1571.38 92.4" stroke="hsl(0, 0%, 87.7%)" stroke-width="1.5"></path><path d="M1393.87 541.12L1393.87 541.12" stroke="hsl(0, 0%, 87.7%)" stroke-width="1.5"></path><path d="M1603.9 -70.44L1603.9 -70.44" stroke="hsl(0, 0%, 87.7%)" stroke-width="1.5"></path><path d="M1603.9 -70.44L1571.38 92.4" stroke="hsl(0, 0%, 87.7%)" stroke-width="1.5"></path><path d="M1603.9 -70.44L1434.85 -80.42" stroke="hsl(0, 0%, 87.7%)" stroke-width="1.5"></path><path d="M1603.9 -70.44L1458 76.82" stroke="hsl(0, 0%, 87.7%)" stroke-width="1.5"></path><path d="M1571.38 92.4L1571.38 92.4" stroke="hsl(0, 0%, 87.7%)" stroke-width="1.5"></path><path d="M1571.38 92.4L1601.71 210.96" stroke="hsl(0, 0%, 87.7%)" stroke-width="1.5"></path><path d="M1601.71 210.96L1601.71 210.96" stroke="hsl(0, 0%, 87.7%)" stroke-width="1.5"></path><path d="M1601.71 210.96L1458 76.82" stroke="hsl(0, 0%, 87.7%)" stroke-width="1.5"></path><path d="M1601.71 210.96L1445.26 362.12" stroke="hsl(0, 0%, 87.7%)" stroke-width="1.5"></path><path d="M1601.71 210.96L1603.9 -70.44" stroke="hsl(0, 0%, 87.7%)" stroke-width="1.5"></path><path d="M1601.71 210.96L1548.41 497.43" stroke="hsl(0, 0%, 87.7%)" stroke-width="1.5"></path><path d="M1560.53 642.88L1560.53 642.88" stroke="hsl(0, 0%, 87.7%)" stroke-width="1.5"></path><path d="M1560.53 642.88L1393.87 541.12" stroke="hsl(0, 0%, 87.7%)" stroke-width="1.5"></path><path d="M1560.53 642.88L1304.82 638.94" stroke="hsl(0, 0%, 87.7%)" stroke-width="1.5"></path><path d="M1560.53 642.88L1445.26 362.12" stroke="hsl(0, 0%, 87.7%)" stroke-width="1.5"></path><path d="M1560.53 642.88L1261.71 489.47" stroke="hsl(0, 0%, 87.7%)" stroke-width="1.5"></path><circle r="25" cx="397.62" cy="709.33" fill="url(#SvgjsRadialGradient1007)"></circle><circle r="25" cx="850.32" cy="662.55" fill="url(#SvgjsRadialGradient1007)"></circle><circle r="25" cx="1145.57" cy="499.5" fill="url(#SvgjsRadialGradient1007)"></circle><circle r="25" cx="1261.71" cy="489.47" fill="url(#SvgjsRadialGradient1007)"></circle><circle r="25" cx="1417.87" cy="250" fill="url(#SvgjsRadialGradient1007)"></circle><circle r="25" cx="1445.26" cy="362.12" fill="url(#SvgjsRadialGradient1007)"></circle><circle r="25" cx="1418.54" cy="670.57" fill="url(#SvgjsRadialGradient1007)"></circle><circle r="25" cx="1548.41" cy="497.43" fill="url(#SvgjsRadialGradient1007)"></circle><circle r="5" cx="-76.15" cy="515.4" fill="#d6d6d6"></circle><circle r="5" cx="-112.03" cy="712.45" fill="#d6d6d6"></circle><circle r="5" cx="74.89" cy="558.24" fill="#d6d6d6"></circle><circle r="5" cx="107.38" cy="672.32" fill="#d6d6d6"></circle><circle r="5" cx="203.92" cy="528.67" fill="#d6d6d6"></circle><circle r="5" cx="222.37" cy="644.07" fill="#d6d6d6"></circle><circle r="5" cx="394.52" cy="530.32" fill="#d6d6d6"></circle><circle r="5" cx="499.02" cy="489.87" fill="#d6d6d6"></circle><circle r="5" cx="554.31" cy="645.21" fill="#d6d6d6"></circle><circle r="5" cx="699.22" cy="397.88" fill="#d6d6d6"></circle><circle r="5" cx="652.15" cy="528.25" fill="#d6d6d6"></circle><circle r="5" cx="648.68" cy="650.95" fill="#d6d6d6"></circle><circle r="5" cx="856.75" cy="373.28" fill="#d6d6d6"></circle><circle r="5" cx="825.08" cy="495.11" fill="#d6d6d6"></circle><circle r="5" cx="946.35" cy="347.21" fill="#d6d6d6"></circle><circle r="5" cx="978.81" cy="549.76" fill="#d6d6d6"></circle><circle r="5" cx="1143.03" cy="192.23" fill="#d6d6d6"></circle><circle r="5" cx="1123.88" cy="344.24" fill="#d6d6d6"></circle><circle r="5" cx="1112.59" cy="667.58" fill="#d6d6d6"></circle><circle r="5" cx="1307.6" cy="-41.02" fill="#d6d6d6"></circle><circle r="5" cx="1265.04" cy="96.64" fill="#d6d6d6"></circle><circle r="5" cx="1277.91" cy="256.71" fill="#d6d6d6"></circle><circle r="5" cx="1238.56" cy="371.3" fill="#d6d6d6"></circle><circle r="5" cx="1304.82" cy="638.94" fill="#d6d6d6"></circle><circle r="5" cx="1434.85" cy="-80.42" fill="#d6d6d6"></circle><circle r="5" cx="1458" cy="76.82" fill="#d6d6d6"></circle><circle r="5" cx="1393.87" cy="541.12" fill="#d6d6d6"></circle><circle r="5" cx="1603.9" cy="-70.44" fill="#d6d6d6"></circle><circle r="5" cx="1571.38" cy="92.4" fill="#d6d6d6"></circle><circle r="5" cx="1601.71" cy="210.96" fill="#d6d6d6"></circle><circle r="5" cx="1560.53" cy="642.88" fill="#d6d6d6"></circle></g><defs><mask id="SvgjsMask1006"><rect width="1440" height="560" fill="#ffffff"></rect></mask><radialGradient id="SvgjsRadialGradient1007"><stop stop-color="#ffffff" offset="0.1"></stop><stop stop-color="rgba(172, 172, 172, 1)" offset="0.2"></stop><stop stop-color="rgba(172, 172, 172, 0)" offset="1"></stop></radialGradient></defs></svg>