<svg xmlns="http://www.w3.org/2000/svg" version="1.1" xmlns:xlink="http://www.w3.org/1999/xlink" xmlns:svgjs="http://svgjs.com/svgjs" width="1440" height="480" preserveAspectRatio="none" viewBox="0 0 1440 480"><g mask="url(&quot;#SvgjsMask1027&quot;)" fill="none"><rect width="1440" height="480" x="0" y="0" fill="rgba(255, 255, 255, 1)"></rect><path d="M22 480L502 0L898 0L418 480z" fill="url(#SvgjsLinearGradient1028)"></path><path d="M323.8 480L803.8 0L1181.8 0L701.8 480z" fill="url(#SvgjsLinearGradient1028)"></path><path d="M692.6 480L1172.6 0L1516.1 0L1036.1 480z" fill="url(#SvgjsLinearGradient1028)"></path><path d="M1394 480L914 0L498.5 0L978.5 480z" fill="url(#SvgjsLinearGradient1029)"></path><path d="M1120.2 480L640.2 0L488.70000000000005 0L968.7 480z" fill="url(#SvgjsLinearGradient1029)"></path><path d="M766.4 480L286.4 0L158.89999999999998 0L638.9 480z" fill="url(#SvgjsLinearGradient1029)"></path><path d="M1198.7198292194762 480L1440 238.71982921947617L1440 480z" fill="url(#SvgjsLinearGradient1028)"></path><path d="M0 480L241.28017078052383 480L 0 238.71982921947617z" fill="url(#SvgjsLinearGradient1029)"></path></g><defs><mask id="SvgjsMask1027"><rect width="1440" height="480" fill="#ffffff"></rect></mask><linearGradient x1="0%" y1="100%" x2="100%" y2="0%" id="SvgjsLinearGradient1028"><stop stop-color="rgba(218, 219, 224, 1)" offset="0"></stop><stop stop-opacity="0" stop-color="rgba(218, 219, 224, 1)" offset="0.66"></stop></linearGradient><linearGradient x1="100%" y1="100%" x2="0%" y2="0%" id="SvgjsLinearGradient1029"><stop stop-color="rgba(218, 219, 224, 1)" offset="0"></stop><stop stop-opacity="0" stop-color="rgba(218, 219, 224, 1)" offset="0.66"></stop></linearGradient></defs></svg>