<svg xmlns="http://www.w3.org/2000/svg" version="1.1" xmlns:xlink="http://www.w3.org/1999/xlink" xmlns:svgjs="http://svgjs.com/svgjs" width="800" height="1080" preserveAspectRatio="none" viewBox="0 0 800 1080"><g mask="url(&quot;#SvgjsMask1028&quot;)" fill="none"><rect width="800" height="1080" x="0" y="0" fill="url(#SvgjsLinearGradient1029)"></rect><path d="M800 0L781.2 0L800 222.85z" fill="rgba(255, 255, 255, .1)"></path><path d="M781.2 0L800 222.85L800 396.19L669.3000000000001 0z" fill="rgba(255, 255, 255, .075)"></path><path d="M669.3 0L800 396.19L800 760.0899999999999L503.11999999999995 0z" fill="rgba(255, 255, 255, .05)"></path><path d="M503.12 0L800 760.0899999999999L800 796.4599999999999L385.41 0z" fill="rgba(255, 255, 255, .025)"></path><path d="M0 1080L360.06 1080L0 1052.49z" fill="rgba(0, 0, 0, .1)"></path><path d="M0 1052.49L360.06 1080L382.24 1080L0 648.38z" fill="rgba(0, 0, 0, .075)"></path><path d="M0 648.38L382.24 1080L456.56 1080L0 400.9z" fill="rgba(0, 0, 0, .05)"></path><path d="M0 400.9L456.56 1080L668.37 1080L0 209.96999999999997z" fill="rgba(0, 0, 0, .025)"></path></g><defs><mask id="SvgjsMask1028"><rect width="800" height="1080" fill="#ffffff"></rect></mask><linearGradient x1="0%" y1="50%" x2="100%" y2="50%" gradientUnits="userSpaceOnUse" id="SvgjsLinearGradient1029"><stop stop-color="rgba(241, 241, 241, 1)" offset="1"></stop><stop stop-color="rgba(255, 255, 255, 1)" offset="1"></stop></linearGradient></defs></svg>