<svg xmlns="http://www.w3.org/2000/svg" version="1.1" xmlns:xlink="http://www.w3.org/1999/xlink" xmlns:svgjs="http://svgjs.com/svgjs" width="1080" height="560" preserveAspectRatio="none" viewBox="0 0 1080 560"><g mask="url(&quot;#SvgjsMask1568&quot;)" fill="none"><rect width="1080" height="560" x="0" y="0" fill="url(#SvgjsLinearGradient1569)"></rect><path d="M1080 0L941.3 0L1080 146.45z" fill="rgba(255, 255, 255, .1)"></path><path d="M941.3 0L1080 146.45L1080 350.23L894.06 0z" fill="rgba(255, 255, 255, .075)"></path><path d="M894.06 0L1080 350.23L1080 376.83000000000004L384.03999999999996 0z" fill="rgba(255, 255, 255, .05)"></path><path d="M384.03999999999996 0L1080 376.83000000000004L1080 420.28000000000003L363.62999999999994 0z" fill="rgba(255, 255, 255, .025)"></path><path d="M0 560L304.4 560L0 516.45z" fill="rgba(0, 0, 0, .1)"></path><path d="M0 516.45L304.4 560L697.13 560L0 441.49000000000007z" fill="rgba(0, 0, 0, .075)"></path><path d="M0 441.49L697.13 560L907.37 560L0 386.35z" fill="rgba(0, 0, 0, .05)"></path><path d="M0 386.35L907.37 560L951.78 560L0 207.17000000000002z" fill="rgba(0, 0, 0, .025)"></path></g><defs><mask id="SvgjsMask1568"><rect width="1080" height="560" fill="#ffffff"></rect></mask><linearGradient x1="0%" y1="50%" x2="100%" y2="50%" gradientUnits="userSpaceOnUse" id="SvgjsLinearGradient1569"><stop stop-color="rgba(255, 255, 255, 1)" offset="1"></stop><stop stop-color="rgba(147, 147, 147, 1)" offset="1"></stop></linearGradient></defs></svg>