<svg xmlns="http://www.w3.org/2000/svg" version="1.1" xmlns:xlink="http://www.w3.org/1999/xlink" xmlns:svgjs="http://svgjs.com/svgjs" width="1440" height="560" preserveAspectRatio="none" viewBox="0 0 1440 560"><g mask="url(&quot;#SvgjsMask1004&quot;)" fill="none"><rect width="1440" height="560" x="0" y="0" fill="rgba(255, 255, 255, 1)"></rect><path d="M0 315.36L10 279.28L20 339.09L30 310.31L40 300.68L50 326.94L60 342.99L70 397.73L80 414.62L90 459.79L100 439.44L110 501.57L120 555.75L130 508.76L140 466.78L150 408.77L160 446.8L170 408.84L180 421.35L190 488.29L200 461.05L210 417.77L220 444.84L230 496.72L240 433.47L250 470.34L260 441.35L270 466.39L280 524.64L290 457.55L300 451.61L310 494.05L320 457.98L330 498.99L340 496.19L350 545.32L360 518.94L370 513.96L380 447.72L390 408.7L400 384.94L410 381.23L420 413.07L430 439.49L440 477.8L450 478.32L460 451.95L470 508.75L480 461.26L490 414.3L500 421.58L510 430.54L520 463.74L530 502.99L540 558.83L550 531.15L560 525.86L570 457.77L580 458.7L590 399.52L600 340.65L610 364.54L620 337.73L630 340.88L640 351.75L650 299.51L660 279.18L670 241.67L680 294.96L690 261.66L700 194.34L710 195.35L720 195.99L730 246.37L740 279.94L750 309.08L760 308.94L770 376.96L780 424.36L790 432.69L800 491.85L810 428.01L820 438.68L830 450.64L840 481.07L850 435.08L860 452.85L870 411.92L880 426.05L890 358.91L900 355.21L910 412.6L920 397.3L930 390.3L940 374.35L950 370.92L960 400.49L970 422.03L980 363.66L990 336.48L1000 383.99L1010 423.68L1020 468.48L1030 480.38L1040 481.26L1050 547.48L1060 506.63L1070 487.16L1080 552.94L1090 500.58L1100 543.51L1110 548.3L1120 537.73L1130 534.89L1140 484.34L1150 547.09L1160 481.98L1170 487.66L1180 474.34L1190 465.46L1200 481.04L1210 518.95L1220 461.46L1230 493.85L1240 549.34L1250 541.88L1260 523.75L1270 463.49L1280 425.36L1290 486.06L1300 519.23L1310 451.94L1320 490.9L1330 468.67L1340 455.83L1350 468.41L1360 502.82L1370 556.41L1380 536.52L1390 503.84L1400 530.67L1410 555.65L1420 521.25L1430 489.37L1440 515.41" stroke="rgba(49, 211, 92, 0.6313725490196078)" stroke-width="2"></path><path d="M0 315.36L10 279.28L20 339.09L30 310.31L40 300.68L50 326.94L60 342.99L70 397.73L80 414.62L90 459.79L100 439.44L110 501.57L120 555.75L130 508.76L140 466.78L150 408.77L160 446.8L170 408.84L180 421.35L190 488.29L200 461.05L210 417.77L220 444.84L230 496.72L240 433.47L250 470.34L260 441.35L270 466.39L280 524.64L290 457.55L300 451.61L310 494.05L320 457.98L330 498.99L340 496.19L350 545.32L360 518.94L370 513.96L380 447.72L390 408.7L400 384.94L410 381.23L420 413.07L430 439.49L440 477.8L450 478.32L460 451.95L470 508.75L480 461.26L490 414.3L500 421.58L510 430.54L520 463.74L530 502.99L540 558.83L550 531.15L560 525.86L570 457.77L580 458.7L590 399.52L600 340.65L610 364.54L620 337.73L630 340.88L640 351.75L650 299.51L660 279.18L670 241.67L680 294.96L690 261.66L700 194.34L710 195.35L720 195.99L730 246.37L740 279.94L750 309.08L760 308.94L770 376.96L780 424.36L790 432.69L800 491.85L810 428.01L820 438.68L830 450.64L840 481.07L850 435.08L860 452.85L870 411.92L880 426.05L890 358.91L900 355.21L910 412.6L920 397.3L930 390.3L940 374.35L950 370.92L960 400.49L970 422.03L980 363.66L990 336.48L1000 383.99L1010 423.68L1020 468.48L1030 480.38L1040 481.26L1050 547.48L1060 506.63L1070 487.16L1080 552.94L1090 500.58L1100 543.51L1110 548.3L1120 537.73L1130 534.89L1140 484.34L1150 547.09L1160 481.98L1170 487.66L1180 474.34L1190 465.46L1200 481.04L1210 518.95L1220 461.46L1230 493.85L1240 549.34L1250 541.88L1260 523.75L1270 463.49L1280 425.36L1290 486.06L1300 519.23L1310 451.94L1320 490.9L1330 468.67L1340 455.83L1350 468.41L1360 502.82L1370 556.41L1380 536.52L1390 503.84L1400 530.67L1410 555.65L1420 521.25L1430 489.37L1440 515.41L1440 560L0 560z" fill="url(#SvgjsLinearGradient1005)"></path></g><defs><mask id="SvgjsMask1004"><rect width="1440" height="560" fill="#ffffff"></rect></mask><linearGradient x1="50%" y1="0%" x2="50%" y2="100%" id="SvgjsLinearGradient1005"><stop stop-opacity="0.65" stop-color="rgba(49, 211, 92, 0.6313725490196078)" offset="0"></stop><stop stop-opacity="0" stop-color="rgba(238, 251, 241, 0.6313725490196078)" offset="0.8"></stop></linearGradient></defs></svg>