<svg xmlns="http://www.w3.org/2000/svg" version="1.1" xmlns:xlink="http://www.w3.org/1999/xlink" xmlns:svgjs="http://svgjs.com/svgjs" width="1440" height="560" preserveAspectRatio="none" viewBox="0 0 1440 560"><g mask="url(&quot;#SvgjsMask1058&quot;)" fill="none"><rect width="1440" height="560" x="0" y="0" fill="rgba(255, 255, 255, 1)"></rect><path d="M 0,264 C 48,221.8 144,72.2 240,53 C 336,33.8 384,153.6 480,168 C 576,182.4 624,113.4 720,125 C 816,136.6 864,238.8 960,226 C 1056,213.2 1104,54.8 1200,61 C 1296,67.2 1392,217.8 1440,257L1440 560L0 560z" fill="rgba(255, 255, 255, 1)"></path><path d="M 0,332 C 96,350.8 288,419.4 480,426 C 672,432.6 768,359.6 960,365 C 1152,370.4 1344,435.4 1440,453L1440 560L0 560z" fill="rgba(229, 229, 229, 1)"></path></g><defs><mask id="SvgjsMask1058"><rect width="1440" height="560" fill="#ffffff"></rect></mask></defs></svg>